<mxfile host="app.diagrams.net" modified="2021-09-22T16:02:39.885Z" agent="5.0 (Windows NT 10.0; Win64; x64) AppleWebKit/537.36 (KHTML, like Gecko) Chrome/93.0.4577.82 Safari/537.36" etag="EsKNIlSw7ExYI0DFp3XC" version="14.7.0" type="github">
  <diagram id="M48fxHkQPUT_SxpESzdF" name="Page-1">
    <mxGraphModel dx="2249" dy="762" grid="1" gridSize="10" guides="1" tooltips="1" connect="1" arrows="1" fold="1" page="1" pageScale="1" pageWidth="827" pageHeight="1169" math="0" shadow="0">
      <root>
        <mxCell id="0" />
        <mxCell id="1" parent="0" />
        <mxCell id="82Q2UH0fjgOKLxt9wbc9-3" value="" style="whiteSpace=wrap;html=1;rounded=1;" parent="1" vertex="1">
          <mxGeometry x="602.5" y="70" width="220" height="350" as="geometry" />
        </mxCell>
        <mxCell id="SdDBeH3zptgb0904aIOv-11" value="" style="whiteSpace=wrap;html=1;rounded=1;strokeWidth=2;strokeColor=#A9C4EB;" parent="1" vertex="1">
          <mxGeometry x="-120" y="70" width="480" height="350" as="geometry" />
        </mxCell>
        <mxCell id="SdDBeH3zptgb0904aIOv-1" value="" style="whiteSpace=wrap;html=1;aspect=fixed;rounded=1;arcSize=21;fillColor=#f8cecc;strokeColor=#b85450;" parent="1" vertex="1">
          <mxGeometry x="-93.82" y="200" width="120" height="120" as="geometry" />
        </mxCell>
        <mxCell id="82Q2UH0fjgOKLxt9wbc9-6" style="edgeStyle=orthogonalEdgeStyle;rounded=1;orthogonalLoop=1;jettySize=auto;html=1;exitX=1;exitY=0.75;exitDx=0;exitDy=0;entryX=0;entryY=0.75;entryDx=0;entryDy=0;fontFamily=Tahoma;fontSize=19;startArrow=classic;startFill=1;" parent="1" source="SdDBeH3zptgb0904aIOv-3" target="SdDBeH3zptgb0904aIOv-20" edge="1">
          <mxGeometry relative="1" as="geometry">
            <Array as="points">
              <mxPoint x="390" y="290" />
              <mxPoint x="390" y="340" />
            </Array>
          </mxGeometry>
        </mxCell>
        <mxCell id="hoo51S1aPGbEEFe9KzI7-4" value="Peticiones de autenticación" style="edgeLabel;html=1;align=center;verticalAlign=middle;resizable=0;points=[];fontSize=14;" vertex="1" connectable="0" parent="82Q2UH0fjgOKLxt9wbc9-6">
          <mxGeometry x="0.0364" y="4" relative="1" as="geometry">
            <mxPoint x="14" y="-16" as="offset" />
          </mxGeometry>
        </mxCell>
        <mxCell id="82Q2UH0fjgOKLxt9wbc9-7" style="edgeStyle=orthogonalEdgeStyle;rounded=1;orthogonalLoop=1;jettySize=auto;html=1;exitX=1;exitY=0.25;exitDx=0;exitDy=0;entryX=0;entryY=0.25;entryDx=0;entryDy=0;fontFamily=Tahoma;fontSize=19;startArrow=classic;startFill=1;" parent="1" source="SdDBeH3zptgb0904aIOv-3" target="SdDBeH3zptgb0904aIOv-4" edge="1">
          <mxGeometry relative="1" as="geometry">
            <Array as="points">
              <mxPoint x="390" y="230" />
              <mxPoint x="390" y="160" />
            </Array>
          </mxGeometry>
        </mxCell>
        <mxCell id="82Q2UH0fjgOKLxt9wbc9-9" value="CREAR / EDITAR &lt;br&gt;(formato FHIR)" style="edgeLabel;html=1;align=center;verticalAlign=middle;resizable=0;points=[];fontSize=14;fontFamily=Helvetica;" parent="82Q2UH0fjgOKLxt9wbc9-7" vertex="1" connectable="0">
          <mxGeometry x="0.2519" y="4" relative="1" as="geometry">
            <mxPoint x="-21" y="24" as="offset" />
          </mxGeometry>
        </mxCell>
        <mxCell id="SdDBeH3zptgb0904aIOv-3" value="" style="whiteSpace=wrap;html=1;aspect=fixed;rounded=1;arcSize=23;fillColor=#dae8fc;strokeColor=#6c8ebf;" parent="1" vertex="1">
          <mxGeometry x="216.18" y="200" width="120" height="120" as="geometry" />
        </mxCell>
        <mxCell id="SdDBeH3zptgb0904aIOv-4" value="" style="whiteSpace=wrap;html=1;aspect=fixed;rounded=1;arcSize=23;fillColor=#ffe6cc;strokeColor=#d79b00;" parent="1" vertex="1">
          <mxGeometry x="652.5" y="130" width="120" height="120" as="geometry" />
        </mxCell>
        <mxCell id="SdDBeH3zptgb0904aIOv-5" value="" style="shape=image;html=1;verticalAlign=top;verticalLabelPosition=bottom;labelBackgroundColor=#ffffff;imageAspect=0;aspect=fixed;image=https://cdn3.iconfinder.com/data/icons/popular-services-brands/512/angular-js-128.png" parent="1" vertex="1">
          <mxGeometry x="-85.82" y="208" width="104" height="104" as="geometry" />
        </mxCell>
        <mxCell id="SdDBeH3zptgb0904aIOv-6" value="" style="shape=image;html=1;verticalAlign=top;verticalLabelPosition=bottom;labelBackgroundColor=#ffffff;imageAspect=0;aspect=fixed;image=https://cdn3.iconfinder.com/data/icons/logos-and-brands-adobe/512/267_Python-128.png" parent="1" vertex="1">
          <mxGeometry x="222.68" y="206.5" width="107" height="107" as="geometry" />
        </mxCell>
        <mxCell id="SdDBeH3zptgb0904aIOv-7" value="" style="shadow=0;dashed=0;html=1;strokeColor=none;fillColor=#505050;labelPosition=center;verticalLabelPosition=bottom;verticalAlign=top;outlineConnect=0;align=center;shape=mxgraph.office.databases.database_availability_group;" parent="1" vertex="1">
          <mxGeometry x="667.5" y="145" width="90" height="90" as="geometry" />
        </mxCell>
        <mxCell id="SdDBeH3zptgb0904aIOv-8" value="Interfaz de usuario" style="text;html=1;strokeColor=none;fillColor=none;align=center;verticalAlign=middle;whiteSpace=wrap;rounded=0;fontFamily=Helvetica;fontSize=18;fontStyle=1" parent="1" vertex="1">
          <mxGeometry x="-92.63999999999999" y="340" width="118.82" height="20" as="geometry" />
        </mxCell>
        <mxCell id="SdDBeH3zptgb0904aIOv-10" value="Servidor de datos FHIR" style="text;html=1;strokeColor=none;fillColor=none;align=center;verticalAlign=middle;whiteSpace=wrap;rounded=0;" parent="1" vertex="1">
          <mxGeometry x="660" y="100" width="105" height="20" as="geometry" />
        </mxCell>
        <mxCell id="SdDBeH3zptgb0904aIOv-13" value="CREAR / EDITAR" style="endArrow=classic;html=1;exitX=1;exitY=0.25;exitDx=0;exitDy=0;entryX=0;entryY=0.25;entryDx=0;entryDy=0;fontSize=14;fontStyle=1" parent="1" source="SdDBeH3zptgb0904aIOv-1" target="SdDBeH3zptgb0904aIOv-3" edge="1">
          <mxGeometry x="0.0526" y="10" width="50" height="50" relative="1" as="geometry">
            <mxPoint x="276.18" y="350" as="sourcePoint" />
            <mxPoint x="326.18" y="300" as="targetPoint" />
            <Array as="points">
              <mxPoint x="126.18" y="230" />
            </Array>
            <mxPoint as="offset" />
          </mxGeometry>
        </mxCell>
        <mxCell id="SdDBeH3zptgb0904aIOv-18" value="ÉXITO / ERROR" style="endArrow=none;html=1;exitX=1;exitY=0.25;exitDx=0;exitDy=0;entryX=0;entryY=0.25;entryDx=0;entryDy=0;startArrow=classic;startFill=1;endFill=0;fontSize=14;fontStyle=1" parent="1" edge="1">
          <mxGeometry x="0.0526" y="-10" width="50" height="50" relative="1" as="geometry">
            <mxPoint x="26.180000000000007" y="290" as="sourcePoint" />
            <mxPoint x="216.18" y="290" as="targetPoint" />
            <mxPoint as="offset" />
          </mxGeometry>
        </mxCell>
        <mxCell id="SdDBeH3zptgb0904aIOv-19" value="" style="shape=image;verticalLabelPosition=bottom;verticalAlign=top;imageAspect=0;aspect=fixed;image=data:image/png,iVBORw0KGgoAAAANSUhEUgAAAOkAAABbCAYAAACWNaKdAAAAAXNSR0IArs4c6QAAAARnQU1BAACxjwv8YQUAAAAJcEhZcwAADsMAAA7DAcdvqGQAACICSURBVHhe7Z0HeFTFGobX7r027F2xYO/1gnoFpIgUsaJiQwQFRRC9qIAiICWETiB06R2poffeS+i9E3roPfx33n/36CbsbnY3G0iZ73nmgSS758yZme/vM8clFhYWGRqWpBYWGRyWpBYWGRyWpBYWGRyWpBZZFklnzsi23Yek++gl8nHdofLop+3lpuLN5YqC0XJ5gUZyXdGmcl+pNlL4h97SsOcMWbB6hxw9fsrzbd84ffKUHF2zU3Z0myGryneTRYWayfyXGsq85/+Qebnry8ICTWTpB+1lU9RIOThznSQdPO75ZviwJLXIcjh1Kkk2JiRKq4Fz5NkvOxtCRsmFeRvIBa82ENd/6ydr/O5C0y57LUru+6CNfNN0lMxYskWOHDvpuZobSSdOyZFVCbKp0ShZ/HpzmftsXZnzdG2Z+3QdmfNU7b+b/szvn6kjC15tJKur9pXESSvlVOIRESM0woElqUWWwpFjJ2Tywk1S7Kd+ckWhaCVnSmL6a3z2ckPWZ8p2ko7DFsluQ6yk00lyat8R2TVwvsSXjJE5Ss7kxPTb+NwzdWVhwaZK7qNrd8oZI0BChSWpRZbBMWOqTpi/UfJX7imX5Gvok4jBtIvzNpRcH8ZKqwFzJWHdLtnWaaosMkRDO/okYyqN783P00DW1/hLjq7aaWzm0IhqSWqRJXDi5GmZuXSrFK3WVy7LH+WTfKG0i/M1kHveai51K3aQca/Wl9nBak9/zXx/7ov1ZF2NQXJs8145kxS86WtJapHpcdpopuUbdsvXjUfK1a83lgt8kC60Vk9cL9WRix6vIrffVkq+u6e8jHy8hsx+8nffBAy2GaLOy9NQtsZOND7qUU/vU4clqUWmB75j496z5J5SbTQI5Jt4IbRX/hDXc7+I69b35cKrCsktOYrKt3d/KaMeSztRMX3ji7WUxMmrg/ZPLUktMjVOmoU+Y8lWyfddD02r+IrghtReMVo0T21xPfCVuHK8Ia4rC8iFpt0KUe/6UkY8Wj3tRH22rqz9sb+c3HXI8xSBYUlqkamReOiYtBo4V+54p1WEtKgh6fPVxXXb++K6qqCS1CHq7Yao399dLu1ENWbvgrzRsn/mOs9TBIYlqUWmxZkzZ2T99kT5vP4wubKw8UUjQdKXjalrfFHX9cX/Jqg3Ue+6tphUNBo1Lq1ENWbvltYTPE8SGJakFpkWp04nyezl2ySvMXXTknJJ1l6qI65c5YypW+QsktIuMu2OHBC1rAxLC1GNNl1ZvpvnSQLDktQi0+LYiVMyctY6efyzDpExdWm5fxdXzk/FdXVhnySlQdS7ri3uIeovYRN1cYlWnicJDEtSi0wLSvcGTFwpuT6KjUDaxTT80Rd/E9edpY0/WsgnQZ128ZUFJachagVD1CGPhEdU6nyDgSWpRaYFJO03YbnW3PokXagtBJLSLjFEzXXdm1LJ+KikZ3wRMVBb+JolqUUWx9HjJ2XI1FXy0MdtI6dJc9cS192fBDR3vdulVxWUBwxRa9xTQSY98atPMvpr8UVbep4kMCxJLTItKAWcuGCjPF+us1wUQiF9wPZSbXHd+4W4rnndJyl9tcuM1n3hxncl5oEqMjMEs3fZR+09TxIYlqQWmRZJSWdk6frdUuynvrrVzCfpQm0v1xXXI9+K69qiPgnpr11z9etS6vZPNeLri5BntafryIbfh3qeJDAsSS0yNRL2HpJqsRMkxxtNfJMu1EZJ4DPVxHXTWz7J6K+RQ33o+pISfX8lmRWENp37/B+yZ9hiz1MEhiWpRabG4aMnpN+EFfLAR7GRMXnxS//zq7ju+tj4pakHj7xbDqNNv7yzjIx9vKZPYjqNjeGLS8bIkbU7PE8RGJakFpkaSUlJsmrzHildZ7BcVThaLnjVB/FCaoakLxmT97HK4rru7KqjQI20zGs3fyC9Hq7mk5xOQ4tuiZkgp4+c8DxFYFiSWmR6HD56UvpPXCFPlukYoQAS2vQ3d5Q3iFSM0y4w7Ykb3pbmuSr7JKc2o0WXle4gR5YnBH2ciiWpRaYHNbwcONag+wy57a0Wkak+oob3aeOb3vJuskL7QA2SUuBQ654KPosb1Mx9o4XsGR4vp41gCRaWpBZZAhw+tmrzXqkaM1ZuLN48MnlTNXuruINIQRAVkrKl7X85v0qeiuFgsmfr6gFm2ztNk5N7D6tgCRaWpBZZBidOnpKFq3dI+UYjJEeRppE5oSHP74ao3xmN+k5Qpi8bxH/IWf5vkqI9571YT+LfjJFt7afI8a37Qjo6BViSWmQpHD9xSuavTJByUXFyQ7FmETB9CSTVFtdTP7h9VLawadT3bM2KJqXwvua9FWX2M25yLircTNZ831d2DVogJxIOcBiwp6fBw5LUIsvBIeo3zUbJzSUi5aMa0/eFGuJ6pJI7PYMJfF1RcV1TxF2ddHVhudD8+/gdpaRl7hqy5N1YWV25tyR0nSGHl2yTUweOhaxBHViSWmRJUDK4aM0OqdR8tNxaMkJEJYeap44ha3VxPVlVXA9XFNd9ZcWV8zO5wGjZS+/7XEqUqCMTW4yQvWOWyeFl2+XkHuN/hnHWrjcsSS2yLCDq/FUJ8q3RqLe/3TJCe04NUSErmpWzkEjVvFBTLnixptxYqIHUaDlKEjbtlqSjJ+RMiOfr+oMlqUWWBgdm89qIr6JHGI0aKaImbxzbcnG+hvpKi78mr9QTIyIJS1KLLA/2nU6L3yzlDVEjdmCZVyOKfH2xZuoDb9ie6Llr5GBJmo1Abu6QMcO27zkkW3YekJ37jqT6FrGsAmp8pyzapKbvnREkKgS9/LVG8mqlHjJ8xho5eeq0546RgyVpNgKmH69iaNRrpvzacbK0HbxA4tfu0kKA7IBDR07o8xNMuuvdmDQTlTrhS/NHySOftJcW/efoId3pAUvSbIQDh4/LnyMWy4tfddHT3t/8pb8MnbZGjp+IvPTPiFBLwhAVjVo+Ok5ueyt8HxWCXpK/odz/Yaz8FDtBq53Y35oesCTNRth/6LgeJI0WQQPkqdBN+oxbrhr2fAMCkd/ELMWH5P+hlM6FAojK6xHxUe98N3TTF4ISKLr3gzbyc9uJEr/OWCMRDhZ5w5I0GyEjk/SgIQ6vLWw/dKF0jlskY+as09+lFxyi8tLgUIJJEJSdNne/11oJunT9rnTxQ71hSZqNwJauQVNWyYe1B0uhH3ob32yMEoN84vnG5p0H5MfW4/RQsafKdFS/cfOOA56/pg8gKu+RqWiIGuzuGQgKqX9uN1Hf5JaeGtSBJWk2AgGiLTsPyvQlW5Sc81YmaIQ3vczKULBu2z75uO4QJcFVhRvLu7/+ZX4X+XRGSmBaQ9Svm4yUW1MhKm8Cxwr5qa3bB+WVi+cClqTZDCws/D2CRWjQ9Ap2hIq1W/fJR3UGKxn+XbCRvF1j4DkhKcDCmLxok5RpMFxuKdncJ1Eh6C0lWxiCokH3nNOIuCWpRYbA+SQpQKNOWbRZyjUaITeVSE5U/k/9LweerTH9PFca1IElqUWGwPkmKSCANmvZNvmi4XC5oXgzLVT4m6BtJsiG7fvPi2twXkiKqYCpder0uQ1Y4OQ7Zt65loZpBf3lhblEEjOKiQpYs/SJDddpGdOMQFLA2pi9fLt8Vn+Ylvrd8XYr+V+b8UrQ84U0kXT15n1eba+sN4NKwtxb2vB/HpwAxZzl22TApBXS+q950rTPbIkZOE+T60OnrZYl63bJ/kPHIkYeFvLhYydkY8IBDbX3HLNEYrhv3zmmzZbYQfO1GHq2kZwJew5pH4ORkvRxY8L+ZM9NvaavvjvPvss8+7L1u2Xa4i0yLX6Lfv64+b0/sOj3Hjiqvs/Yueulx+gl0sb0t3m/OVrZ0mVEvL5NbNGanbIr8UjAFMDppCQz9odlzZZ/+kuQhu/hm4YCno+yQvpP8Kn/xOWaMmk5YK40M+PabsgCHVMCMZvMGB0x4+9vTJkfxmzNlr3ar3HzNkjxn/spSf9lSEr0edy8jZ4+/9Mg7r6Dx9JVUDFnaNTvWoyROl2mmfvuDWptpBfSRNLP6g37u31ef7hUbDJKOg9fpLWhgIHcufewjDILqvafU410HCBPfdFRI2SYEEip+z+I1QoYInssQohMaDzcQeF7+Bfxa3dKp7hFUtkMdGEz4Y9+2l7vRwSPdvd7MbprgT7VMX0bbxYJCzc1IYHfQvj9n+ceprm2DmaxQl7n+/y7wzz72DnrpUH36RqUeON/fbXKp5MZIwSDr2cklzl18WYVJGXMmOb7rqc8/HE7HTMqZNhyxRmzL3/TzWieIVriB2ES/Szc/UZodh0ZL2WNCefME0n8et2mabCE7wUDTMEVG/eY+V0s3zUfI0Wr9dW5zGnG8XYzrvQt5/uMaSclG1U4gwxhqRH2labgehPmb9CoKv16u+YALQ6ApBQKkId8u+bAv8fZadx7xMy1OsfpCawWIrhbdx9MdU2kN9JEUux1GrY77dL8DeWZsp10URw1g7hq015p0meWvFqpu9r4vOiVxisBaPyfkDvfvThfA12AJcwE8/2tuw6ELC0ZzK27DkqvMUvlkz+G6ivxMJ24Nsn7fxVopD//u2C0XG7+z+/pw81vtlAik+gn9xVIw3SOizekaZ/suXkWFmwX028WPZKY6zTpPUsKft9bt0gxNiTCr369sTsAYTSI9/NBWKwNnp1FfrtZ9FyXBUvf6S/9v7xAlP7MuPEvOTvSFX3GL9PT3DmH1hsIg4pNR8rl5lpOn91j3Uq+jIrTWtbUFuFBQ3QIVaHxSBUQ/zJ94P7OXNIn+ub0l3btG03lpQpdpWGPGUpuFr03KFRAC19btKley1kHkNQZV+f33g1hEG3GFW2aXZAmkt7zfmttLHIGkAG+pkhjPQhqwaodUqP9ZMn1YawuMBbnPaVaSx4zcUhh2n+/7S6PfdZBv89nWERM8FNlOunkIoWDJSrSeuWmPRLVc6a8UL6LXFGokdZW8voBEuQFq/ZW4lYw2r589EizsAfK8+X+1LA6i4v2+Ocd5LdOk43pvVOJ5gu8au+1Kj3Nc7fRU+m4B+S7pkgTo7XHqmm0YuNuqdVpijzySTt9LhYzwoExgFTcA9fA+9nQoJD8P1930QXPda8zC/hhc418lXvIW0bjf1R7sJSqNcjcv5eShWeDcFcWjtbx5A1jKTUMpjbF9A+WbqtCkBwk40yfeP5uo+IDaiWELe5CaaO16Q/fvcIIObQmc1n8p37ywe+D9O/Ff+4vTxshffObzVUo0XjBb/N+c1V4esN98vxytaIoUL/faFHGhzXEPa5+vYnWxfI378aawRLBVM4uSBNJ8UXwkX4x5h8Tw2K9olC00Up9lKD3lmqjPz9kzDWCAphw+J/s7aONmr1ONUeNDpMkf+We6qgzQReZBrlbG591TxA7C1jsELT2n1PUNETDQApM3LJRw1Vik7zn5T6YpPg181Zul77jl2tQAFKzKPjeQ2YxY55CotOnzxYQy4yGZGG36D9XzVzM5gs9z43Jjm/VzDznE4bwaOzrizVV6+IdIxSobGGshk1fozsmHHOX/k9asEnHDY1HP7AC0HQdhlEit964AdvVhOc0vLFzN+i4o0HR0ghI3IeaZhy3705uRkNA3jyG/4/LUcSY3JCBcWas+D0Cwhe4DtYQlUA3a1qivtxo/i1miBltzGzmkg3VHFNCTGG68be7G/8Zk5Sx5zkQIAhE/uatsfGjEWi9xi5V4YRQfq5cZyUpAvM5I0AaGYHL37wbc8Y8+hOiWRFpIim+I6bQ+u2JRiL+qQlfBvg+42eiRZDauY1mwG/C12QxpDStGGx82OFm4X5qNN2NxixmAV2ct6FKavzZ1GpLWZjcA2Igva8s1Nj4cj2kpVnILGwWqi//D7N27ZZ9umUrb6Ue2l++z317j1vm019DY3M9npsFyn34DiQtafxNFlvBqr0kh9Gs9xkhxTP9GbdYzUqEwzajUQiueSfDMf3qd5uhFgXPjsarGjNOrRES7Sn7DqkJLA2ctFIKfN9LhQH3L9swTl+54K2h+S7PyVxt2rFfGhtTES3IfR4s3U6FTeJB3yTle4OnrNI5dKyBEkZbjpy1VvYd8B3k452hCzxHlpBvhKj4zxA65W4b+okZzBrAesFfh6Tcp2T1AWom8zfvxue9ny87IE0kdcCiLWQWJiRF2qINGGhIg7alBjM1v4cJIPL53m9/GenbWH0SJH6lZqO1lM0HxxQsJBZAXkMWFiqLCROqsyEGgZvU7suEY1azeN3S35jIhmAsMvxKX9rUAVFSFi0+Gc+LKYY/iXZ94KO2GrSaaDS4v6COA8YHgrGg0YovVewmbCBmTAKBRVy55VhDutZqtn9lzHgsCn/3QhgQGcaEdkja3AgyfyTFpGxl5s9tLbhrVqN7z1RTNRD2HTwqHYcvVM1ILAJBwhwdC+Dr029Meoek5ysFkxERMZK+/mMfJSmDDMHQCtVix6v09qXFfAEthWlHhBCysWAhetxM/wsWsxTzCqnN54mColXdZp/nQ6kAImNGftFguJpzXCd3hS4y2IeP5w0siDd/GaAkdVsQbXRBY+ZTvE56B58uNaw0ZMN0dZ+V00CDZ7OWbfX81T+IRqPxK7cco1HSDsMWyrbdCDR/JDV+74jF6tsFQ1JM8nrdputcMqf4tT3GLPH81T/QpkSca3WeohU8f3Sdpu5FoFSRJal/pAtJIRgRXQIOgTSRL3CtXztM1uggCwM/FV8L8yolMBmHTF2t5qkT/GGHB2ZioAXhC5igmL0IBfqPZorqOUO1sb9F701Sxy/lQOYSxmxD2AQiuDfIYRJ8gTgICMaONAMFAoGA4CJ6u9L4jfjKBGcCRaZDJeme/Uc0EIffy1wgAMmHpvZcaHKsBwoU6BcWB+MbSFhbkvpHupAUghFsCDdMPnXRZnnULCQWLNFRfBUWckozDr+srpHSznGN/EvSn9+HCq49fv4GjZKySCA8kWAWj688H/AmqbPP8MHSsWo6Q55gQbHB963GylWegA5kqN7evRUqEOlCRagkxY+l2AQ3gGcjYk4QiFxxWnLZvmBJ6h8RJykSF3Ov99hlYe8UIG2A+QdR0FAUHbAwUmpHJpbADBFE7pv7666qgQhQccBWqG3Oiu2aMCedwvVYNJisfk1tL5KyuEid4JNOMhZEav6kN/gsUVFSQJCB536iTAf5reNkLWwgfxrK9fwhVJLiBhCVdccJovU75Ck/qzdUA0pUHjFukSCrJal/RJykLDJIRcog3Mkjmkue8UpjPkIWfD1C7ykDD5xVU/D7XrqomVyiiGhSSuZGz14fciPYRFSRKC/Xy1+lp6Zu/AU8UmpSgiSkdMJZXERlCVY5KRUsCHxA0jrthizU6DjambEJd1xDJSnYsfeQxA6er8UaBNXoGz4q6aK6XaZq2SJkRbOmFqQLBEtS/4gYSanYgaREKInmEdAJF2jMnmOWqtnMpFEdQ90tdaMOWKhIcwQCPiSfI1fLz5D1lW+7h9yeL/+nRjCd61FYgGZGW/hCcp+0gQoTgjfhmNukFtBalO8RrUXwQIgcZgweM+YmhQyY0ZACX49IbaikCIek3ANXo0GPGVqoAIH4LhH8nO+1VuFM7nfAxBWa7iLYFI7WtyT1j4iTlMnDhyS6Gi5YGKNnr9OcKZNG5PaPbtM1+OAAPxEis+CoUkLjXmYEBFqQ1E24je8TAKKR1hk9Z50hqe9AiTdJ6QMpByLR/j6fGtCSWCBUCL38TXd3RZO5Ltem2AI3gqKPKi3HaFSX83UYk0DpHW+EQ1LAWCN02w9doIUMd70Xo5oeV4Ri+FuNCYyAw/UgZYOwwc/258v7giWpf0ScpPhlDHYogZOUgKREhqmiwYykHA1p7V1cgLSmWgmTEI1zsWkUUBSr1k/eqTlQfdq0Nsiy2GgHf5oBkjp5UkxBygUpcEiL2YdGJW2FlfBts9Hy3JedVEhBCp4TDYtZTRUT5ZeU1mFuBqO9wiUpQBBgIeAjk1LBWuKQaYQZQsQtSBprpRhCmvw4aS3uGYx5bknqH5HXpGbBEjxJWasZCljk+IK3kJ/zIik7OhywmAm2UHKoPpxZvOzCYTsYpWyYaGltPMPRY/59QG+SQiK0DCVy4fqMDvg+JjbX5+CwH42fiwDAnEbTq1DKZ0zhIk3kBaPB8N951R/VSYGQFpI6wBUhsEfhScMe0w2ZBsgTn3fUVBlan75BXMjKDiGKGPbsP5qqtrck9Y+IB47wSVlQ67Ymhr1YMZPQJOQcmTTM3rpdpiUzd5l0/KAny3RULXqJWbSkMVjYRJX5e1pbav33NncREiWr91cTNFKgD1T3UJFExJjaZ6wECEBVlqNZKcOs0nKszFq6LaJ50kBAc+8yJi3assfopfJ145EaD3DIima9qUQLLcwYOGlFqn762SQdYEnqQcQ1KZOPKTZ3RfjRXRYAe0tJhTBpd74To4UGKcvR0Lb4jSxUfNIPfh+sBxWnxdwMBd4kxcxn/yPJ+0iDcURwIaQIzrQZNE9NSvKpTikh/+cc2HVbz84nO4gkSR1wL7T+JiNIqNAit8zOF4jGPdipQ26V/bqBBAgkZU+pN0kJkFmkA0khC1vS2N0QLllYTGWMqURQguuxWyNuxlozycn9LgjxYe1BOqlMLsKB4u9z9doEb3M3PUnqDQiLsCLAhAuAT+6YmbkrdNWTEY75CVylB0m9gXDlmBG2krFhAW3PfYhW1+o0WTcX+AMbrCGzm6TRKoRwWyzSwdxlkJGeVByxKMIBhePPl+usJhMLkAlfvGanIX1yDUG4n5JB53Q3fDRK+YgshqvFQ8H5IKkDNBhbvcjLOu80IX/JcR/+TMv0JqkDCuyJFxDxZQ7Jd2PKsjvGn5bHtCUnzPphLBH61PtapIMmZZAJarBRmQR8qNqUM3k4A4l9mGhRIoZEOSFeSuB79jd+KakPzD4+z0kIRIYjWU7nD5EkKYuX5wlFuBA8061kRoPy/Ggu9qyyZ9bXdcIhKddhDlOe+BAIPAuCtlxUnM4fke+XK3bTHK+/KDRalo0C9IvPs5Np2PTV50TYZnSkiyalUaDOJuNdicFrNRYD+wo514dFx4SxY1+rjfwUFFC8zcIkLcHnWRRocUylcMoS8f0omqDKKLV+R4qk9HPt1kQNwqAFgx0vPjd+3kYpUKWX6YP7eJVyjeJ0THxdI1SSQjY2GCwy/Qpmu6E3EBQ/mHlA2GIN/ceQzu2K+J5HSjk5FoVnwHRnNxGb79PzfTCZBREnKdqMxsTkqdhVgwkEPFJbeCwI9nUSpSRxzzXwTchXEkDwZyaREiBXyMZkPs/32NTcuM8sXSj+JHdK0D+KEDAh8X/nrUg9pREJknJfCFCny1T5pO5QTblA1GAIQcCGZycNw3hTnfRDzDi/vl9KkrLnFZL62mEE9pl+9Bq7TLfwEVnG3wxG8CHoyC+TgiFlROSbvCr11/4KHCDvgEkr9Tge5hAT+Z2agWunswsibu4iBZkYzjoiX1a0Wj8ZMm21HpLFYEM2FqbTWIx8n9pVNC/7OZkkrkPAKJi3fmEKk2Bn8TlmL9U5v3eeoici7DWLkG1fKe/Nz9wfcpITpcqJExE4+4fN5vqC3QBkiQRJuTeBFlJJLGYqiviZc5LQIie9xgw4/eZ7+OlVW43Tog+qfzh5keNQ/MUCvEnKGHGGEHtv0ZYIO2/BABk54oa0Er4+ASq2EBK1J+/pPZ7A6RdzvG33Iek4zL3pG58UK4ejYIjgOp/3Bcb7HSOUnUAYEeuqrcZqDhhNy7WZD/oZ6DpZDRHXpPgTD3/cVn8mgARReVU5AR18RbRiglkUEIsNypyNw1m8XzceoSYy12Bi2XZGxU+wQSD2VFZvN0m1g5OSoQiCvZ0sXM75YZGgrVmUHNmCpqX4gDOHEBDs4+Q7LBKIir9L4bg/RIKkLD5OVHROheDeD5pn4NhN8o/49fSTDd5s/WM8EGiYjrw46BHPWUJYH+RQKebwJ1ggabdRS/ReFIlQ64y24zmZG/xIx3pAMHIGVaGqvVVDc+4UATo2IFBNRN529Za9OpZofoJ49JOKq5iBc3XjA9qQuWAsOfIUzRwIiYeOae3z/R+2UZLS7jDroHSdwUp6jkflPFxcIqyz7IKIk5RJyWsWO+f6UKIHUVl4TDBFDuz0gBD1jb/xW6cpesocx3mwyN1BgyidJPwZIn5I52AAkQnjU31DITh7M52JvqlEM3nlm256RMnPZmGjdekD93i/1l+6w+Naz8l7l7/WSP0hThYkt8ez+UNkzF13+oFijcc/a69CjT5zvVyGrAgZTFg0HuTAT6NwgCNWGFPGFoLmMxqYo1EC7eEldTNg4krVcAgxZ16e+LyjanD6wFGjDhAMlF5yXvANxZqr8GSM+A5HxXxlBAljyaFoHHbOqxiousJkZR0wLswtpyMiIFObS4JTCKAfW4/XOXDHJeqb6zQyZG2lZv0b1fqq9UC+OLto04ibuwwsUhQNyeFi5L7QiphySGMWBgeFEeAhv+kQCS2CFuPFtuz2oB41WII6YNJ4zyXSGIlPfo6IJ/dksnXCTT+cInruyb2pWMKfJZXB4oPoHF+S2lk+FJ2/5dnaBlHerzVIlhttFCroNxqeU/WLGGHH26cZG471pH/0GWGHK4BWgwD0mcVLcTsb1dGQmJmBxgxzEfP//d/+0kIR5sppmKQcdRJvtJQ30G7sBMIvpQQT4cd4OnPGPPJdKo3os5M2o78IA45QYS0E61fyOVI1NY1pTYSXZ+Y5uS735B4Ie45nsSQNAWeRtGov1TKYiphFaAIWP9KRyYMQaAoG/BqzuJGSnDaIZCYQEkqE0xcw6zgik2AM+TkqYCCg+97uKCj/ssCoD8b3xRIg50ipIYGcYAIkBGh4NrbG0TA/ee5wwQYC/OLq7SepL49ZSr8ZI/rLuCEQbjSWAf4k1gEv26U+FnMzNaHGmGIus28Wrc8meUxRGpqYHCs1yymB/0vkuVm/OXruL+V/+IsIVYQg/ULoYY1QdI8lw3EwbYcsUJM4kF/vCxCVIFWPMUulQpORWlWGH02cAUFBPnW+IbIlaQhI7pP+Q1IGEScfLYF/w3m0bLPClMTMxfzkZ0y5odNW6ftDToeoPf2Be+PvIZXZ1tWg+wyt7S0XNULvXzYqTt/1wVm9mOb4cu4ASvALiuem8ifOaBoiwgRVvPe8hgPGi1dzoPHQjhwExhgReMF/5BR5CjgoDWRMWcyh5IQhMoEf+oqGhOA0590ygXw9hC61yRwlquZt7HgVrPSL/pH6wgrqN2GFRneDieoHAs+Fn8uxNpx1jKXBBnjGGmGTXZAumrTA9z3/JqkD/s/n2MKGdMUPYwIgBmZlqKZtKODaaFcmFi1JmoV70xeITAQ1IwJtToSXMaK/jCkCD0uDBZwWAqQFjCcvY0J7c9wqeVn6x+4YAk/eUeJIgXsSgUaIpudayYg4ZyS1sLAID5akFhYZHJakFhYZHJakFhYZHJakFhYZHJakFhYZHJakFhYZHBEjKcUMF+V1v57dXczge0+jhYVFaIgISdkx8UPMeC3946W6VPak5XBsCwuLfxARklpYWKQfLEktLDI4LEktLDI4LEktLDI4LEktLDI4LEktLDI4LEktLDI0RP4P6lsyLwzDLDAAAAAASUVORK5CYII=;rounded=1;" parent="1" vertex="1">
          <mxGeometry x="26.180000000000007" y="90" width="217.65" height="85" as="geometry" />
        </mxCell>
        <mxCell id="SdDBeH3zptgb0904aIOv-20" value="" style="whiteSpace=wrap;html=1;aspect=fixed;rounded=1;arcSize=21;fillColor=#bac8d3;strokeColor=#23445d;" parent="1" vertex="1">
          <mxGeometry x="652.5" y="250" width="120" height="120" as="geometry" />
        </mxCell>
        <mxCell id="82Q2UH0fjgOKLxt9wbc9-1" value="" style="shape=image;verticalLabelPosition=bottom;verticalAlign=top;imageAspect=0;aspect=fixed;image=data:image/png,iVBORw0KGgoAAAANSUhEUgAAANwAAADqCAMAAAD+p9sDAAAABGdBTUEAALGPC/xhBQAAAAFzUkdCAK7OHOkAAAMAUExURQAAAChbgShbgShbgShbgShbgShbgihbgihbgShbgShbgShbgShbgShbgShbgShbgShbgShbgShbgShbgShbgShbgShbgShbgShbgShbgShbgShbgShbgShbgShbgShbgShbgShbgShbgShbgShbgShbgShbgShbgShbgShbgShbgShbgShbgf///01NTShbgQC44wCKqtjY2DPG6dDQ0NPT09XV1dTU1MfHx97e3sLCwuLi4tnZ2eHh4Slcgv7+/qCgoP39/ixegyRYf/3+/k9PTx1Teytdg/z9/c/Pzypdgilcgfz9/sjIyDVliXybs9fX1/r7/BdOdwC55eXl5dHR0QCJqR9UfP7//yZZgNLS0sbGxuDf3yFVffj4+K+urgGNrU1MS9vb27S0tN3d3SJXftzc3EhSVUtQUQCSszfH6TDG6dPR0QC14DLG6Qe65CzE6ClbgcvLzAS54xpQeeDg4BS85Ozx9A275PH19xhPeObm5vj6+tni6ROdvUdykzPI7M3a4XaXr9bX1xu/5tjW1gSu1vv7+7fM1bzN2G+Rq/T09O7u7qKiouft8Z20xjJjh8XFxcPS28jW3kFukGGHoyTC5+Pj49Te5i9hhvX4+c7OzgSp0AGYu5CrvjtqjFhYWCC94QKfxAGy3EHB30x3llJ7mluCn5WvwRtReq3Bz1JSUunp6cPExH3M3gOkyZ/P27HH04unumeLphV6kTqkvcrS1MPP0tDX2YajtoGftt/n7WFhYXFxcWlpaampqdfV1GfK4UDH6E/H5OLq71d/nZKSkoeHh5XP3YjN3jW+3hqTsAmNrKS6yqm9zaWlpXt7e7vX3VzJ413D2yeXsWWuv4i7xytdgnHK36HEzKzS29bc3h+Ko0NXW7+/vz1fZz2Mnyy+4RCQrklaXieAlHS0w7HW3ixndC16jI/F0VCovL29vUSdskekuk271TtmcCJugAqCnrjIzBx3i7HGy0dpcTmftzixzW7A0y+btUJ+jJeXl5a9xzB0hCRcgiZhgL4lbxkAAAAtdFJOUwD7/E7+BAMC/QGx8/gJ6w2C5Fcq1hwjeGRtFkiLOr7dQjDLoLmYrMSnETSS0dSUEAQAABuESURBVHja7V0JWFTnuT7gMIuAiCyiuIH7cjxIXEBhpsxMzoyDIsTiMMKYahhN4koUESqlYhoBjSJLRWkgiyxj1Lq0bqS9psY0xmqbpolpkmZp0zZt07T3Nre3vff2Pvf//7POnH+AOcxGHr88T1SO4Hnn+773/b7/nP//COK+3bf7dt/uWwiZRqMCpoT/02i+VMBUEREuf46IUH05gCmVyFHKmITEuJSUuLjE8dHsBdWwh6YhNETMlLHTp82LjaKAqSMnp46ckBSnBFdVymEcoNA3ESnjpo0Ko5Ap1OEK5ndU1OSpYxIA7uHqPhW47/HjZkZSAFB4WLhareAQhoWB3yqo2FnJ0ci3wxJaynSILEyt4PwlmEIRHg6uxY9NGH7wILQ5M6K4QNRaTBattgzBytWCP6Hfg2vAfaPHDzN4IJMSpwJoCFmZVm+jnbTdYTDYbAaDwW6lnfZcvZZi8FGx46LRhzFsoMWMjaQYp1ksNmtVY/fFC3fr26pfOdxX3Xz+yKqeGkOVnTJpWXjzkjXDBJ4GkPyYeNZrWr2dPt56p7qAdLXK5o4um9PAwFNT6hlxw0EXYPrMmQZyDUGj7FU1HX1kEUmazTlGow6aMSfHnAPwmZtr85wGSxkDLxKknkoZ4tBURMLcSHi3AJrJ4bh5qhJAM+cUuXlOh/Ad7m2hUXBCN09Oigjp2AT3FjEuFqQRpBGTY1dNfQGAoSPxlgMgV3RonTYTxcCbOTF0eRN+7MmpbLLpbc7OIydIXY4naNCM4GpfrZa2WJjYDJsaoqoHIzJuhpqNSIvz+NUK4DVyANMB7+1rtdr1ueC7wtXUqLGhKAsA2uzRXLLds9t79g3gNd57RrLoTssum4WNzfgRqhArOGGyjZnMRGSuyebsOl8A73pwBj6Dio5GWsuoHqUeGRdKsQlvZeIkTtko5/EjlaR5sNCggb9c3UDbtbkMvKgJ40PFeRBawvQoPiKp2j6USt6YLoc0N3VbbZwsxCaFRuqBe4geO4qh/1yT3dm1D3hCR3prOUZy7xELLcjCFEKj0oQA/c9jy0hQH7fcKYD3KcOKwLe9skrPygJIvVmJwU09RP8jFRz9VzVeqIARJtN0RiALF61W1C+Ew4osJoixCaCNn8Alm8Vqv9gGZLmIlG864PO7NU5BFsYoieA4DyZbEkv/WpON7q43k0YdOTSDstCbR2vZ2FRMm0MEAR6MyCkzWfq32JyNd7ykf4+yACsyq51Tvai5CYGWBZjpiVPDmIi0aK2mVYeHGJGuFVnzTTvq9RTgHxgV4EZdTP9ak53ubiPJFTrSVwZ4s+BOI2hl2dRLTQb/pCZw9D8iXqD/mlM5Q082CbyKa41OC8MsFDUjDjX4AYnIlGkUy5HaqryOyiHQv2fe1JFtQBZMvCzMDkCj7kL/eruhoRokG+kHAx+Y7nyX06anGHiT/S4LiP5jWfq32B7qbioqytGR/jHwoVUeOb5Ly3ay1KSJ/pQFGJEi+qc7QfWfk0P6z4AsVDcYrLwsTE8AH6/GXxEZN0tBMdC0Vj1otY3+hAZjcwWoyHrsDnaFEzTq/qnIwM+MGc3Tv9Xe04bqCX8b4E3z3U6alQWKmjeC8Dk8wFQa0GojaJTeQHedJ31N//1UZJUX8pxaThZG+lgW4A+bM4niCpKqvF5/0L9n3oSpZ7dyy9ORE8b7EJ5SKWq19XZbbXUAobGyYKzrFmQhNknpo4ITRGTMOJBsakT/hoduNoM815GBNaOZPHGncReFYlMNG3WND2QB9vr8SitobDrv+Jn+++sWVlGCLExNHPI6hAqutHL0n0sfv+B/+ve4DmEmybZWu10sC0OJTUT/kTz9O1qrB7nS6jdZIE+10AY9v347hJIFZFtyPE//zu66gNF/f7LQkbeLl4VZCXLRASKZS7ERSe1qvHBi8IvI/otN4L3qVofVwsXmGFmSDpQkJZV70GalVvUFmP77kYWc+pugZIFPLcMp9fRoQikD25hI1m2Gqp59IJ+LyNAwKAt383ZR0HmKMGpSgrfoALZx4VQ4w5Etp/YGjSM9pd7ha1q7KRehmzzHO3QaFTGaCUmTg75aEVrQOFnoZpwHEm8KEeEFNg0xgYKvMJWZnDXNQaX/fjrZvb25dhNCF5nshe+g31CznUs3VMhc+w9EbDZ30hAdqKWnDBpdBDGOwWZzXDAXmckQNXBnfd20BfkuNm6Q6JTEiCgKYTMcQcv3IWuANhucDLpU0AYNKibjQA8AsBm058mQ4X8PmUcW1CJ0YdQMzSDQaYiISeDvAiKyhTw2WA7qalHehVHjBhGYSkgmsCyx3yHNZMibkdzbSuvhq6mRA8udkpiDXm01Oa+ROSQ5HNAdrrGaYNpNGrjI1EyDjjPRrWZSNxzAgfBqO27QQkEYKDBBRYnIxNFymJTDk6d/+pUh2NPH5KE75UDgYhMIVb9sEpMKHWehT8lKOPPT84dkr66To3dG8qITBebofsEpiSQmKBtk+Y184tmhgXvxA1ldENnXCQJTQY1K6FcOVKCFo8psx9tkgVv34/lDtJ8dklWJkb2wUgmnxvZTQcOMQ0y5Sp7jPnhxqOAefESe6ypq7FrglvjZHl0HmoEZQA21hrxqWeAO/WD+kO2HMjnlCOO6MR6zTkUkwqLSQteSK+T8Ez+d7wP7H7M818GsU1MjPaqBCnQDUAfszbIcl/mSL8A9u1Ze1l2r0kNKSfTkOhUxDYCzWHsKSBk1pfnV+T6xH6+TBa7ZZMsFcZnkgVJUREIsAGdyHpGlcftf8g24ZzPkccpNqxaAm+WBUSJQdaI1NMqik4M/m+8j+8EhWa47AoRcQcXG4NEp4cIJpbV2yyoq//Sir8A9+LAscG0UBZcyU7BJpyFUKOXoDjmOW/bD+T6zl7LkhGVlt9XisXoGdeUo4FeTs15Or/OV+T60Vw/IcV0D4MtwaiqWUTREIlxfzrW1yQCX9ZIvwT3bLkfHL+wywa4OG5YqIhk24IZOGc3Oulfn+9R+fFAGuLv9VGBKJOEWe1el94Ry5kXfgpNRYuaQTWgJMxYr43DxBKgc3bPCawnHy8CjnOHvn7/8oE/kwEi26W1lCioqBccoEcRcELIm50XvHfcIxnGP/vV7nP1t03rJ5U0ffZ+zjzCX5//Ue7o8fByAU1AT8eCmAnD6qgav+eQ0rhv4/ZqvLWDssac+kVxd/+nOHd9k7YGPcN1Bubf9OFnZaIAFWDKOLiOIWQhcrbfFlxknA7/69wWcPZ/2nQ/dfLP+w++sfvIB1r75X7+Rum699ysOe/MAuDBqBB4cbOb0D63yFtx+3NrCXzloax57IW31+2559+j7q9N2fptD98BHmLR79glvwRX0C26kLHC4tYX1Isd9Ny0t7YW/uPhm/V+eWp2WtnszB+71/8Rk3c8OhgC4lRjHPfo33nHPbAXgVt/e5MImtwG2tDQ+MB/4O4ZTXvxT8MHh1hbWf7iGA/e1pxCOtE9Fd7/+X1vR1/bs4NH99/qhrzj4AdzDmITb9D3ecc8jGGmrn//VeiFmv8EAFrkOxyneyoHvwWX+8EGp/V7iuLS0T4TLn7JfStsuch3mx7zUfmCdux0IIDjdkkekdvV9FzZh7HPh+uf8F3dvY7Fte/3Cw1L7IF9iWQEEd3DZV93sWHb5W4IMbOVhnMvm7d3d3FcFOdh8doPIstIZKEsWSSxw4MxfzV7mZiUl52/zQfkd3kc/L80U7GX+y3s4Odj2o3ezeEtfzNqStUEEd8gd2rLyzI1/XOMiA8ie+12JgK3kjecwrnt5vwTb4sVBBLcOBKErtuzMzD/8ZAFfVPIeOivCBtDd2sm7jueUx1+TYlu8JGjgdKePuYMrybzyzzVuMgDs9X2ZLrbvJH+Jl4PNN5ol2IIIbt0xd3DlpZm//YmoqOSC77USV3Alr23HyMGtdHdsmKQLEDjzaQjOBV1mSd1tjAycdHNcZuZ7N6Su2/ajN9yxLV4cLM8dBNiOLRODKyl9760FUjbZ/bsSd3BYTtn2zhV3bNK4DAy4A1+F4MRxmZ1Zcv7XggysxspAf3Lw+LvfChFwh465g8vMvPJnoUUVZOANieMySzcKrhMF5s8vuYOTiEFAwB1c5g6uvLTkbR7b117gHXdW6rZSwBxnd+I45friAZIuEOCgDCATS1wTLwMLnu+HTUo3QMq/gpWDpoHiMhDgDmW7gwMs8dsFUhnY4y4DmRtZsT63h+eUHUKJuXgA1wUAnPlYORuWHF2WAxn4Ba6ofM8N2wa+yhI4ZbeoxBwg6QIA7lB5drlL0oGgxBaV7jJQKpTHG34ncIqoxLwSbM8dAOLNoctm666SX/4a47h3MNnG2zu47uBcv0m31v/gTpdn8+jK2brrvT8LjkvDy0Bplqs1fYxxnUQOXLAt9zu4g+VM14nQoaQDd/42phvYfqu0FJNtbM6lX8eVmDvO9pN0y9v9Dc78db6pZvmypLSk6RdrMEXle5mlWLel54N4W7LokiAHuzlwu5+ru+6peF7Y7ndwnONYdIhNSrEycK4kk3Od4Lb0/ftBIi2Bdl0kB2xgfntn2ptLPLiusN3v4A4IjkPosqHECWyyQCgqbwAZYMBt5ByWD4CJbO2bbotFm3dDabyOTbq17f4Hd6hcDC57WXY5aGF4GVjwjFtRWcq4LR0Ac8HFuK7OrTt4EkXz5bVLpOAQNj+DW7cs29UyN5aWCGsLwkpl2stMrpWWwhRjA1FirnKwGYXpzltbFhYuck+65QEA5+a48o1Z+emX/r5G2g183Fy6ceNGAAxA8IAM2OWPxSXmk+yyRN1CYLz71rJk4ndwB12QAQrMz89Px7HJzrMgFEEwLl6+3DM0EJi3RN3BDk4a3lyIjHXforU8Nr+C050WIdsAnAZz6bJIBraztvPklXRkSxYuX1jYD7pLJ7dytptfrX2urhChW47gLWGIMnDgAAGms/YtHtyaZ3bv4OxlBtz+QgBuOQgxT1b4x8c4EwSSA7cQfetilkyeAObfsIR8UlLKIwO2OP8tnk34IhGuQ8KLiwoL2+E9ekJ3/e2frGFNxEVsWLK2diGEtXJlBvjPz4SSmSlGBp2TzxIKXKl8chtfJDZD4IWFhcuZW8Rn3mVcg/txnQu49ozilZz5WQpK090tP4spLCGb7BSvQ6anrwXguHvEZd7132Kemuw8u0UM7YmMpUuPBgYceTpfAi79CmoJvuvSeG6+0ZQFHVco3KfEedf/A9fgnrwsfMvyJ1ZmZJwR0Pm7/Cp3B7c/PQuUX2ueecG1e9n2zn7oOD4ukXS52lrcOuf2PwiOawfQMoqXLuXR+btwPiQBl5++/y1+pVL8WGqLGzigXC6OEzW4IjZpF0VkBgduaXFAwOmWuYdlfnpW3W3+oxcWs16+hMAtXC6mPrHG/XmB9KnJ7vNbRBEpgDtTHAhw5MEsSdKlp7/9lKTx3Pb4uUJ314mdd/1/MQ3uznfcoGVkHF26lPed38Hpvp4vBXfldWnjuflGvRSc4LzL/xSemvBB+fplIdkyxJ5j0AVggSjTnVHS07Ne2yN9tvHALQSufaGbMc7DlaTb/1Do6jaR5yC6QCztSZIOuO4k5i2FH9VBTlm+3B0dcN71L25jGtyTl8BVF2hicEuLA7EomymNy6x3cY+lzi50ZxS2ZFy0BPu461yhS0QiWyqygCynS8GlZ2HfUji3RZp0iFfwMsDRv9jOBBic7li+FNwbH2Oebfz8Eh7cE59hisrnzkvcJuKTQIFzk4N8Bt3ZNOk65OOvYcEVvo15eJ72Dym0YIBzDUwGXHqz6LHUNrEcSJKuUCgqReucr39RjAF3NPDgDpRK4jI96xxODs7iXIcvKjOOhgY4N9cxv1y5gXssBeTA3XFf4N6h+vxM8dHi0ABnzs6XgMsSXloTPeoGJaY7m/wRU1Tu+WVGcTHGdWeCAM6FU/az6PaL1iFFJeYWVxnf8r+4dc43jxZDCw1wYjnI38+6rgkrB5cXulRglz/DOO65LzJCCBy5boNreYns1nacHGwRe26L6HGXsM75DwQNE5fBASdeccjnfovllBt1eBkQry2cYcEV9ydzAQR3oEQKLuvcblyJKU46nAzsebu4GO+6YIEDcuD2uDQra0PWm9gXYQvXsrbol7elbLL68w/OsEtAGfwyHipXVh4NFjjzQsx711cFAhQedf/j33j7TOq41U/VwvNQkHG/Pv30I+38QjNn7QEEh3/1/tOt0tdnPhK9mS9lk7RP4XYe9vp8/tX7dUF99R67aULYFcHLgctOK35PBS8Dq7/7q1DcNIHf7vKvre6cIt7Psp7ZVCHqBrb+C7fdZVloblRidyLxKw7f/L7LdpZNf3PtBlZ/I0Q3KuG3mH34lEtguu0hQxuZxGzyl1DdYobdHPjo+y4l5mfumwP/Kn6VVrJ3EG0OXOnbzYFo56NvtnWu/42wnvXkNsnmP7h5UGATya5PeSeHnOgX3FR5e1bxG3I/2bqate07MDtuf//YC9z1tE9w5zOUeHkTA23InQ7B7fJ+tzF2K/Wm97/B2S8wm+M2fcJfft8nW6mLyIpGQxmlpqbgt1JPYPeJF/lkE/yjmzjD7oLv/7L3m+B1ZB/cJ04psPvElcRYdGLIzb3D8vgCI7nPZIOHJcbhwSWBa1p7TYX34ELg4Ikcss4Gz2aYjD1wT0VMhKdq2Br7ZBz2EgpHhsCjv8Kp1AjcqRoaYnwUQHeP3jcsD3sxk6uq9EAJRno47CU6Hrj1nvOuHHDBPqYHcGCrEx72MsHTcXvwcAZ4XpucI82CfMCSkTzcgk5K9HAgXQSgyzDAKC17Zfzw4B+N1YSOdA5L8HQ01pRwSlFGaZuG4aFmRvIaDQ+PSo3GgwNJNxlc1lddlXVUblCPoysiT7TYtSDwJng6SVAJqkt4ZFtnhaxjzXx0kGChHMeZyVNWkHEKfNnMKN0IeEqihb4r75Tj4B0BCQweKwskPMbT6Z0aYnY8OibxZpGcYxKDeHinkWxDQ0OouZ5PO45Ap+2VUbZ6ead3+uDY1YdluS2HrIVcCU9XUvVzJjw8ftti7ZF3PnXwDsxtO26DB0BO6+90eHiobDg8m1TeMc5BOuoY5FADPB0eKriyv3OcJ6pha+AArYGcMiUoh1QDP9TZymDGpSoHGFYwC51SXXVNXtYF43hxI1nZYrVAcGP6PzxdRaSgKRO5VP1wONAf2QoSjSxAx95rBhxXAEcxOPKqh8eR/vDAVRrqAKWeSKgGGjSBtI4yWbsqhgU6M1lPAaZEldeAAwtURDIzSM/aeoA0DgNs+xrhtALQgscMYkgIN0fD5GwoCHl0ZrK6047kO3IiMZhxZpoIuK4Oa8yGEyEemWayrQXO0FCoqaTBDeZREePjmRlfzp7DocyZOtChdtqZ2S5zBztSCegBPIob5l1NNZwkGaISYCTvaB330MyhGdHEYCcIgkIlksk7a2Odz+bX+9htZvLENdrGTByaNnhsaMVhFIPOYKgFoRl6mQfiqbnbiQaTAmyzCW9mIyqJObGIVbTaqppT5hCY9ugq3Dry8FUtzYztpEbGEN7NfVQScfFoBB2ld9hb96G586Fi4JPW3WlxUveYWcfTowlvZ1oqifEj2XmWFqf+WkWIzLMEyWYsIpt7aLuemWgZNU7OvE4VETE2ihlpqYdT3/eGRGwWgYjsq9XSJgszizR+irxJqxpAmvOYGbJlJoezpskcfFnIySEre/+Ptt1jJnUqps4mZA7fBuhE038dhoZq8MEFUxaMOWRBXZfVBscbo/m/yUMZLA6iOWUkmnENB9LRpo6KIMpCEYibtotOh7aMicjI0bOHNnZbA757RDwzcbvMRDlrTgUt9RD962kLOw8+fFYioRrqSHE4mXrsKIY3c012K5yVHgRZAP+k+Uink5mWDj7q1CmED6alE3Bod8LUMDheHqaeU7/qcMBlAdJ/003awdC/moodFy1rYDN29LaGmDiTmwZP0Xm9lQGdmQvpv7rBZjWxERk1NwGOA/eVgR+lTJrMjhY3GXa11AdQFiD9dzhoihsiPm3O0JNNknqzJwiy4LjYhlI8ILXW3vM1NIWmNEP6H6PyVUSKU09DxM2g2IpMS1MXKmBH5feINJL7Wnc5LGVMRI4aO9sP0FhZSJ7Hp56z5o7fZQHExivX9DSXbOFTE30dkS68GT0OyAKEl2ty0F1NfpUF8KMLOvIE+p85hfCP20SyMD2KkwVaW/uK32QBTlWu7wb0T7H0nxThV2hsbE6cpGAnqVN0Y+8J2PH7YxWB7LtoYOgfQIucMN6X9N+PLESMmczEJpAFussfsgDov6LjOM1H5MgU9LEGwGBFNnoUKwsWO2zUfTviGVQIJ+620DYTC23eiEBBY2MzcZaalwXb1cOAN4t8WGs191QZuBJ51NiYQESkK7wpqYIstPiuUTeiVtuq5+h/emJgobGxGZEUy6QeaNTpmnqyyAfwgLLtvXCcoX816CNnTiQ0Kg0RcAOyMH4uLwtWqqEPyMLQYhPKSl0XbeDof/IYpb/p32Nsgo80ZZqagWehaH1H5ZBkAXxvUXWr3X6Po//Rs4MFjZeFeC42bXTN+QJyhW4I9H/huFXLrGspFDPiAsiRnuBF8426xWHtaZIpC0YzWQlabRvfaicHGxonC6BRZ9dvacO1V2Q8OoHJ1tTzkIFZ12JbbSURfNO4NOpaZ2ev17IA6R+02hz9h/m21faJLCiYRt3h7K4nvYEH6P9Eb14Vk2xq1GoHPyLdZAE06pws2C5WD1oWQEQaz9dYDcwjG0j/mmByJF4WVETcyHDm2QKQBRto1AcjC+Dv6Np6aLuFpf9Ro2NCDRq3iDSCbdRzgSy0wPXbAbyngyut10xWLiLDZiWGVkS6ygJo1FFsllkc9M16st8lQB3olCp78zj6V8NWO0ShId5kGnU126g7GvYBbDkrPCEjT5zqqhLoPyk6FCPSvVHnZYG2tIJWFgAx6nRCgBbpdDlmuOGtt8Zq5+g/KjCt9pBlQQUadUYWLJTT3nWkOoddpjNDYyWismlVHm1leja40poSwhHpKguz0WM9VHDm2quO93Q0Hz4hJF9BZV/dqhqD02Dhki1+hCa0I9IVXtysMHb1Xau30VaHqau19mpH75HejmsNPZ0GB23VmsrYMnLU2OhhA42JTc2USQrkFUgtWi3loJ1VD0GrcloNoAi1MC2bgooEtdawiEjXZmjEJPb+kQMtJj1jJpRolAIhj5wbN9ygccwycRYcLq8IC2cACqYOg2/wUPNGJxDDKSJdZYFITJoWidCEqwVDWNWx05NjiNCn//6CU0MkJE2fGenmudiRo5OjieEYkK7w4O1HJ05MGj112szUeamTZkwfOyZlvIoY9tCY8IyIwH3xS4CMa4iUKpGBP3xZkN23+3bf7tuXwP4fWCA5cVInNBsAAAAASUVORK5CYII=" parent="1" vertex="1">
          <mxGeometry x="659.1500000000001" y="253.25" width="106.71" height="113.5" as="geometry" />
        </mxCell>
        <mxCell id="82Q2UH0fjgOKLxt9wbc9-2" value="Servidor Key Cloak" style="text;html=1;strokeColor=none;fillColor=none;align=center;verticalAlign=middle;whiteSpace=wrap;rounded=0;" parent="1" vertex="1">
          <mxGeometry x="654.58" y="380" width="115.86" height="20" as="geometry" />
        </mxCell>
        <mxCell id="82Q2UH0fjgOKLxt9wbc9-4" value="" style="shape=image;html=1;verticalAlign=top;verticalLabelPosition=bottom;labelBackgroundColor=#ffffff;imageAspect=0;aspect=fixed;image=https://cdn0.iconfinder.com/data/icons/google-material-design-3-0/48/ic_http_48px-128.png" parent="1" vertex="1">
          <mxGeometry x="90" y="225" width="70" height="70" as="geometry" />
        </mxCell>
        <mxCell id="82Q2UH0fjgOKLxt9wbc9-5" value="API middleware PERSIST" style="text;html=1;strokeColor=none;fillColor=none;align=center;verticalAlign=middle;whiteSpace=wrap;rounded=0;fontFamily=Helvetica;fontSize=18;fontStyle=1" parent="1" vertex="1">
          <mxGeometry x="193.82" y="340" width="166.18" height="20" as="geometry" />
        </mxCell>
        <mxCell id="hoo51S1aPGbEEFe9KzI7-1" value="" style="shape=image;verticalLabelPosition=bottom;verticalAlign=top;imageAspect=0;aspect=fixed;image=data:image/jpeg,/9j/4AAQSkZJRgABAQAAAQABAAD/2wCEAAYEBQYFBAYGBQYHBwYIChAKCgkJChQODwwQFxQYGBcUFhYaHSUfGhsjHBYWICwgIyYnKSopGR8tMC0oMCUoKSgBBwcHCggKEwoKEygaFhooKCgoKCgoKCgoKCgoKCgoKCgoKCgoKCgoKCgoKCgoKCgoKCgoKCgoKCgoKCgoKCgoKP/AABEIBDAFmQMBEQACEQEDEQH/xAGiAAABBQEBAQEBAQAAAAAAAAAAAQIDBAUGBwgJCgsQAAIBAwMCBAMFBQQEAAABfQECAwAEEQUSITFBBhNRYQcicRQygZGhCCNCscEVUtHwJDNicoIJChYXGBkaJSYnKCkqNDU2Nzg5OkNERUZHSElKU1RVVldYWVpjZGVmZ2hpanN0dXZ3eHl6g4SFhoeIiYqSk5SVlpeYmZqio6Slpqeoqaqys7S1tre4ubrCw8TFxsfIycrS09TV1tfY2drh4uPk5ebn6Onq8fLz9PX29/j5+gEAAwEBAQEBAQEBAQAAAAAAAAECAwQFBgcICQoLEQACAQIEBAMEBwUEBAABAncAAQIDEQQFITEGEkFRB2FxEyIygQgUQpGhscEJIzNS8BVictEKFiQ04SXxFxgZGiYnKCkqNTY3ODk6Q0RFRkdISUpTVFVWV1hZWmNkZWZnaGlqc3R1dnd4eXqCg4SFhoeIiYqSk5SVlpeYmZqio6Slpqeoqaqys7S1tre4ubrCw8TFxsfIycrS09TV1tfY2dri4+Tl5ufo6ery8/T19vf4+fr/2gAMAwEAAhEDEQA/APqmgAoAKACgAoAKACgAoAKACgAoAKACgAoAKACgAoAKACgAoAKACgAoAKACgAoAKACgAoAKACgAoAKACgAoAKACgAoAKACgAoAKACgAoAKACgAoAKACgAoAKACgAoAKACgAoAKACgAoAKACgAoAKACgAoAKACgAoAKACgAoAKACgAoAKACgAoAKACgAoAKACgAoAKACgAoAKACgAoAKACgAoAKACgAoAKACgAoAKACgAoAKACgAoAKACgAoAKACgAoAKACgAoAKACgAoAKACgAoAKACgAoAKACgAoAKACgAoAKACgAoAKACgAoAKACgAoAKACgAoAKACgAoAKACgAoAKACgAoAKACgAoAKACgAoAKACgAoAKACgAoAKACgAoAKACgAoAKACgAoAKACgAoAKACgAoAKACgAoA/Nb4sf8lT8Zf9hq9/8AR70AfpTQAUAFABQAUAFABQAUAFABQAUAFABQAUAFABQAUAFABQAUAFABQAUAFABQAUAFABQAUAFABQAUAFABQAUAFABQAUAFABQAUAFABQAUAFABQAUAFABQAUAFABQAUAFABQAUAFABQAUAFABQAUAFABQAUAFABQAUAFABQAUAFABQAUAFABQAUAFABQAUAFABQAUAFABQAUAFABQAUAFABQAUAFABQAUAFABQAUAFABQAUAFABQAUAFABQAUAFABQAUAFABQAUAFABQAUAFABQAUAFABQAUAFABQAUAFABQAUAFABQAUAFABQAUAFABQAUAFABQAUAFABQAUAFABQAUAFABQAUAFABQAUAFABQAUAFABQAUAFABQAUAFABQAUAFABQAUAFABQAUAFABQAUAFABQAUAFABQAUAfmt8WP8AkqfjL/sNXv8A6PegD9KaACgAoAKACgAoAKACgAoAKACgAoAKACgAoAKACgAoAKACgAoAKACgAoAKACgAoAKACgAoAKACgAoAKACgAoAKACgAoAKACgAoAKACgAoAKACgAoAKACgAoAKACgAoAKACgAoAKACgAoAKACgAoAKACgAoAKACgAoAKACgAoAKACgAoAKACgAoAKACgAoAKACgAoAKACgAoAKACgAoAKACgAoAKACgAoAKACgAoAKACgAoAKACgAoAKACgAoAKACgAoAKACgAoAKACgAoAKACgAoAKACgAoAKACgAoAKACgAoAKACgAoAKACgAoAKACgAoAKACgAoAKACgAoAKACgAoAKACgAoAKACgAoAKACgAoAKACgAoAKACgAoAKACgAoAKACgAoAKACgAoAKACgAoAKACgAoAKACgD81vix/yVPxl/wBhq9/9HvQB+lNABQAUAFABQAUAFABQAUAFABQAUAFABQAUAFABQAUAFABQAUAFABQAUAFABQAUAFABQAUAFABQAUAFABQAUAFABQAUAFABQAUAFABQAUAFABQAUAFABQAUAFABQAUAFABQAUAFABQAUAFABQAUAFABQAUAFABQAUAFABQAUAFABQAUAFABQAUAFABQAUAFABQAUAFABQAUAFABQAUAFABQAUAFABQAUAFABQAUAFABQAUAFABQAUAFABQAUAFABQAUAFABQAUAFABQAUAFABQAUAFABQAUAFABQAUAFABQAUAFABQAUAFABQAUAFABQAUAFABQAUAFABQAUAFABQAUAFABQAUAFABQAUAFABQAUAFABQAUAFABQAUAFABQAUAFABQAUAFABQAUAFABQAUAFABQAUAFABQB+a3xY/5Kn4y/7DV7/wCj3oA/SmgAoAKACgAoAKACgAoAKACgAoAKACgAoAKACgAoAKACgAoAKACgAoAKACgAoAKACgAoAKACgAoAKACgAoAKACgAoAKACgAoAKACgAoAKACgAoAKACgAoAKACgAoAKACgAoAKACgAoAKACgAoAKACgAoAKACgAoAKACgAoAKACgAoAKACgAoAKACgAoAKACgAoAKACgAoAKACgAoAKACgAoAKACgAoAKACgAoAKACgAoAKACgAoAKACgAoAKACgAoAKACgAoAKACgAoAKACgAoAKACgAoAKACgAoAKACgAoAKACgAoAKACgAoAKACgAoAKACgAoAKACgAoAKACgAoAKACgAoAKACgAoAKACgAoAKACgAoAKACgAoAKACgAoAKACgAoAKACgAoAKACgAoAKACgAoAKACgAoA/Nb4sf8lT8Zf9hq9/9HvQB+lNABQAUAFABQAUAFABQAUAFABQAUAFABQAUAFABQAUAFABQAUAFABQAUAFABQAUAFABQAUAFABQAUAFABQAUAFABQAUAFABQAUAFABQAUAFABQAUAFABQAUAFABQAUAFABQAUAFABQAUAFABQAUAFABQAUAFABQAUAFABQAUAFABQAUAFABQAUAFABQAUAFABQAUAFABQAUAFABQAGgBCaADNJXEwzQ3YEwFMBaBhQAUAFABQAUAFABQAUAFABQAUAFABQAUAFABQAUAFABQAUAFABQAUAFABQAUAFABQAUAFABQAUAFABQAUAFABQAUAFABQAUAFABQAUAFABQAUAFABQAUAFABQAUAFABQAUAFABQAUAFABQAUAFABQAUAFABQAUAFABQAUAFABQAUAFABQAUAFABQAUAFABQAUAFAH5rfFj/kqfjL/sNXv/AKPegD9KaACgAoAKACgAoAKACgAoAKACgAoAKACgAoAKACgAoAKACgAoAKACgAoAKACgAoAKACgAoAKACgAoAKACgAoAKACgAoAKACgAoAKACgAoAKACgAoAKACgAoAKACgAoAKACgAoAKACgAoAKACgAoAKACgAoAKACgAoAKACgAoAKACgAoAKACgAoAKACgAoAKACgAoAKACgAoAKACgAIzQJq4xzxjGaUdRSdjjfH/jKPw5apHbrHPqMvKxMcBV7s3t6VxYnFRptRPQwWCniG3bRI6jS7yPULG3u4DmOaNXU+xGa66c1NXOOrDkk4suirJQUAFABQAUAFABQAUAFABQAUAFABQAUAFABQAUAFABQAUAFABQAUAFABQAUAFABQAUAFABQAUAFABQAUAFABQAUAFABQAUAFABQAUAFABQAUAFABQAUAFABQAUAFABQAUAFABQAUAFABQAUAFABQAUAFABQAUAFABQAUAFABQAUAFABQAUAFABQAUAFABQAUAFABQAUAfmt8WP+Sp+Mv+w1e/8Ao96AP0poAKACgAoAKACgAoAKACgAoAKACgAoAKACgAoAKACgAoAKACgAoAKACgAoAKACgAoAKACgAoAKACgAoAKACgAoAKACgAoAKACgAoAKACgAoAKACgAoAKACgAoAKACgAoAKACgAoAKACgAoAKACgAoAKACgAoAKACgAoAKACgAoAKACgAoAKACgAoAKACgAoAKACgAoAKACgANACDOaBK4P0pajOb8ZeJrfw5pTXEmJLh8rBCDy7f4Vz4iuqK8zpwWFli52Wx896lfXOpX8t3eyNLNKxLsfT0HsM8f/AK6+aqylVk5yPvKMIYenyU1p1PY/gtqjXXh+ewkfMtlJgD/Ybkfrn9K9zLarqU/ePk88w0aVZOGzR6Ipr0jxUOoGFABQAUAFABQAUAFABQAUAFABQAUAFABQAUAFABQAUAFABQAUAFABQAUAFABQAUAFABQAUAFABQAUAFABQAUAFABQAUAFABQAUAFABQAUAFABQAUAFABQAUAFABQAUAFABQAUAFABQAUAFABQAUAFABQAUAFABQAUAFABQAUAFABQAUAFABQAUAFABQAUAFABQAUAfmt8WP8AkqfjL/sNXv8A6PegD9KaACgAoAKACgAoAKACgAoAKACgAoAKACgAoAKACgAoAKACgAoAKACgAoAKACgAoAKACgAoAKACgAoAKACgAoAKACgAoAKACgAoAKACgAoAKACgAoAKACgAoAKACgAoAKACgAoAKACgAoAKACgAoAKACgAoAKACgAoAKACgAoAKACgAoAKACgAoAKACgAoAKACgAoAKACgAoARu31oJkIxxzQEpWRl+INYtdE0uW+vn2xR9gMlj2AHrWVWsqcbs1oUJ1pKMep87+JNaudf1V728IBI2xoOkaZ4UfT9c/gPmcTWlVlofe4XBwwdJKO7MpumOvt61C2sdEFZrzO2+Eeo/Y/F8cLMPLvIzFz6/eX/0GuzAVeSoonj51Q9phlLrE96jHJr6Nnx3VsfSGFABQAUAFABQAUAFABQAUAFABQAUAFABQAUAFABQAUAFABQAUAFABQAUAFABQAUAFABQAUAFABQAUAFABQAUAFABQAUAFABQAUAFABQAUAFABQAUAFABQAUAFABQAUAFABQAUAFABQAUAFABQAUAFABQAUAFABQAUAFABQAUAFABQAUAFABQAUAFABQAUAFABQAUAfmt8WP+Sp+Mv+w1e/8Ao96AP0poAKACgAoAKACgAoAKACgAoAKACgAoAKACgAoAKACgAoAKACgAoAKACgAoAKACgAoAKACgAoAKACgAoAKACgAoAKACgAoAKACgAoAKACgAoAKACgAoAKACgAoAKACgAoAKACgAoAKACgAoAKACgAoAKACgAoAKACgAoAKACgAoAKACgAoAKACgAoAKACgAoAKACgAoAKACgBG6UAVNRvIbGzlubuRYreFS7u3QAdTUTmoK8ghCVWShHc+fPG/iebxLqpk+eOyi4gibggH+Jh/ePB9gRXz2KxTqvlWx9zluCjhIWkvfa/A5yuOPunbGPL1/yA093cLa37FvR7w6dqtneA4MEySfgDz+maeHdqqkRiYe0pST6o+obdtwBHQjP8q+si+ZJn52lZuPYmqhhQAUAFABQAUAFABQAUAFABQAUAFABQAUAFABQAUAFABQAUAFABQAUAFABQAUAFABQAUAFABQAUAFABQAUAFABQAUAFABQAUAFABQAUAFABQAUAFABQAUAFABQAUAFABQAUAFABQAUAFABQAUAFABQAUAFABQAUAFABQAUAFABQAUAFABQAUAFABQAUAFABQAUAFAH5rfFj/kqfjL/sNXv/o96AP0poAKACgAoAKACgAoAKACgAoAKACgAoAKACgAoAKACgAoAKACgAoAKACgAoAKACgAoAKACgAoAKACgAoAKACgAoAKACgAoAKACgAoAKACgAoAKACgAoAKACgAoAKACgAoAKACgAoAKACgAoAKACgAoAKACgAoAKACgAoAKACgAoAKACgAoAKACgAoAKACgAoAKACgAoAKACgCK4kWOIu7BVXksegA7mlKSirsLN6Lc8I+JHi869dmzsJCumQNncDgyuOjfQHp/wDXrwMXi3Vly9D63KcvWEXPUXvM4nue3PT0/wA/1rzndOx7cnzSuxaBCUABG4EetNe7JMctZcvkfTXhG5+2eG9MuM5MltGT9cDNfU4aXNTR+f4uHJXnHzNitznCgAoAKACgAoAKACgAoAKACgAoAKACgAoAKACgAoAKACgAoAKACgAoAKACgAoAKACgAoAKACgAoAKACgAoAKACgAoAKACgAoAKACgAoAKACgAoAKACgAoAKACgAoAKACgAoAKACgAoAKACgAoAKACgAoAKACgAoAKACgAoAKACgAoAKACgAoAKACgAoAKACgAoAKAPzW+LH/JU/GX/AGGr3/0e9AH6U0AFABQAUAFABQAUAFABQAUAFABQAUAFABQAUAFABQAUAFABQAUAFABQAUAFABQAUAFABQAUAFABQAUAFABQAUAFABQAUAFABQAUAFABQAUAFABQAUAFABQAUAFABQAUAFABQAUAFABQAUAFABQAUAFABQAUAFABQAUAFABQAUAFABQAUAFABQAUAFABQAUAFABQAUAB6UCYx2AHUZpbavYG9bLc8e+KfjP7S8mjaW58pTi5mQ/eP90e3+FeNjsU37sdj6TKctt+9rLXoeY/5615U/fPpubTlsFF/d5SVorC1ICUDtcVfvCn8Ubi5nzqb3PoL4UzGXwNpmRjYjJ+TkV9LgXeij4fNI8uKl5nX11nAFABSd+gBQAUwCgAoAKACgAoAKACgAoAKACgAoAKACgAoAKACgAoAKACgAoAKACgAoAKACgAoAKACgAoAKACgAoAKACgAoAKACgAoAKACgAoAKACgAoAKACgAoAKACgAoAKACgAoAKACgAoAKACgAoAKACgAoAKACgAoAKACgAoAKACgAoAKACgAoAKACgAoAKACgAoA/Nb4sf8AJU/GX/Yavf8A0e9AH6U0AFABQAUAFABQAUAFABQAUAFABQAUAFABQAUAFABQAUAFABQAUAFABQAUAFABQAUAFABQAUAFABQAUAFABQAUAFABQAUAFABQAUAFABQAUAFABQAUAFABQAUAFABQAUAFABQAUAFABQAUAFABQAUAFABQAUAFABQAUAFABQAUAFABQAUAFABQAUAFABQAUAFABQAUANkOF4GeaTJk7I80+KHjM6dE+k6W/wDp7r+8kX/lkp7D3/8Ar15uOxaUXCO57mVZY61q1ToeNcZOOnXHX8c14V21qfWxleNkLSAKACgBKaDoxf8A9dC2BbI92+DTMfBkQY52zyge3zV9Flz/AHJ8ZnK/2r5Hd13HlgaBMa1KLBuxStdRgn1C6s0b9/bhS6n0YZB/mPwqPae9yl+zajzF2r3M7DhQkUFMAoAKACgAoAKACgAoAKACgAoAKACgAoAKACgAoAKACgAoAKACgAoAKACgAoAKACgAoAKACgAoAKACgAoAKACgAoAKACgAoAKACgAoAKACgAoAKACgAoAKACgAoAKACgAoAKACgAoAKACgAoAKACgAoAKACgAoAKACgAoAKACgAoAKACgAoAKACgD81vix/wAlT8Zf9hq9/wDR70AfpTQAUAFABQAUAFABQAUAFABQAUAFABQAUAFABQAUAFABQAUAFABQAUAFABQAUAFABQAUAFABQAUAFABQAUAFABQAUAFABQAUAFABQAUAFABQAUAFABQAUAFABQAUAFABQAUAFABQAUAFABQAUAFABQAUAFABQAUAFABQAUAFABQAUAFABQAUAFABQAUAFABQAUABoE2Mc+nrSTvsD7HGfEPxcnh2xWK3KvqM4PlJj7o6bj6Y4rixmKVGNo7npZdgXip8z+FfmeDTSyTStLM++R2LM2OWY9Sa+dm+aXM2faUocsVFDKG7lC0gCgAoAKaGIc44pLYI72Pd/gyP+KNQ4wDPKR/31X0WXfwT4zOXfFM7uu88oRulBMhrDpSigkjyz4lX1x4b8X6VrNmN3mRNDKmcCRVIO0/nnPbANeXiqkqM1OPoe7l9KOKpOhJ+a9T0PQdUttZ02G+sXDwyrkccg9wfQ+or0aNSNSN47HkYijOjNwmtUaQPNWZi0wCgAoAKACgAoAKACgAoAKACgAoAKACgAoAKACgAoAKACgAoAKACgAoAKACgAoAKACgAoAKACgAoAKACgAoAKACgAoAKACgAoAKACgAoAKACgAoAKACgAoAKACgAoAKACgAoAKACgAoAKACgAoAKACgAoAKACgAoAKACgAoAKACgAoAKACgAoAKAPzW+LH/JU/GX/Yavf/R70AfpTQAUAFABQAUAFABQAUAFABQAUAFABQAUAFABQAUAFABQAUAFABQAUAFABQAUAFABQAUAFABQAUAFABQAUAFABQAUAFABQAUAFABQAUAFABQAUAFABQAUAFABQAUAFABQAUAFABQAUAFABQAUAFABQAUAFABQAUAFABQAUAFABQAUAFABQAUAFABQAUAFABQAUAMl+6P89qTdhPXQ57xf4ktvDektcTFZJn+WGIdZG9h6DvXPisRGhG/U6sFg54moqa2PnvVNQudUv57y+kL3EzEsc8DHQD2FfNTquq+eR93SoQw8VSj0Kv8ASpWptdBQ0RYWkAUAFACU11AMZxRH4Rx+I+gvhOjJ4H0/cMFvMcfQuSP0r6TAL9yj4bNJXxUkdhXYcAUAIelJAzzT44WgfQbG4GcxXOzI7BkI/mBXl5mrQXm/0Z7eRP8AfSj5fqjivhv4qbw9qhhu3xp1wwEmekTdN/09frXDgcS6MvZy2PVzXB/WYOcV7yPfYnD4K9CMivoU77bHx2vUkqhhQAUAFABQAUAFABQAUAFABQAUAFABQAUAFABQAUAFABQAUAFABQAUAFABQAUAFABQAUAFABQAUAFABQAUAFABQAUAFABQAUAFABQAUAFABQAUAFABQAUAFABQAUAFABQAUAFABQAUAFABQAUAFABQAUAFABQAUAFABQAUAFABQAUAFABQAUAFAH5rfFj/AJKn4y/7DV7/AOj3oA/SmgAoAKACgAoAKACgAoAKACgAoAKACgAoAKACgAoAKACgAoAKACgAoAKACgAoAKACgAoAKACgAoAKACgAoAKACgAoAKACgAoAKACgAoAKACgAoAKACgAoAKACgAoAKACgAoAKACgAoAKACgAoAKACgAoAKACgAoAKACgAoAKACgAoAKACgAoAKACgAoAKAA0AITz2pO/QDN1/V7bRdMlvb51SJBwM8seyj3NZVKqpx5jSjQnXnyRR86+JtcuvEGqyXt3kA8RxE5Ea/wB0f1Pfj2A+bxVeVWd+h9zgsIsLS5bamUPbp/KsbaWOpa6i0LQAobAKQBQAUAFACcDk/Wq+HQpaSR9J+BLYWnhTSYQACLZCfqQDX0+Ejy0kj8/x0+fEzfmb9dBzAaAExQJaHEfGKIP4JnYkjy5onGP97H8ia4cwjzUj1smly4peat+R4KcEHIBGO/Az7/pXzkPeTb3Ps3q3E9e+EviszxLot8486IE27vxuX+59VGB9K9vL8TePJI+TzfAuMva01Zdj1BGye3TNeseFe+2xIDSGFMAoAKACgAoAKACgAoAKACgAoAKACgAoAKACgAoAKACgAoAKACgAoAKACgAoAKACgAoAKACgAoAKACgAoAKACgAoAKACgAoAKACgAoAKACgAoAKACgAoAKACgAoAKACgAoAKACgAoAKACgAoAKACgAoAKACgAoAKACgAoAKACgAoAKACgAoA/Nb4sf8AJU/GX/Yavf8A0e9AH6U0AFABQAUAFABQAUAFABQAUAFABQAUAFABQAUAFABQAUAFABQAUAFABQAUAFABQAUAFABQAUAFABQAUAFABQAUAFABQAUAFABQAUAFABQAUAFABQAUAFABQAUAFABQAUAFABQAUAFABQAUAFABQAUAFABQAUAFABQAUAFABQAUAFABQAUAFABQAUAFABQAj9BQFrlW/uorS1knuJEjijG5mc4AFZuagtQjCVSSjE+fPHHiibxLqRb5lsYmIgiP/oTf7R9O3I9z89jMQ6ktD7bLsCsNTU5L3mc2PfFctPzPRdRy0sFKV7jUbIWkIKACgAoAKAEoGldklvC1zPFbx8vM6xqPUsQB+prWkueSM6kuWnOfZXPqi0iWGGONPuooUfQCvqKK5YJH55KXNJy7k1aCCgAoA5P4qAf8IHqhPZUP/j61y4z+Ezuy12xMPU+eOhz6Zr5qOiZ95azkyW1nltLmK4t5DFPERIkg/hYcg0oTcUmu5nVpxqx5Xs9D6K8EeIIvEWix3SgJcJ+7nj6bH+noeo+tfTYfEKrFLqfCY7BvC1nT6dDo1NdK00ONC0xhQAUAFABQAUAFABQAUAFABQAUAFABQAUAFABQAUAFABQAUAFABQAUAFABQAUAFABQAUAFABQAUAFABQAUAFABQAUAFABQAUAFABQAUAFABQAUAFABQAUAFABQAUAFABQAUAFABQAUAFABQAUAFABQAUAFABQAUAFABQAUAFABQAUAFABQB+a3xY/5Kn4y/wCw1e/+j3oA/SmgAoAKACgAoAKACgAoAKACgAoAKACgAoAKACgAoAKACgAoAKACgAoAKACgAoAKACgAoAKACgAoAKACgAoAKACgAoAKACgAoAKACgAoAKACgAoAKACgAoAKACgAoAKACgAoAKACgAoAKACgAoAKACgAoAKACgAoAKACgAoAKACgAoAKACgAoAKACgANAmNyeelA2MnfbHuYgY5J9qTaSuybOTSR4V8SPGJ124aw0+Q/2ZCwJI485gev+7xx9D7V4WOxcpvkR9dk+XxpR9pLc4jucY/DuP8AOa81aHty1lcKFoNOwUhBQAUAFABQAUAIenFA721Oj+HVl9v8ZaajDKRSGZvogyP1xXVhI3qpHDmdX6vhp2+1ofRcXAAr6bZ2PgqfwklMsKACgDkPivMIvA2oAj75RP8Ax8f4VyY12pHflsb4iL7anz4OOM5A4r5q9rxPuNZpsO+fShe6rD+GJ0PgfxE/hzWkncsbOTCXCjuvdh7j+Wa68HVdGWh5uZ4VYmjbqfRNpKk0SSxMrxuoZWHQg9P0r6OLU1zI+JcXB8r6FimtwCgApgFABQAUAFABQAUAFABQAUAFABQAUAFABQAUAFABQAUAFABQAUAFABQAUAFABQAUAFABQAUAFABQAUAFABQAUAFABQAUAFABQAUAFABQAUAFABQAUAFABQAUAFABQAUAFABQAUAFABQAUAFABQAUAFABQAUAFABQAUAFABQAUAFABQB+a3xY/wCSp+Mv+w1e/wDo96AP0poAKACgAoAKACgAoAKACgAoAKACgAoAKACgAoAKACgAoAKACgAoAKACgAoAKACgAoAKACgAoAKACgAoAKACgAoAKACgAoAKACgAoAKACgAoAKACgAoAKACgAoAKACgAoAKACgAoAKACgAoAKACgAoAKACgAoAKACgAoAKACgAoAKACgAoAKACgAoAQ9qGJuxHIcKTx1xzSk+VXDld9DyL4qeMvPMui6Y/7sHbcyqc5x1Qf1rx8Zi3blifR5VlvN++qbHl/fvxwM9v8APH5CvHV5O7PpeVRWgU5bjvoLSEFABQAUAFABQAUAJ14Hf/Cmho9Q+Bun77zUtRYYVFWBT7nlv5Kfxr1sshzXkfNZ7X1VM9gUYr2nvc+ajpoOoKCgAoA4b4xybPBjrjPmXEa/TnP9K4MxdqS9f8z1cnhzYh+n6o8FU/yBr55as+zeiFpPcFsFNy5dRqzlqesfB/xMdv8AYV4/KDdbFu47p/h7A17GAxN3ys+WzvBWn7WGx6spz6+tevJaXPnVvYeOtC1Q+otMYUAFABQAUAFABQAUAFABQAUAFABQAUAFABQAUAFABQAUAFABQAUAFABQAUAFABQAUAFABQAUAFABQAUAFABQAUAFABQAUAFABQAUAFABQAUAFABQAUAFABQAUAFABQAUAFABQAUAFABQAUAFABQAUAFABQAUAFABQAUAFABQAUAFAH5rfFj/AJKn4y/7DV7/AOj3oA/SmgAoAKACgAoAKACgAoAKACgAoAKACgAoAKACgAoAKACgAoAKACgAoAKACgAoAKACgAoAKACgAoAKACgAoAKACgAoAKACgAoAKACgAoAKACgAoAKACgAoAKACgAoAKACgAoAKACgAoAKACgAoAKACgAoAKACgAoAKACgAoAKACgAoAKACgAoADSfkAnNBOo1iQM5FHqUjzr4oeMjpcL6Tpkg+3yr+8kDY8hf8T/jXm43F8i5YHsZTl0q8+eex4rnPPJzyT/X3/wA5rwnr7zPr/dj+7jsgpxdge1gpPuKwtIYUAFABQAUAFABQAhx36U7vZdRPv2PoL4X6a2m+ELMSLtmnzPJnrluR+mPyr6TA0VSp2R8Nmtb2tduOx14rsOIWgANJuwDWOBQ97CR5n8cbkLounW/G6S53jnsqsP8A2avNzSXuJef+Z7nD8b1ZS8v1R42eufWvCWh9Z0sLQCEoauK2liW0uJrS5iuLZ/LniYOjejDkVUJuDTRNSnGpT9nPY+j/AAfrkPiDRYL2L5ZCNksf9xx1H6g/Q19RRqqpBM+DxuGeGruD26G6OtapWRz9RaYBQAUAFABQAUAFABQAUAFABQAUAFABQAUAFABQAUAFABQAUAFABQAUAFABQAUAFABQAUAFABQAUAFABQAUAFABQAUAFABQAUAFABQAUAFABQAUAFABQAUAFABQAUAFABQAUAFABQAUAFABQAUAFABQAUAFABQAUAFABQAUAFABQAUAfmt8WP8AkqfjL/sNXv8A6PegD9KaACgAoAKACgAoAKACgAoAKACgAoAKACgAoAKACgAoAKACgAoAKACgAoAKACgAoAKACgAoAKACgAoAKACgAoAKACgAoAKACgAoAKACgAoAKACgAoAKACgAoAKACgAoAKACgAoAKACgAoAKACgAoAKACgAoAKACgAoAKACgAoAKACgAoAKACgANADWOBx61MSZOxyHxA8Wx+HdOCQFX1GbIiQHO3/aPtnH51yYrFRpprqell+CliZ+8tDwK4mluJ5JbiQySyNudyckt3+tfNOUnO8j7WEVQhyQIx/OqeruWorl5haQgoAKACgAoAKACgAoASgDT8NaadX12ysVHEsnzn0QDLfoDXThaftJ2ObF4hYejKT66H0zCgjG0DAAwAPSvpqceWNj8/u3Jtko61Q0LQMQ0ANPal1B7njPxuui+s6dag8RQGQjPdjj/ANlrw80neaifT8P0rUpTPN68s+gCgAoAKaKSunc6/wCGXiT+wteENwxFhdkJJnojdA39Pxruy/Eezk0zx80wf1qg6q3j+R77F19cDGa+hT5lc+NtrdktMYUAFABQAUAFABQAUAFABQAUAFABQAUAFABQAUAFABQAUAFABQAUAFABQAUAFABQAUAFABQAUAFABQAUAFABQAUAFABQAUAFABQAUAFABQAUAFABQAUAFABQAUAFABQAUAFABQAUAFABQAUAFABQAUAFABQAUAFABQAUAFABQAUAFAH5rfFj/kqfjL/sNXv/AKPegD9KaACgAoAKACgAoAKACgAoAKACgAoAKACgAoAKACgAoAKACgAoAKACgAoAKACgAoAKACgAoAKACgAoAKACgAoAKACgAoAKACgAoAKACgAoAKACgAoAKACgAoAKACgAoAKACgAoAKACgAoAKACgAoAKACgAoAKACgAoAKACgAoAKACgAoAKACgBshIAxjrS1EzB8X+Ibbw9pLXU53yN8sUYPLt/hXPiK6oxOrCYaWKmlHY+etX1C41XUJr29fzJ5TyewA6ADsK+arTdaXPI+5w9GFCmoRRTxSlK6sb3DFStFYjqFAwoAKACgAoAKACgBKBNtWsBGeB1ptrluty5LVWPVfgjpG+W91eVen7iLP4Fj/IfUGvWyujde0lufMZ7iOa1FbJ3/M9bC46V7R869XcUDFAC0AI3SmhPoNb7lLbUUttD53+JV79t8a6iQ25YWEI9go/xJr5nHS5qzZ9zlVP2eFXmczXIegFABQAhoC1w6mnU5otNDpq6Z7z8LPER1nRRbXD5vbICN89XT+Fv6fhX0WBre0p2PiMzwroVW47N/cduCfau1s870FHWncXUWgYUAFABQAUAFABQAUAFABQAUAFABQAUAFABQAUAFABQAUAFABQAUAFABQAUAFABQAUAFABQAUAFABQAUAFABQAUAFABQAUAFABQAUAFABQAUAFABQAUAFABQAUAFABQAUAFABQAUAFABQAUAFABQAUAFABQAUAFABQAUAFABQB+a3xY/wCSp+Mv+w1e/wDo96AP0poAKACgAoAKACgAoAKACgAoAKACgAoAKACgAoAKACgAoAKACgAoAKACgAoAKACgAoAKACgAoAKACgAoAKACgAoAKACgAoAKACgAoAKACgAoAKACgAoAKACgAoAKACgAoAKACgAoAKACgAoAKACgAoAKACgAoAKACgAoAKACgAoAKACgANDBiHqKBGdruqWujadLe3smyGPr3JPYAdyayqV401dmlGhKrNRj1PnjxNrl1r+qNeXeV/hjizxEueAPU+p+lfM4uvKtPQ+6wWEhgoKPcyR3461gtFY6XH3uYDQMQigBMUwDFABQAUAFABQAUAJTvYaHxRSTzRwwjdLIwRB6k8AfnRCnzTUTOdT2UHJn0v4U0lNE0OzsI+fJjAY+rHqfzr6ujTVOCifA4qs69ZzNitTEKACgBGoEypqd2tlY3FzJ9yGNpG+ijP8ASs6z5YNl0489VQ7ny9dTvdXU1xISXlcyH/gRz/WvlqsuabZ+g0oeygodiOszQKACgApMadhK0b5kJaM2vButvoHiC2vFciDPlzD1jJ5/Lg/hW+DrOlPU5MxwqxFF23PpG2kSWJZImDRuAykHgg96+lhJSVz4JxcG4yJl44qhR00FoKCgAoAKACgAoAKACgAoAKACgAoAKACgAoAKACgAoAKACgAoAKACgAoAKACgAoAKACgAoAKACgAoAKACgAoAKACgAoAKACgAoAKACgAoAKACgAoAKACgAoAKACgAoAKACgAoAKACgAoAKACgAoAKACgAoAKACgAoAKACgAoAKAPzW+LH/JU/GX/Yavf/AEe9AH6U0AFABQAUAFABQAUAFABQAUAFABQAUAFABQAUAFABQAUAFABQAUAFABQAUAFABQAUAFABQAUAFABQAUAFABQAUAFABQAUAFABQAUAFABQAUAFABQAUAFABQAUAFABQAUAFABQAUAFABQAUAFABQAUAFABQAUAFABQAUAFABQAUAFABQAjdKAKt/cxWlrJcXEiRQxjc7ucBV7mplOMVeTEqcpyUYLU8D8c+J5fEWpfuyU0+EkQR+o/vt7nsO3Ir5vGYt1ZcsVofaZZgY4aHNL42c1XHF8p6O2lxuKG7u5SelhOhouMDzRcBCKYCUAFABQAUAFABQAh6cde2OtJgd78ItD+3682oSgG2seUPYuRwPwGT+NengaXtJKZ4meYp04eyj1Pco8g17/U+SStoPoGFABQAjdKTA4j4taj9h8IzRITvu3FuuPQ8t+gNceYVOSlY9LJqPt8SpPoeCL29cc+/p/Kvm1rqfbt8zch1BIUAFABTTASku4PawHjntTeo4vldz2r4O6+L3SW0q5b/SLPJjHrF2/InH5V72X1+aHLI+QznB+yq+1jsz0ZK9I8Va6jqBhQAUAFABQAUAFABQAUAFABQAUAFABQAUAFABQAUAFABQAUAFABQAUAFABQAUAFABQAUAFABQAUAFABQAUAFABQAUAFABQAUAFABQAUAFABQAUAFABQAUAFABQAUAFABQAUAFABQAUAFABQAUAFABQAUAFABQAUAFABQAUAFAH5rfFj/kqfjL/sNXv/AKPegD9KaACgAoAKACgAoAKACgAoAKACgAoAKACgAoAKACgAoAKACgAoAKACgAoAKACgAoAKACgAoAKACgAoAKACgAoAKACgAoAKACgAoAKACgAoAKACgAoAKACgAoAKACgAoAKACgAoAKACgAoAKACgAoAKACgAoAKACgAoAKACgAoAKACgAoAjnYJHknAqZS5dWFm9I7niPxI8XHWbk2GnSH+z4mOXVh+/b1/3ew+hrwcyxPN7sD6nK8B9XXPU+JnDE5/E5PavLivdue43d6oSgBDTQCUDExTBAaBjSKAEoAXFABimAUAFACorvIiRqXkYgKo7nsKqEOd2IqTUFzPofSHgnRE0Dw/a2YwZgu+ZgPvOep/pX02GpckEfC43EPEVZSN5M/hXT1uckdh1AwoAKAGv0oE9jxH4z6n9p16DT0P7u0jy49Xbn9AB/wB9V4eYVuaVj6vIsP7Og6j3Z56MdhXkpWPehpTs9xaYgoAKACgAoAM4OaOob6Gr4T1htA121v1yY0O2VR/Eh4I/r9QK3p1XGqnHY5sww6xFCVPqj6VtZEmiSWJg8bruVh0IOOa+ojNTSkj4HkcPdl0J6oAoAKACgAoAKACgAoAKACgAoAKACgAoAKACgAoAKACgAoAKACgAoAKACgAoAKACgAoAKACgAoAKACgAoAKACgAoAKACgAoAKACgAoAKACgAoAKACgAoAKACgAoAKACgAoAKACgAoAKACgAoAKACgAoAKACgAoAKACgAoAKACgD81vix/wAlT8Zf9hq9/wDR70AfpTQAUAFABQAUAFABQAUAFABQAUAFABQAUAFABQAUAFABQAUAFABQAUAFABQAUAFABQAUAFABQAUAFABQAUAFABQAUAFABQAUAFABQAUAFABQAUAFABQAUAFABQAUAFABQAUAFABQAUAFABQAUAFABQAUAFABQAUAFABQAUAFABQAGgCN2G3kik9NWLbR7nlXxO8YbzLo2mP8oO25lHf1jH58/X1BrxsdjHblgfQ5Xl3N+9qfI8wYc8dMfkf84/IV4XLd3Z9InZcthAOavrcS7ARTGNxQCA0DuNYcUBcZjmi47i96dwuBFFxiEYouAlMBO9MAzil6ilpKx33wi8Pf2nrLajcrm3siNvo0voPYDn8a9TAYfmnzPax42c4uVCn7FfE/yPcUAHTNe5bSx8ilbQfQkMKYBSYCUMSIL64jtbSWeZgscSl2Y9gBmpnLli2yoxc5KKPmDVr6TU9Tur6XO64kL49B2H4DA/Cvla9TnqM/QKFJUqMYIqVL00OiVtGLUkhQAUAFABQAUDQlOPuqwoJM9t+Det/btEbTpXzNZcL/ALUZ+6fw6flXv4CrePIz47OcO4VvaLqeiDrXoK9zyEA60wQtAwoAKACgAoAKACgAoAKACgAoAKACgAoAKACgAoAKACgAoAKACgAoAKACgAoAKACgAoAKACgAoAKACgAoAKACgAoAKACgAoAKACgAoAKACgAoAKACgAoAKACgAoAKACgAoAKACgAoAKACgAoAKACgAoAKACgAoAKACgAoA/Nb4sf8lT8Zf9hq9/8AR70AfpTQAUAFABQAUAFABQAUAFABQAUAFABQAUAFABQAUAFABQAUAFABQAUAFABQAUAFABQAUAFABQAUAFABQAUAFABQAUAFABQAUAFABQAUAFABQAUAFABQAUAFABQAUAFABQAUAFABQAUAFABQAUAFABQAUAFABQAUAFABQAUAFABQA2Q4TPHHrSYnojz/AOI/i46TAdN05l/tGRfnYf8ALFSOufXv+deXmGLUYuMdz18ry54l+0qbI8bI+p985578/wCetfPKTlufWxlpyLZCd6oYUXsA00rgNPNO9wDFAxDQAYoAaaaAb3oGBpghCKBiUWuNLm0JbW3lu7mK2t0LzTMERR3J6fh6+2a1hTdaSSM5VIxg5z+yfSfhPRodC0a3sIcExrl3A++5+83519Ph6Sp00j4HE4mWKrOrJm1WxiFABQAGgTGscDipjqEnY8/+MOsCy8OCwjb9/etsIH9wct/QfjXBmFdQhyo9bKMN7StzM8P6tn15/wDr/p+lfPWd7n2lTRpBVvXUl6OwtSAUAFABQAUAFDGhD+FEiYqzOg8B60dC8S2lw7N9nc+TKB/dYgZ/A4P4V14Kt7Od2cOaYb29F23Wp9HRtuwfUV9KndXPhmmpWHimPqLQAUAFABQAUAFABQAUAFABQAUAFABQAUAFABQAUAFABQAUAFABQAUAFABQAUAFABQAUAFABQAUAFABQAUAFABQAUAFABQAUAFABQAUAFABQAUAFABQAUAFABQAUAFABQAUAFABQAUAFABQAUAFABQAUAFABQAUAFABQAUAfmt8WP8AkqfjL/sNXv8A6PegD9KaACgAoAKACgAoAKACgAoAKACgAoAKACgAoAKACgAoAKACgAoAKACgAoAKACgAoAKACgAoAKACgAoAKACgAoAKACgAoAKACgAoAKACgAoAKACgAoAKACgAoAKACgAoAKACgAoAKACgAoAKACgAoAKACgAoAKACgAoAKACgANADGJwMY/GkncTujlfHfihNA08CIo99NnyoyM8f3j7ZxXHjMUqMbRWp34HB/WZ3vaK/M8KnmkuJ5Jrh2eV2LMxJO49+a+Wqycpc1z7CNNKKitLDPr1ou2ap9LCGmMTvQAGgBMUANIpgBoAaaBiGmAhFAXG4phcMUxhj1IUep7f/AFqOa3zGm1uepfBrw7vkk1u7QgLmO3VvX+Jvz4H417GV4blvJnzeeY3X2MD1xRz+GK9i2tz5zbQdTAKACgANDAY+MZNT8JNuY+ePiRrA1nxXdNGcwWx+zx88HB+Yj6nP5CvncfV56tlsfa5ThlToKb3OXH865D1Je87i0mNu+oUhBQAUAFABQAUAJTew730A4PBzg8fh3/Sj9BRV3Z9T6F+GmsHWPCtq7sDPAPIl9yvf8Rg19Jgazq0ve3Phcxw/scQ10OsGc11rY4eotMY1+nOMe9AXS3Io5laVo9ymRQGZQeQD0/kaiUve5UCUrXZKrZOKrrYOth1MAoAKACgAoAKACgAoAKACgAoAKACgAoAKACgAoAKACgAoAKACgAoAKACgAoAKACgAoAKACgAoAKACgAoAKACgAoAKACgAoAKACgAoAKACgAoAKACgAoAKACgAoAKACgAoAKACgAoAKACgAoAKACgAoAKACgD81vix/wAlT8Zf9hq9/wDR70AfpTQAUAFABQAUAFABQAUAFABQAUAFABQAUAFABQAUAFABQAUAFABQAUAFABQAUAFABQAUAFABQAUAFABQAUAFABQAUAFABQAUAFABQAUAFABQAUAFABQAUAFABQAUAFABQAUAFABQAUAFABQAUAFABQAUAFABQAUAFABQAUANk+79alu2wmr6GJ4o1628P6U91OQz9Io88yNXPisRHDxv1OnB4WWIqKmjwXV9RudU1Ca7vZC8sjHGTwB6D2r5apWlVk5yPs6OHhh17OOyKWOayOm6ENUn0ElqJTGFACYoADQA00AJjmhAJTGGKAENABiqiA2k3qWtjR8OaRPrusQWFvkbzmSQDPloOrf0HviuihQdWSSOPGYlUKbkfSOmWkNhaRWtrGI4IUCKo7AcYr6iEVGNkfCTqSqzcpFsdapdietxaYwoAKAEbpSYHLfETW/7E8MXUqHF1KPJhH+03f8AAZP4Vy16yp03zbnbgMM69ZWPnfjPGfX8DXzN222z7vlUFyoWgQUAFABQAUAFABQAUAFACflSYntY9A+DerCz8QS2EjYivYx5Y9HXkfpn/vmvUy+s4SUGeNnuGVSipx3R7gh9ete91PkI6pDqChr9B9aLi06nG+OzdaXDD4g03LTWR/fx44lgJ+YH3GAQe2K5cR+6XtEehgOSo3h6vXb1N/w7qlrrOnxXtjJviccg9VPdT7itKFZVoKZy1cNPDSdOe5q1sZBQAUAFABQAUAFABQAUAFABQAUAFABQAUAFABQAUAFABQAUAFABQAUAFABQAUAFABQAUAFABQAUAFABQAUAFABQAUAFABQAUAFABQAUAFABQAUAFABQAUAFABQAUAFABQAUAFABQAUAFABQAUAFABQAUAFAH5rfFj/kqfjL/sNXv/o96AP0poAKACgAoAKACgAoAKACgAoAKACgAoAKACgAoAKACgAoAKACgAoAKACgAoAKACgAoAKACgAoAKACgAoAKACgAoAKACgAoAKACgAoAKACgAoAKACgAoAKACgAoAKACgAoAKACgAoAKACgAoAKACgAoAKACgAoAKACgANADSSPSgnUpazqVtpWnzXd6+yGMZPqT2AHcn0rKpWjTV5G1KjKtJRieB+JtbuNe1Jrm4JVB8sUeeEX0+vTJ718ricU61Rq+h9lg8HHD0kramT9Olcz0djqTuhCKBoTFCGmIw4p3KEFFwFIB60XAaQB0o3ATvRYAPNNIBCKoBtABimAlJ36AIehzyuCSD6VTSfwFPl+R7l8MPDJ0fShdXakX10oZweqrwQv17n3r6LL6Cpx53uz4/Ncb7epyU/hX5ncBcV3JWZ5CVhwGKY1oFMAoAKAGv0H1pebA8E+K2ujVfERtIGza2OY1x0aT+I/0/CvnsfW56lj67I8KqFPnluzisAE+p61xyZ7OrbbFqACgAoAKACgAoAKACgAoASgaLGn3b2F/b3kWd8EiyD3wckfiMitIVHGopIzqU/aUZqW59Qadcpe2sNzAwaGZBIp9QeRX1VOfPFSPzxwcG0+5aqxCN2oEyC8gjuLd4JlLxSAoy+oPFZyipxcWNTdOSlHdHhekardeAPFl3ZvuksN4SRD0ZOCJB74J/X0rxIVZ4Wtyr4T66rQp5lhlUl8fQ9ysbuG8tY7i2kWSGVdyOvRh617amprmhsfJShKnJxmtUWVOa0JTuLQMKACgAoAKACgAoAKACgAoAKACgAoAKACgAoAKACgAoAKACgAoAKACgAoAKACgAoAKACgAoAKACgAoAKACgAoAKACgAoAKACgAoAKACgAoAKACgAoAKACgAoAKACgAoAKACgAoAKACgAoAKACgAoAKAPzW+LH/JU/GX/Yavf/AEe9AH6U0AFABQAUAFABQAUAFABQAUAFABQAUAFABQAUAFABQAUAFABQAUAFABQAUAFABQAUAFABQAUAFABQAUAFABQAUAFABQAUAFABQAUAFABQAUAFABQAUAFABQAUAFABQAUAFABQAUAFABQAUAFABQAUAFABQAUAFABQAj9s+tAnG5XvLiO2t5JpnEcUY3Mx7AVnOoqSuwipVHyxPDfG3iWTxBf5iJWwiP7lOhP+0R6nt/nHzGNxLrysj6/L8EsNBTluc2BjNcCionoyqOegh5ovdlpWQhFUAlCADTATFDBCYpFCGmgENUAnegANMBMUXsA0ilcAx0+oH58U0xrqdn8L/Df9sauL25QGxtG3EEZEknZR7DGfxr0MswrlLmlsePm2MjQpezhvI9ziGD7+v86+k20PkEraElBQUAFAAaGDGmgSZznj3XBoPh25uFP+kuPKgUd3YEA/h1/CuTF1/ZwujrwWFdeskump85sSzFiSxYnJPXPU/wA/5183OTnK59/KMYwSiJSYt1cWkIKACgAoAKACgAoAKACgAoDbUTnscHtTloyk+R3fU90+DmqC98MfZWP7yykMeP8AYPK/zI/4DX0GAq80OU+MznD+yxHMtmd9XoHkgaBMa/UZoE90eUfGvRN0VrrEIG5CLeYj0P3T+ZI/GvJzGl7qlHufRZHiLTlSfVaeuhz/AMNfGDaJdjT792/s2duCX/492PU/Qnr6Zz2rkwGLdGXspbHbm2W+2jz0/iW57pA4kAZSCrDII6H3+le+nrpsfJWs9SWqAKACgAoAKACgAoAKACgAoAKACgAoAKACgAoAKACgAoAKACgAoAKACgAoAKACgAoAKACgAoAKACgAoAKACgAoAKACgAoAKACgAoAKACgAoAKACgAoAKACgAoAKACgAoAKACgAoAKACgAoAKACgAoAKAPzW+LH/JU/GX/Yavf/AEe9AH6U0AFABQAUAFABQAUAFABQAUAFABQAUAFABQAUAFABQAUAFABQAUAFABQAUAFABQAUAFABQAUAFABQAUAFABQAUAFABQAUAFABQAUAFABQAUAFABQAUAFABQAUAFABQAUAFABQAUAFABQAUAFABQAUAFABQAUABoExM0DYyUgKCc4BHaplZasWr0R458QfFZ1ac2Ni/wDoERO51OPObkH/AICD09ea+czHGOp7nQ+nyrAKmvaS3OJPv1/nXjpNKx7V9biUWC4EZrTm0sJdxpFK47iEYpphcSmAYoGhD0plDcUAFFxiEU7gJjmi4CEYouNCHpRIFZrTctaXp9xqeowWdom6aZ9q+gHcn2HetaNJ1Wkc9fERw9JzlufRXh3SYNF0m3sbb7ka/exyzdyfevq6NKNKFonw+IrOtUcpdTUXr1rVa6mO2gtMYUAFACMcAUCYxj36UmD7ng3xV18avr5tbV82dlmMY6NJ/Ef6fga8DHVuaXItj7HJsIqNL2svil+RxVeetHc9ZKysFIa0XKLQAUAFABQAUAFABQAUAFABQPo13EPTjrTk+YU/fionf/BrUxa+J5bRj8l5CQv+8p3D9N1ejl1Rxny+R4meUuaipdU/8z3BSefave6HyKbYq80LYa1HYoauMy/EemJq2i3VjKAVnQp9Djg/gcH8Kzqw5oNF0Z+yqxn0vr6HzJcwyW88sEqkSRsY2HPUcV8rUg4zsfofP7RRcdnseofCnxkY2j0XVJfk6W0rnkf9M/8AD6GvYwWL19nPY+czfLrv21FeqPW0bnnH4V677o+avrpsPB5oWquPrYWgYUAFABQAUAFABQAUAFABQAUAFABQAUAFABQAUAFABQAUAFABQAUAFABQAUAFABQAUAFABQAUAFABQAUAFABQAUAFABQAUAFABQAUAFABQAUAFABQAUAFABQAUAFABQAUAFABQAUAFABQAUAFAH5rfFj/AJKn4y/7DV7/AOj3oA/SmgAoAKACgAoAKACgAoAKACgAoAKACgAoAKACgAoAKACgAoAKACgAoAKACgAoAKACgAoAKACgAoAKACgAoAKACgAoAKACgAoAKACgAoAKACgAoAKACgAoAKACgAoAKACgAoAKACgAoAKACgAoAKACgAoAKACgANAEcnA/Gpuoq7JaueafEnxVhX0fTmIfpcSIeV/2B65714mY43Tlie7lmX8z9pPY8yHU8D8PTtXz93J3Z9OrRjZAaqRCEIpAIBzQAUwEI4oQ0JincoRhxTTAbVDFpAIaBjTTQCVQAaQXsN/DPt6+1FrysJS5Jc72PaPhX4a/sywOo3aH7ZdKNu7qkfYfU4yfwr6PAYZQXMz5PN8b7eryx2O+AwfrXpPU8dKwoGDTWmgW1uLQMKACgBHOBxQBynxB1/8AsDw7NJGc3c5MMA77iD834f4VyV6ypU2pbndlmDeJrqL2WrPnnOSSTnnqf1/HOSa+Zu5Ntn3Om62FoAKACgAoAKACgAoAKACgAoAKACgAoAvaFenTdasL0HHkTox/3cgH9Ca2oT5JpnPi6XtaMo+R9PxkMAQeMdq+pg7xufn7VnbsPHWnHYOotMY2QZWgTV1ZHg/xc0j+z/E32tFxDfLv4H8a8MP1B/GvBx9Hllc+wyTFqph+V/FE4dWKsGVtrjnI7HtXmX6roezJRt67nt/wx8Y/2zarp+oOBqMK/KznmdRxn6jjNe/gcYq0eWe58fm2WvCz56fws7+M/NgHI9a9DZ2PGS5dCSqGFABQAUAFABQAUAFABQAUAFABQAUAFABQAUAFABQAUAFABQAUAFABQAUAFABQAUAFABQAUAFABQAUAFABQAUAFABQAUAFABQAUAFABQAUAFABQAUAFABQAUAFABQAUAFABQAUAFABQAUAFABQB+a3xY/5Kn4y/wCw1e/+j3oA/SmgAoAKACgAoAKACgAoAKACgAoAKACgAoAKACgAoAKACgAoAKACgAoAKACgAoAKACgAoAKACgAoAKACgAoAKACgAoAKACgAoAKACgAoAKACgAoAKACgAoAKACgAoAKACgAoAKACgAoAKACgAoAKACgAoADQAmaNCbsa7ELxQPU4z4geKRpFmbWzZTfzKcZ5Ea92P9K8vMMZ7GDUNz0suwbrzTnojxxiWYkszE8kt1Oe59zXzDlz+/J6/gfWJcn7uK0GnmkJq4hFItPoFFwCmmA3FMA70DQUBcQjimhpjSKoYlABQFxD0oC401VuoXEzj1PsO/tQpK+oWb0Ox+G/hk63qgublSbC1bLekj9dv0HWu/L8L7WV5nl5tjVQp+yjue4xDGOnTp6V9Nay5UfHxvvLceRQlYbFxTGFABQwEFDEhsp2pk4wOTn0pXtqx2b0R87fELxAfEHiCV43LWlv+5hweCAeW/4F/ICvm8ZWdapbofaZXhFQoLuzme5PrXLLc9MWpAKACgAoAKACgAoAKACgAoAKACgAoARuRg9DwfxprR3Gu3c+kPAl+dT8KaZct98whH/3l+U/qDX0+Eqc9JM+AxtP2OJlFbHQKOa6U9DlSsOoGI+ccUAcR8WtL+3+EZpgg8y0YTjHXaPv/oSfwrgx9FTg2ejlNf2OJXY8F5HBBDdD7189tofb23v11JbO5msrmK4tHaOeJgysp6N2/wD1d+neqUpUneJM6Ua0HBn0J4E8Tw+I9MEgIS8iws8Xof7w9jz/ACr6TC1/a002fB47BzwtS1tDp8nNdCvfU5X5Cg81QkxaBhQAUAFABQAUAFABQAUAFABQAUAFABQAUAFABQAUAFABQAUAFABQAUAFABQAUAFABQAUAFABQAUAFABQAUAFABQAUAFABQAUAFABQAUAFABQAUAFABQAUAFABQAUAFABQAUAFABQAUAFAH5rfFj/AJKn4y/7DV7/AOj3oA/SmgAoAKACgAoAKACgAoAKACgAoAKACgAoAKACgAoAKACgAoAKACgAoAKACgAoAKACgAoAKACgAoAKACgAoAKACgAoAKACgAoAKACgAoAKACgAoAKACgAoAKACgAoAKACgAoAKACgAoAKACgAoAKACgAoADQJjXOBx1qVHUJOxheK9fh0HS2ncBp2+WGMdWY/0rlxeJjSjZbnThMPKvK3Q8Nvrme9u5bm5kMk8rEsxPXHp7DtXyNSrKpO8j7OjQhSppRK5HH86h/EXHYSmMTFAARQAmKACgBCKAE70wA80IaGkU7lCEYppgJTAMUCYhFCKWxb0fTbjV9SgsbVf3srYJ7Kvdj9BW1PDyrSSiYYjExoU3Jn0LoOmW+kabBZ2qhY4l/76Pcn8c19ZRpKnBJHw9erKvUc5GiuK1WxlvqOpjCgAoARqBMRqmIM4D4teIhpmhnT7aTF7egqMfwx/xH+n41w47E8keVHrZTgvbVOaWyPDj1OM4Jz9On+FfPt3dz7SNorlQUN3JtZi0gCgAoAKACgAoAKACgAoAKACgAoAKAEJx0xTSDzPavgheiXw9c2hOWt5yR9G5/mDXu5XPmptHyGeUuSspdz0gGvSSPHuFMBGzjigCG5hS4tpIZlDRyKUZT3BGMVFWPMrBCTi1JHzDrNg+l6veWMg+aCVkz/eAPB/EV8xiIcsj9CwlZV6EZlL8qyk7mqbgafhvWrrQNVivbM8r8rxk4Dqeqn/AD1xWlCtKnJHLjMNHFwcX01Porw/q1rrOmw3ti++KQcg9VI6qfcV9NSqxqR90+Gr0pUajizUA5zWiujK2txaYwoAKACgAoAKACgAoAKACgAoAKACgAoAKACgAoAKACgAoAKACgAoAKACgAoAKACgAoAKACgAoAKACgAoAKACgAoAKACgAoAKACgAoAKACgAoAKACgAoAKACgAoAKACgAoAKACgAoAKACgD81vix/yVPxl/2Gr3/0e9AH6U0AFABQAUAFABQAUAFABQAUAFABQAUAFABQAUAFABQAUAFABQAUAFABQAUAFABQAUAFABQAUAFABQAUAFABQAUAFABQAUAFABQAUAFABQAUAFABQAUAFABQAUAFABQAUAFABQAUAFABQAUAFABQAUAFACN2pNiaKOrX9vpthJd3kixwRjLH19APcnisqlWNCDlMqnSlWmowPDPEer3GuanJdXAKLkiOI/8ALNfT6+v/ANavj8ViJYibl0PssJh44eCjbUy8VgdVxCKBARQMaRxQCEplCdaAAilcBKaYBTAbjmgaAigLiEcU0NMbVDAigTVxMZxjH40KKb5eolLRylse1/DTwz/ZGnfa7tGW+uVywbrGnGE+vc+/0r6XLsL7Fc0viPkcxxjrT5I/CjtgMdK9M8292LQAUAFABQAjZ4xQBVv7qOyspbm5cJFCpdmPYCs5T5FqOnTdSSj1PmzxNrEuu61c38oKiQ4jT+6g+6P1/nXzWKqOpVbPu8Dhlhqai9zLrDoda3uLSG2FAgoAKACgAoAKACgAoAKACgAoAKACgBKaGvI9H+CF00Ws6ha5wstusgz6qwH/ALNXqZXLlfKfPcQ008PCot7ntCV7l9T5jqPoADQwGNnHFKLbFJ2PEfjRpv2fxDBfKuEuotpP+2v/ANYivCzGHLLmPq8jrOVJ0e2p59x6c968zlS1PejK6A037yFc6r4feKX8N6qPPJbTp8LMo6J/t/h+oJrsweJlTdjy8zwEcTDnhufQFtMs0aSROrxuoZWU8EHv9K+iT5lzI+KacG4Pcn+tP1HqL3o6jCmAUAFABQAUAFABQAUAFABQAUAFABQAUAFABQAUAFABQAUAFABQAUAFABQAUAFABQAUAFABQAUAFABQAUAFABQAUAFABQAUAFABQAUAFABQAUAFABQAUAFABQAUAFABQAUAFABQAUAfmt8WP+Sp+Mv+w1e/+j3oA/SmgAoAKACgAoAKACgAoAKACgAoAKACgAoAKACgAoAKACgAoAKACgAoAKACgAoAKACgAoAKACgAoAKACgAoAKACgAoAKACgAoAKACgAoAKACgAoAKACgAoAKACgAoAKACgAoAKACgAoAKACgAoAKACgAoAZKQEJPQc5qZtJXl0CzeiPGfH3iH+2L/7PavmwtyQpByJH7t9Ow9vrXyma4r6zUUYPRH0+U4RYWnzyWrOUHIrzXaPuo9NXl7zEIpXKE700wCqGI3SgENIplCUAIRQAmKADvSuAU0wG0wDvQNAaLlDT0/r6VUbMTO5+GXhn+0746leR5s7ZvkDdJH/wX+Z9q9TLME5y9rI8XN8cqS9jT6nsq/e+tfSaPU+WVx1MoKACgAoAKAGyfdH1pN2QjyP4xeJAWTQrR22jEl0V79wn9T+FeRmOI05UfR5Lgve9vPZHlYHH8/yA/pXjLY+mWsW/MWgQUAFABQAUAFABQAUAFABQAUAFABQAUAFACHpTQP4WdX8LboW3jex3HCyh4T75Un+ldmXS988vNoOrhdOmp9CR9z3r6Q+LTuh9AwNAmJjipSsNnDfF7TvtnhKSdVAktJFlB9F5U/o2fwrix9JVKd0ellFf2OIs+qt+R4PjnkYPTH+fSvnLPmsfa1FaSt1Cq2dipr3uUP8AOKE7O4lL2ctNj0/4S+LhA66JqT/u2JFrK3QHuh9vSvXwWL97lZ83nOAcn9Zpnr6NntjivYequfMpu9mPFEdihaYBQAUAFABQAUAFABQAUAFABQAUAFABQAUAFABQAUAFABQAUAFABQAUAFABQAUAFABQAUAFABQAUAFABQAUAFABQAUAFABQAUAFABQAUAFABQAUAFABQAUAFABQAUAFABQAUAFABQB+a3xY/wCSp+Mv+w1e/wDo96AP0poAKACgAoAKACgAoAKACgAoAKACgAoAKACgAoAKACgAoAKACgAoAKACgAoAKACgAoAKACgAoAKACgAoAKACgAoAKACgAoAKACgAoAKACgAoAKACgAoAKACgAoAKACgAoAKACgAoAKACgAoAKACgANJ36Axj9Oxpq3QW25598S/EhhibSLJyJHA8+RTyg7L9T1+leDmmN5V7KO57GWYTnl7Sex5jj6fh0r5xaXufSPWwmKIqw73EIqgEIxQNDadwuB5ppjuIRTC4hGKAuJQMKAEoFcKB3A0XATrTWom7DSD2GT2FKLV9St1oaXh7SJtb1WKyt+A3zO/92MfxfjyK3oYeVaql0ObFYuNCm2tz37S7GHTrKG0tV2QxIFUf1r7KEVCKR8TVqSqzbkXQKpa6krTQWmMKACgANAmNJpRBvXUxPF+uR+H9EmvZdrMvyxof43PQf1/CsMTW9nG6OjDYd4iooLY+cLy5mvLua5um3TzOZHOepP8AQdq+ZqvmlzH30KcYUVFdCGpvcvdJi0hBQAUAFABQAUAFABQAUAFABQAUAFABQAUAJRewXey6mp4Wm+z+JtJlyBtuo+vuwH9a3wz9nWSRzYyC9hOK7WPpuPHavquh+fx0Vh9BQUAJik1cSRV1a1S9025tZPuTxtG30IIqakU4tMunPknGXmfLUsL288kMn34mKN/vA4P8q+TatKTe5+hwqe1jCQ2ktfee5c3ed/IDQxR91WBcqwKEhs8EHBH096ErO4WTXI+p738NfFK6/pfk3LqdRtgBJ/00Xs49u34e4r6LB4n2kbS3Pis0wMsPV5orQ7VSc84rtStoeYnfbYdTGFABQAUAFABQAUAFABQAUAFABQAUAFABQAUAFABQAUAFABQAUAFABQAUAFABQAUAFABQAUAFABQAUAFABQAUAFABQAUAFABQAUAFABQAUAFABQAUAFABQAUAFABQAUAFABQAUAFAH5rfFj/kqfjL/sNXv/o96AP0poAKACgAoAKACgAoAKACgAoAKACgAoAKACgAoAKACgAoAKACgAoAKACgAoAKACgAoAKACgAoAKACgAoAKACgAoAKACgAoAKACgAoAKACgAoAKACgAoAKACgAoAKACgAoAKACgAoAKACgAoAKACgBGGcUmxNXOf8AF2ux6HpjyDDXT/LDHnkn1+grhxmKjhqbtudWEwrxNRdjxSaV55nlmcySOxZnP8Tdz/n2r4x1JVZOcj7CNONJKERhoLGmmgENUA00AIaAEAwaAEp3AQihMaExVFARQAlACGgBMUABpDQqqXYKqlixCgDqSTjA+vSrUHUaSIVRUk2z3DwD4dGg6V+9Cm+n+eYjt6KPYfzz619XgcMqUFc+Ox+Kdeo7HU4rtlrocS7iimtgFpjCgAoADQAyTBQ5obsritdaHgPxO8R/23rZt7ZybG0JRcdHfu39B+PrXz2NxHPLlPssmwSpUeeW7OO/CvP1Z689Qp2JWisLSGFABQAUAFABQAUAFABQAUAFABQAUAFABQAUdUHUktXMV1DImNySKwJ6DBBrSn/FRnWjzUpn1TCQVUjGCAa+ri9Efnj0bRJVAFABQAj8gUPawmfOnxHsP7P8Zagg4SUrMv8AwLk/rur5rGw9nUsfa5TV9pR9Dma5HvY9PfUWkAhoGupf0LVbnRtUgvrV9skbZYdmXuD7fy69q2oVnTkc9aksVScJbn0f4c1a31rS4b20PySLkrnlG7qfcGvpaNVVInwlahKhNwl0NStjIKACgAoAKACgAoAKACgAoAKACgAoAKACgAoAKACgAoAKACgAoAKACgAoAKACgAoAKACgAoAKACgAoAKACgAoAKACgAoAKACgAoAKACgAoAKACgAoAKACgAoAKACgAoAKACgAoAKAPzW+LH/JU/GX/Yavf/R70AfpTQAUAFABQAUAFABQAUAFABQAUAFABQAUAFABQAUAFABQAUAFABQAUAFABQAUAFABQAUAFABQAUAFABQAUAFABQAUAFABQAUAFABQAUAFABQAUAFABQAUAFABQAUAFABQAUAFABQAUAFABQAhoEwJpO/QL2IL2eO3tpJp3CRxgszHsBU1Kipx5mOMHN2R4f4l1eTXNVkunysX3Y4z/Avb8T1NfE47ESr1rvY+wwWHjQpWW5kEf/Wrnb1OmOw00igHNMAIouMTFFwExRcVxDzTuO4hFMBB1oQAaoLiEUBcaRQMSgAIoS1GxMcjr+HWi9nZDs7XZ6F8LfDYuJf7XvY/3cfFuuOCw+830B4H4+1e3lWES9+R4GbY7/l3A9XUdz1xX0L7Hzy7scRQtBvUKLAFMAoAKAEbpQBwvxT8SnRdFNrasBf3gKp/sJ0Lfy/OuLGYj2cbI9PKMH9YqqctkeDjAwB0HTnqPWvnH70uc+1mkpcsPhFp3EtBaTF1CkMKACgAoAKACgAoAKACgAoAKACgAoAKACgBKa3C9mI+NjEnAAzRF298T2a7n1PpT+ZYWzjkNErZ+oBr6ynrGL8j89raVZrsy5WhmFABQAjdKBNXPHPjlZKl/pt6ODIjQsfcEEfzNeLmlO75j6fh6q2pQZ5iOe1eRfm1PoIvRi0DCgLCYz3IHtRJc245Pmdztfhf4nOhax9mum22F2QrZ6Rv0VvpwFr0cDiXCXK9jxs2wXtqfPH4l+R7yhHbHSvfTTVz49Pox6n6Uw8mLQMKACgAoAKACgAoAKACgAoAKACgAoAKACgAoAKACgAoAKACgAoAKACgAoAKACgAoAKACgAoAKACgAoAKACgAoAKACgAoAKACgAoAKACgAoAKACgAoAKACgAoAKACgAoAKACgD81vix/yVPxl/2Gr3/0e9AH6U0AFABQAUAFABQAUAFABQAUAFABQAUAFABQAUAFABQAUAFABQAUAFABQAUAFABQAUAFABQAUAFABQAUAFABQAUAFABQAUAFABQAUAFABQAUAFABQAUAFABQAUAFABQAUAFABQAUAFABQAUABoAY/v0pJ2RLV2eZfEjXftEv9k2rfuoyDOR/Eey/hXzWa41tezj3PfyvCf8ALyWxwZ5OT19u9eDHe7Pde1kIelU9XcForDTQMToaAAk0AAoAQ0DGkU0AhFUAhFIBMUXAMU0wEqhgaTHEaRjqSKuVoomGrNjwpok2u6sluiusC4adxxtUenua6sHhHWnc5sdjVRptdT3eyhjtYUggRY4YkCIijgAcYFfXU4KMUonxbm5TbkWR1qw6i0DCgAoAKAA0AVNSvIbGylurqRY4IVLux6AAVFSahG7HGnKpJRj1Pm7xPrE+vazPf3OVLnakZ/5ZovRfryc+9fL4qu6kz7zB4aOGoqCMrFZdLHVa2gnekAtABQAUAFABQAUAFABQAUAFABQAUAFABQAUAFACVUQ6oRuhqY/C/UGtfmfUHhn/AJAOm/8AXtF/6AK+spfBH0Pz3E/x6nqzTrUyCgAoARvegDgPjNZ/aPCYnA+a2nRyfY5X/wBmrz8wheB62TVeSvy9zw0HP4818/srH2K0uhaQBQAUAIRkYxnPFF2tUF7Htnwn8UHVNPOm3kga+tVG1mPMsfQH6jofwr38DieaPKz5DOcB7Cp7Snsz0RMcYFemzxk+b3h1IYUAFABQAUAFABQAUAFABQAUAFABQAUAFABQAUAFABQAUAFABQAUAFABQAUAFABQAUAFABQAUAFABQAUAFABQAUAFABQAUAFABQAUAFABQAUAFABQAUAFABQAUAFABQAUAFAH5rfFj/kqfjL/sNXv/o96AP0poAKACgAoAKACgAoAKACgAoAKACgAoAKACgAoAKACgAoAKACgAoAKACgAoAKACgAoAKACgAoAKACgAoAKACgAoAKACgAoAKACgAoAKACgAoAKACgAoAKACgAoAKACgAoAKACgAoAKACgAoARjigGYPi/Wk0bSJJAQ1xJ8kSg8k46/hXn47FRw9N23OnC0fbVFfY8WdnkkZ5G3u53M394+tfFuo6snUnufWxSilBbDSKHqUnYaRRcE9RMU7lXA8UXDcaTRcLDe9MEIaBgKYAaLjGkU0wCmAhFCASqC4Y9KTdhpvoLFFJNKkcSl5XIVVHUnsKtQdVqPUmVT2UXLoe5+DNATQtJSEgG5f55nA6t6fQdB7V9bgcP7GnrufHY3EPEVG+h0IFdqVjkSFosMKYBQAUAIaTBiMTQTc8g+L/iMzyjRLVv3UeHuSO7c4T+p+orxsxxL/hx2PpMmwas6s+x5k3c9CeTjvXjJWdz6SLtHlGjrVXuxRVlYCKChvegBaACgAoAKACgAoAKACgAoAKACgAoAKACgAoASi4dUI33T9DRtEbep9QeGv8AkAab/wBesX/oC19ZR/hx9D88xH8ep/iZp1qZBQAUAI/SgT01Of8AHFr9t8IatAOrW7MPqBn+lc+LjzUmzpwFT2eIhPzPm4NuJPr/APr/AKivl7aH6C107C0iQoAKAEPSmgLek6jcaVqVve2bFZoW3D0YdwfYjOa1oVHSldGVegq9JwkfSnh/U4dX0u2vrYgxzJu6/dPcH3ByPwr6alU543Pga9J0ajg1saVaK5mxRTEFAwoAKACgAoAKACgAoAKACgAoAKACgAoAKACgAoAKACgAoAKACgAoAKACgAoAKACgAoAKACgAoAKACgAoAKACgAoAKACgAoAKACgAoAKACgAoAKACgAoAKACgAoAKACgD81vix/yVPxl/2Gr3/wBHvQB+lNABQAUAFABQAUAFABQAUAFABQAUAFABQAUAFABQAUAFABQAUAFABQAUAFABQAUAFABQAUAFABQAUAFABQAUAFABQAUAFABQAUAFABQAUAFABQAUAFABQAUAFABQAUAFABQAUAFABQAUAFADJnWOMs5wo5J9qmUlBczGo82h4r4s1c6zrEkyk/Z0ykK+g7n8etfEZpXeIr+69D6nLsMqdL3tzGNcjST0OyO1mNNAxpoGhCKChGHFNAhuKYxpoAb3oAUUABFAxDTQDcc1QCnmkA0ii4DSPbPtTtzAnZnpfwu8Pcf2xdp1yLZT6d3/AB6D2+te/lODv+9mfP5tjXd0YbHpSDB/Cvf0Z4SVh1MYUAFABQAUAI3agTOf8Za4mg6LNcna1yw8uCP+856f4/hXJiMR7Km09zqwmFliKqSPnq5mkuJnmncySyMXZj1JPJ/z9K+W53JtyPuo040oqESE07lDSKExoSncY00XATvTAWgAoAKACgAoAKACgAoAKACgAoAKACgAoAKA6oa/3T9DT+x8xs+n/DP/ACAdN/69Yv8A0Ba+ro/w4+h+eYj+PU/xM1K1MgoAKAEPSgCG6iWa3lif7rqVP0IxWU1zQY4Pkmpdj5XliaCZ4nGGjJQ8ehI/pXy01aTR+iQd4RfdXG1BQUAFACUXAPpk+wHWnJdS07Kx3/wl8SHTdUOmXMmbS7P7ok8LL7ezYxXqYHFcr5WfO5vgVKHtY73PcEOa9pu6ufLLccOtOOwdRaYwoAKACgAoAKACgAoAKACgAoAKACgAoAKACgAoAKACgAoAKACgAoAKACgAoAKACgAoAKACgAoAKACgAoAKACgAoAKACgAoAKACgAoAKACgAoAKACgAoAKACgAoAKACgD81vix/yVPxl/2Gr3/0e9AH6U0AFABQAUAFABQAUAFABQAUAFABQAUAFABQAUAFABQAUAFABQAUAFABQAUAFABQAUAFABQAUAFABQAUAFABQAUAFABQAUAFABQAUAFABQAUAFABQAUAFABQAUAFABQAUAFABQAUAFAAaTdgGscUN2FdnE/EbW/s9kNOt3xNOuXZeqp7fX+leLnGK9nD2a3PTy7D+0qc0tkeY44yAAOmB09q+Tj7u59K2IOtCWtxdbimqHcaRQO4lMBCM0DGkU7juJii4XGkUwExQAGgYlMBKLjA0XAQii6W4WubXhDQ313V0hYYt0w857bQeVH16V34HC+3qe9stTgx2L9hT93d6HudvGsMaRooVEXaqjoAOlfXU1ZJI+Sk7u7JhViQUxhQAUAFABQAyU4XJxgcnNS3ZXYNN6I8C+IHiA69rLeUwNnbZjhAP3ueX/Hj8q+ZxuIdaprsfX5ThVhqXN1Zy5FcbfvHqLXUaRQMTvQhoaRTHcZimguI3SquA0daVwHUDCgAoAKACgAoAKACgAoAKACgAoAKAEoGtwYEqQF3E9qqKvJQYpfDKXY+qNNjEVnAgGNsajH0AFfV09IpdkfndV3qyfdlqtCAoAKAEPSgBrDNK3utEvc+ZPFEAt/E2rRAYAu5cfQsSP518tiY8tRo/QcJP2mHhJ72MysDoCgAoAKBoSmJ6iglSCrFSOQR2oTs0waUlyvqfQfw68Q/2/oMbzEfa7c+VOD3OOG+hHP5+lfTYSuqkLHw2aYV4avaOx1o610rTQ4BaYwoAKACgAoAKACgAoAKACgAoAKACgAoAKACgAoAKACgAoAKACgAoAKACgAoAKACgAoAKACgAoAKACgAoAKACgAoAKACgAoAKACgAoAKACgAoAKACgAoAKACgAoAKACgD81vix/yVPxl/wBhq9/9HvQB+lNABQAUAFABQAUAFABQAUAFABQAUAFABQAUAFABQAUAFABQAUAFABQAUAFABQAUAFABQAUAFABQAUAFABQAUAFABQAUAFABQAUAFABQAUAFABQAUAFABQAUAFABQAUAFABQAUAFABQAjdqTAq393FZWUlzO22KJSzH2FY1Kypwc5dCowdRpI8R1W9l1HUJ7uc/vJWzgdABwB+AwPz9a+FxGIliarqvY+tw1BUaSRUOe9ZmwmKAQmKBgaBiEUwEIoGhpFBQ3FNABpgIRQAw0DEHWgBxoGNIoSuF7CxxvNIkUKl5XYKijqT6VcYOtJJEzqKjFtnuHg3Qo9C0pISAbiT55mA6t6fQdB7V9jgsN7GCPj8XiXXqNm+BXccdhaSKCmAUAFACGgTEYntSWuoM4L4peIv7P0v8As21ci8ugc46qnf8APpXl5jilCHLHc9bKsH7afNLZHjOMDAHyjgenHYV87e7ufXQSUbISqk76htoNxSTGNNVe4DT1oGNYcU0CG96YwIpjG96AFoAKACgAoAKACgAoAKACgAoAKACgAo6oL2aJbOMy3ttGv3nlVR+JArSn/FRnXfLSn6H1TF6enFfWR2R+d7tsfTGFABQAjdKBDWwUIPSkthPqfOnxFiEPjbVlC7Q0gf65UH/GvmsYv3rPucslzYeJzlch6AUAFABQAUAIehz09xx+NHQTXU6TwD4gPh/xBHPI3+izYhuMnouRhvw/lmuvAVvYy1OHNcIsTR5luj6KgIdQykEEcEdK+kjLm95Hw3K46MkqhhQAUAFABQAUAFABQAUAFABQAUAFABQAUAFABQAUAFABQAUAFABQAUAFABQAUAFABQAUAFABQAUAFABQAUAFABQAUAFABQAUAFABQAUAFABQAUAFABQAUAFABQAUAFAH5rfFj/kqfjL/ALDV7/6PegD9KaACgAoAKACgAoAKACgAoAKACgAoAKACgAoAKACgAoAKACgAoAKACgAoAKACgAoAKACgAoAKACgAoAKACgAoAKACgAoAKACgAoAKACgAoAKACgAoAKACgAoAKACgAoAKACgAoAKACgBH6UmB558StWOY9LjOQMSz46+qr/X8K+az3GNfuobHr5Rhv+XkzgfQ5z718+rJJI95SvqIelA7je9AXCgYmMGgAphcQ9KAuNIphcSgaYhFO5QhFFwExRcLiEUrhcb0NVcLi9TyRVKVthavc9A+GGgiSU6tdJ9zK26n16Fvw5Fe3k+CSftJHiZxjuZezgemoMfXFfSX1PAjtqOpjClYApgFABQAGgGUtVvYdPsJrq5bbDCpdj9P/r4rOpNU43HTh7WSSPnrXdRn1fVLi+uT88rcL/cA6L+v8/WvksTU9rUcj7fB0Y0aSS3M4j161j5HTsIBzQ0NMRhQihmKaYXG1SdwEIpghpWi47jelUmFxppsaYnekMWgAoAKACgAoAKACgAoAKACgAoASnYLXNjwfCZ/FekRjPNyjcDP3Tu/pW2EXtKqZy4ySdCpfsfS0Ryc19Xofn9N3jdklIsKACgBD2oE+gh6VN7ILXufP/xZjaPxxd7h8rxRsv024/pXz+Yq1U+yyXXDX7HIVwHrBQAUAFABQAUdUNO1xMZ4PenXu9RU17riz3X4Sa//AGpoK2VxJuu7IbDk8sn8J/p+FfQ4GqpU1E+KzPDOjUbWzO9FdyPNCmAUAFABQAUAFABQAUAFABQAUAFABQAUAFABQAUAFABQAUAFABQAUAFABQAUAFABQAUAFABQAUAFABQAUAFABQAUAFABQAUAFABQAUAFABQAUAFABQAUAFABQAUAFAH5rfFj/kqfjL/sNXv/AKPegD9KaACgAoAKACgAoAKACgAoAKACgAoAKACgAoAKACgAoAKACgAoAKACgAoAKACgAoAKACgAoAKACgAoAKACgAoAKACgAoAKACgAoAKACgAoAKACgAoAKACgAoAKACgAoAKACgAoAKAA0AU9VvY7DT5rqY4SJdx9/QfieKwxFZUabkyoU3Ukoo8SvbiS8u5ridsyyNlv6D+n5V8DWre2qOTPsIUlRpqC3K+KzeruUtFYSgANNDQwiqKDmgAxTEJjmgANMBMUDQmKBjSKBje9AwNNCYjDg8Z9vWkylsaHh7SZNa1SG0jztPzSOP4UHVvx6V2YTDutUSOTFYlUabZ7nZQR20McECBIo0CqB0AH+f519pCChBKJ8dKcpzbkWR1q47B1FpjCgAoAKACgBH6UmhNnk3xX10TTppFu37pP3k5Hc9l/DqfqK8HM8Xze4j6DKMHb94zzk9Se554rw4uysfRdRO9UmMTrTGhpFAxD0oAbiqTAawqr3AZ3oGIRTQDMU7jQhouMTvTAWgAoAKACgAoAKACgAoAKACgBG6dqaA7D4UW32nxtavjKwxyTH8Fx/wCzV3ZdH3zys6n7PDPzPf0GGNfRXPjErXH0DCgAoARu1AmBqZDPBvjH/wAjq3/XtH/Nq8DM/wCN8j7DJP8AdvmcRXnnrhQAUAFABQAUmNOwh6Vo3zIS0Zt+DNabQfEFrebsQk+XN7oxAP5cH8K3wdZ0p6nFmeFVejp0PpKBg6BhyCM59a+mTTVz4Rpxk0yQUJ3H1FpgFABQAUAFABQAUAFABQAUAFABQAUAFABQAUAFABQAUAFABQAUAFABQAUAFABQAUAFABQAUAFABQAUAFABQAUAFABQAUAFABQAUAFABQAUAFABQAUAFABQAUAFAH5rfFj/AJKn4y/7DV7/AOj3oA/SmgAoAKACgAoAKACgAoAKACgAoAKACgAoAKACgAoAKACgAoAKACgAoAKACgAoAKACgAoAKACgAoAKACgAoAKACgAoAKACgAoAKACgAoAKACgAoAKACgAoAKACgAoAKACgAoAKAA9KGA1jxS3F0PP/AIlamS0OmoeP9bKB/wCOj+v4V83nmKd1RWx7OU0L/vZHB8nJPU8k+9fNrRWPdl7z5gNC0VhS1dxpFADSKaBCGqKuJQFwNAxKAExTEFAAaYXGtQOLGmgsbigLAf0HNVFX0juS21vsewfD/Qf7K00TToReXKhpM9VHZfwFfW5XhVSh7R7s+Vx+J9rU5Y/CjqwAK9U4RaACgAoAKAA0CY1iRS6BfXUxfFmsLomizXb7S4G2Nf7znp/j+FcuIr+xptvc6MNQdeoorY8Cnlee4llmYtLIxdmPfPevjnNzqtn3EIKnSUYkZFVN+8ENIjcc0x3EIpjuMNMdxuKGNMQigY3vTTAaRVXuFxuKYXEYcUxoZRsO4YouMTFMAoAKACgAoAKACgAoAKACgAGcjHXtTQ47pnpnwMtA+o6ndgDCQpCD9Tn+gr1cpjzXkfO8QVf3UKfnc9jXrXtnzHWw6gYUAFACNSYmJQ1qDPB/jH/yOrf9e0f82r57MnesfY5I/wDZvmcRXAeuFABQAUAFABTTASku4PawEZHAyew9T2p7/IFe9l1PdPhLrx1TQBaTOGubHEZz1ZP4T+XH4V9Bga7qwtI+NzfCRoYi9P4Wd4py3tiu/Z2PJ6jqYwoAKACgAoAKACgAoAKACgAoAKACgAoAKACgAoAKACgAoAKACgAoAKACgAoAKACgAoAKACgAoAKACgAoAKACgAoAKACgAoAKACgAoAKACgAoAKACgAoAKACgAoA/Nb4sf8lT8Zf9hq9/9HvQB+lNABQAUAFABQAUAFABQAUAFABQAUAFABQAUAFABQAUAFABQAUAFABQAUAFABQAUAFABQAUAFABQAUAFABQAUAFABQAUAFABQAUAFABQAUAFABQAUAFABQAUAFABQAUAFABQAUAI3SpkrgQXk6W1tLNKcRxqWP4VnWqqlB1H0HTi5SUUeKaldyahfz3U335W3Yz09B+AwK+Br13WqSkz63D0lRpqJVIrG5rcSmmFwoGIaAGmgBKaGhDVFCYoAKYhCKAE70wCgY00BcQ9OSQPUdRRezDVnT+ANEOp6qLidB9mtSC3oz9lH0616uWYJ1KqqPY87MsYqdLkW56/HnuADX11rPTY+Xje3vD6ZQUAFABQAUABoAjkHy1Pwu7JaurHi/xG1oaprBt4G3WlplFweC/c/0H0NfLZrivaVOWOx9XlGEVOlzS3ORIPQnOK86Gm56snfYbjFJu8rlLRWENUmIbTuNCEYpplDD0qgG4pjEpMEIaaYxrCqTAbincY0ihgNNCHcTqaodxMUAFABQAUAFABQAUAFABQAYyR+X9KL6A9mj2/wCDFl5PhWS6YYa6nZx7qPl/mDX0GWw5aVz4/O6vPiHHsegL1r0Uzx+o6gYUAFACN0FJiYjUPcZ4L8YHV/GsoByVgjBHp1P9a+ezH+MfY5J/u3zOKrgPWCgAoAKACgAoAKAEPscH19O9AN2TfXodL8PNa/sTxNbSM2y1nPkS+gDEYP4Ng/jXXg6/s5WPPzPC+3w3KviWvzPomI5546dq+li+ZXPh1poSUxhQAUAFABQAUAFABQAUAFABQAUAFABQAUAFABQAUAFABQAUAFABQAUAFABQAUAFABQAUAFABQAUAFABQAUAFABQAUAFABQAUAFABQAUAFABQAUAFABQAUAFABQB+a3xY/5Kn4y/7DV7/wCj3oA/SmgAoAKACgAoAKACgAoAKACgAoAKACgAoAKACgAoAKACgAoAKACgAoAKACgAoAKACgAoAKACgAoAKACgAoAKACgAoAKACgAoAKACgAoAKACgAoAKACgAoAKACgAoAKACgAoAKAEboPrSlsBx3xG1DydMSyQnfcNlsf3B1/XFeDnVd06Pslu/yO/AUuefMecHkk+vOK+S00sfSvcaaBCdaaAQincYhppgIRQAmKaAbTC4MOKBpjcGmO4c0BcQ0XAb3p3BhmlfUprTQdDE888cUS75HYKi+rHgfrWkKTqyUYmc5qlFyke3eG9Li0jSobSM5ZRukb+856t+dfb4OgqNJJHyGKrOvUcmay8V1R2MhaYBQAUAFABQAj5xxSe2gjlvH2t/2Noj+U4F1P8Au4gO3q34V5+Y4h0aNlud2X4dVqyb2PEsfX6+vX/P418indXZ9c0oytHYQjFVuUnYaaY1uN70DENO40NxTQXEIqhpjTTGNNDBCYoKGkU0wGkVQXGkUDuMIpoBAOaew0IRRcYmKYBQAUAFABQAUAFABQAhOBmhK7SGmleT6an0z4TsDpnhzTrQjDRwJu/3iMt+pNfVYaHJTSPz3F1XWrym+5rqOa2Wxgh1MYUAFACN0oENP3fejzE3a589/FKQSeONQK87dik+4QV83j3eqfaZPFww6T66nK1xHqhQAUAFABQAUAFABRew137CYzwOp6ChvkaaHTSafmfRPw51j+2fC9rM77riJfJmz13Lxn8Rg19PhKnPTR8Dj6Hsa8vM6iulXucgopiQUDCgAoAKACgAoAKACgAoAKACgAoAKACgAoAKACgAoAKACgAoAKACgAoAKACgAoAKACgAoAKACgAoAKACgAoAKACgAoAKACgAoAKACgAoAKACgAoAKACgAoA/Nb4sf8lT8Zf9hq9/9HvQB+lNABQAUAFABQAUAFABQAUAFABQAUAFABQAUAFABQAUAFABQAUAFABQAUAFABQAUAFABQAUAFABQAUAFABQAUAFABQAUAFABQAUAFABQAUAFABQAUAFABQAUAFABQAUAFABQAUANk6D61MvPYVrnkHim/8A7R1u4lBzGh8tPoP/AK/86+FzTFuviHVW0dD6fAUVCndmOa89aKx2vcSgApgNOe9ACUAFMBDTQxO9UA0igBKYCHpQNDe9BQUmNeYmPr+FDdtCYu+p3Xwx0US3D6pOgMceY4Rj+Lu36kfga+iyjB+97SXb/I8XNMVdezR6UBivo9NkeEKOtUAtAwoAKACgAoAbKQqEscAdTUzkoq7Dl5tEeGeNdYOta5JKhP2eL91EM9QDy349fpivj8xxPtsRpsfW5bhlRw+u5z5FcC0ueg3ezENUmIaRVJjQw0yhOpoAQjFFwG9aq40IRimmUN60xoTFAxpoAbiqTAR+lUmBHincYhFDAaaEO4nU1Q7iYoAKACgAoAKACgBD0oA1/CWnnVfEum2nVXmVmH+yp3H9BXThYc9Sxx4+t7GhJ99D6XGO3pX00VyxsfBXuPHWmtihaYBQAUAI3agTGt9w0ugnsz5u8dzef4y1h8qcXBXj2AX/ANl/nXzOMf71n3mXRth4PyMKuU7QoAKACgAoAKACgBKaGna4EZGOKUlzMmnoehfBnWPsmuz6fK2IbxC0Y/6aAZ/Vf/Qa9TL67jLkPCzvDKVNVI73/wAz25T2r3Htc+VT1sKOtCd0HUWmMKACgAoAKACgAoAKACgAoAKACgAoAKACgAoAKACgAoAKACgAoAKACgAoAKACgAoAKACgAoAKACgAoAKACgAoAKACgAoAKACgAoAKACgAoAKACgAoAKACgD81vix/yVPxl/2Gr3/0e9AH6U0AFABQAUAFABQAUAFABQAUAFABQAUAFABQAUAFABQAUAFABQAUAFABQAUAFABQAUAFABQAUAFABQAUAFABQAUAFABQAUAFABQAUAFABQAUAFABQAUAFABQAUAFABQAUABpN2ATPFDethIyPFN+bDRbiYH58bE92PA/WuDMqypUWu+h0Yam51LHkXXvk9c+tfBKbb5T6imnawjDij4fdNLWIyKYBQDCgVhMUwSENFyhppoApgB5FADSKLgNNNMEIelUVcaOtF7DVne5YsrWS+u4baEfvJnCAdue59h1PsK0pUnWqpIxlU9lTcpHuOlWUWn2UNrbjEUS7QP5n65Jr7yhSVGKgj5GpN1JuT6lzFapWZDCiwBTAKACgANJsBpPFHWwr2VzkPiNrbafpH2W3YfarrK/7qdzXlZtivYw5Y7s9HLMN7afNLZHj2BgbeV6A+w6V8mtD6tu4mKbd2C00GkU0MbTTBCEVQ7jDTGmJ3oGIRQhjapBcQ1Q0xpouO43vQCYh5plDSKaYDSKoLjSKB3GmmgG4p7DQhFNMobjmgBaBBQAUAFAPYTpTmuUJaRT6npHwR03z9avdQYZW3iES+zscn9Bn/gVepltJOXN5Hg57W5aapPdu/5ntAQDp6Yr3HqfKKIoGDQNKwtAwoAKAENAmMb7pqL+62HWx8t6rcG71a9uGOTNPJJ09XJr5avLmqNn6Hh48lGEFtYrVkahQAUAFABQAUAFABTAQ07gnYs6beSafqNteQnE0EiyL74PT8en41dKXJNNGOIoqrSkn2Pp7TriK8sre5t2DQyxq6H/AGSARX1NOXPA/P6kOWdnuWh1px00J6i1QwoAKACgAoAKACgAoAKACgAoAKACgAoAKACgAoAKACgAoAKACgAoAKACgAoAKACgAoAKACgAoAKACgAoAKACgAoAKACgAoAKACgAoAKACgAoAKACgAoAKAPzW+LH/JU/GX/Yavf/AEe9AH6U0AFABQAUAFABQAUAFABQAUAFABQAUAFABQAUAFABQAUAFABQAUAFABQAUAFABQAUAFABQAUAFABQAUAFABQAUAFABQAUAFABQAUAFABQAUAFABQAUAFABQAUAFABQAUABpMBr9vrTW5MjgviPelpbWyU8AGZv5L/AOzV8pn2Id/ZruezldLVzZxWK+djpue0rIQjFLeVxp6iGqGNxQA0igApgBoAb3poBCKoLiUBcD0pDGgUAIaAE57dfT1px0aYmd78M9JBaXVZFHeOHP6n+n4V9HkmDtJ1meNm+JX8OB6Ggx+WK+lPFWisOoAKACgAoAKAA0CZFOwVCzHAHJNRKSpxcmFud8qPDvFmqHWdbnuVOYVJji9lH+PJ/GvisbiHXquXQ+vwWHVCiovcxiOa5TsG96aGhp6VQxpFIBuKaYCEVSY0MNMoTHNACEUXAbincaEIqkyhtMaEIoGNNADcVSYCP0qkwI8U7jEIouA0jFCY0xveqHcMc0AGKACgBKCXuvUOAQW+7nmqerSRbajU1PoD4UaWdM8JWrOuJboG4c/XG39AK+kwdPkhc+JzfEe3xTa2R2VdZ5oUAFABQAUAI3SgT2M7Xrr7Fod/dZwYYHkH4KTWNV8tNmtCPPUivM+Xl6Anrjn3r5Vu7bP0NRtFLsOpAFABQAUAFABQAUAFABQAh45xk9qTdtRx+JXPcvg5qgvfDJtGb97YuY8HrsPzL/Mj8K+hwFVyhZnxmc0FDEua2Z34NeieStdRaBhQAUAFABQAUAFABQAUAFABQAUAFABQAUAFABQAUAFABQAUAFABQAUAFABQAUAFABQAUAFABQAUAFABQAUAFABQAUAFABQAUAFABQAUAFABQAUAFABQAUAfmt8WP+Sp+Mv+w1e/+j3oA/SmgAoAKACgAoAKACgAoAKACgAoAKACgAoAKACgAoAKACgAoAKACgAoAKACgAoAKACgAoAKACgAoAKACgAoAKACgAoAKACgAoAKACgAoAKACgAoAKACgAoAKACgAoAKACgAPak79AGt2pJ2vcTV2eQeILr7brV3ODlN+xT7DgfyP51+f4+u62IlJ9NEfT4OPLRRnVxPU6RG5FO40NIouO4hppjuIRTC40jFMExKBgaAG4ouAAU7gIRRcYYprUBpFJbiZLY2kl9eQ2sIy8rBB7e/4dfwrehSdaXIiatSNODm+h7ZptpHZWcNtCNsca4A9+5r7vD01ToKCPj603VquTLo61vHRWJ6i0xhQAUAFABQAjdKTA4/4i6v9h0g2sLD7RdZUY/hQdT/AJ9a8nN8T7KlyR6noZZh/aVuaXQ8lwO2T6fTtXySbSsz6mTblqNIp3GNxihMLiGqTBDabKGkUIBmKaYIQiqHcbTGmNIoKQh5oDYbimFxMVSGmIRmncdxuKATGkUyhpFNMBpFUFxpFA7jTTAbjFNDQhp3KSEoBoMUCCgEtU+xe0HT31bWrKxTrPKqk+i9SfyBralDnqJHPi63sqcpzPp22jWKNI0XaiKFVR2Hp+lfUxioJRWx8BzOTbfUmqgCgAoAKACgBH5FAnscd8VLv7H4KvFzhp2SEf8AAmGf0zXHjanLTaPQymHPiYeWp8/jn696+aW1j7mppJLyFxQIKACgAoAKACgAoAKACgBD7YB9aaVwW6T2Z3Xwd1IWfilrVn+S8hMa/wC8uWH6bq9DLqtpWPGzqgnhVJbp/ge6p14xivoPM+PWlkh9BQUAFABQAUAFABQAUAFABQAUAFABQAUAFABQAUAFABQAUAFABQAUAFABQAUAFABQAUAFABQAUAFABQAUAFABQAUAFABQAUAFABQAUAFABQAUAFABQAUAFAH5rfFj/kqfjL/sNXv/AKPegD9KaACgAoAKACgAoAKACgAoAKACgAoAKACgAoAKACgAoAKACgAoAKACgAoAKACgAoAKACgAoAKACgAoAKACgAoAKACgAoAKACgAoAKACgAoAKACgAoAKACgAoAKACgAoAKAEbpSlsBna/dfY9Hups4ZYzj644/XFcePrKjhpSfY1w8eaaR5D1r89TbWvQ+opx5YWEIplCd6AQhFMY0jihDQlMYYzQCGkYpXGNp3AKBgaAExTENNNAJ05qpO2hUNTuPhppe64m1CUf6vMUYI/i/iP8hX0WTYT3/aPt/keFmmIv8Au0eiKAK+laPGWg4daYBQMKACgAoAKAGvjbz0qZNJXfQLX0PFPF2p/wBq63POp/cL+7i+gPJ/E818TmWI9viOZbI+qwWHVKim9zE+tcUdU2dzfNLm8hpplDSKBDCMU0xiVSGhpqhjGFIBMU0wGkVSY0NNMaY3FAxDRcBpFFxoSrTKEpjQ0igY00ANxVJgNancBmKdxidTTuAhFA0xuKaHcQUwEosG6PTPgpo5lv73VZF+SFfIiz/fblvyGB+Netl1HmfOfPcQYq0VRR7IgxXt3ufMLRDqBhQAUAFABQAj9KBPXQ8p+OF+Rb6bYKR87NOfoBgf+hGvIzOpZWPfyKjzSc/keSnHavEjqrn1cnzO/bQKZInegBaACgAoAKACgAoAKAENND+y/QtaTenTdUtL1Tj7PKsn5HOPx6fjWtCXJJGFal7XDypy3aPqK1kSWJJI23I6hlPqDyDX1FOXNFM/PnFxbi+hNVgFABQAUAFABQAUAFABQAUAFABQAUAFABQAUAFABQAUAFABQAUAFABQAUAFABQAUAFABQAUAFABQAUAFABQAUAFABQAUAFABQAUAFABQAUAFABQAUAFABQB+a3xY/5Kn4y/7DV7/wCj3oA/SmgAoAKACgAoAKACgAoAKACgAoAKACgAoAKACgAoAKACgAoAKACgAoAKACgAoAKACgAoAKACgAoAKACgAoAKACgAoAKACgAoAKACgAoAKACgAoAKACgAoAKACgAoAKACgBHOBS6oDkPiFdbNNgtgcGZ8n6L/APrFfO8R1XChGC6s78rhzzcmcB/PrXykn7zsfQJ6CGpC4lMdxKLgB5p3ATFFwGkU9xiGiwXG4p2GmNNAwpgwNBNhp5NNauw0nZiojO6JGu53IVV9SeAKcYe0qqK36CTUabmz2vQrBNN0yC1j/wCWagE+p7mvv8JR9lSUevU+TrVXVm5M0K6UjIKEtQCmAUAFABQAh6cUlqhM5rx3qp07Q3WNgJ5yIkx2B6n8s15mZ4l0aGm70O7AUfa1VfpqeQgeuM44Pt2/z718YvdTS/4J9QnpYaRTTaVio+6uUaRTTC400xpjGoKQ3vTTGJimMaaYDSKaAZimmAmKpMaGmmNMaRQMQjNA0NA5pxC4GrGmNNFx3G0AmNPNMoaRT3AaRTSC43FMdxDTQDTTWgDGp3KbVhOT0Ut7Dqaau3ZBfkXM+h9I+BtI/sTw3Z2bAeaE3ykDq5OT/n2r6fCUVSp2R8Fjq7r4iU+h0AroWxyC0xhQAUAFABQAj/doE9jwH4qX323xjcqrZjtlWAexHJ/VsfhXzWYVHUr+z6H2OUU3DC8xx9cKdm49j11ovUDVAJQAmOaADFABQAUAFABQAUAFA0hMgEEjIB5py0jzCjK7ufRHw0vjf+D9OkY7njj8hj7p8v8AICvpsFNzopnwuZUfY4qSWz1OqrqOIKACgAoAKACgAoAKACgAoAKACgAoAKACgAoAKACgAoAKACgAoAKACgAoAKACgAoAKACgAoAKACgAoAKACgAoAKACgAoAKACgAoAKACgAoAKACgAoAKACgD81vix/yVPxl/2Gr3/0e9AH6U0AFABQAUAFABQAUAFABQAUAFABQAUAFABQAUAFABQAUAFABQAUAFABQAUAFABQAUAFABQAUAFABQAUAFABQAUAFABQAUAFABQAUAFABQAUAFABQAUAFABQAUAFABQAUAI/3eaT1VgPOviBP5mrxQg8Qx8j3PP+FfG5/W5qvJ5Ht5ZC1NyOXrwN7HprWNwNMBvemgE71QwxzQCCmMRulCGiMimMKAQhFAxpFACUXAOuB2PBpqXL73YL2Z0ngDTvtutee4zHbLvP+8eMfzr18lwvtK3PLZanmZlW9muXuepoCOvJxX2X2rnz4+qAKACgAoAKAA0AMk6Gp2dwPJfHuoG+1tolJMVsPLHu3Vj/ACH4V8bnGJ9pXstj6PL8PyR5+5zX4V5i1PRvYQii5QxhihMBvU1SY0NIpjGsKBjCKaYxveqQ0IaoYwikA3FNMBDVJjQ00yhuKADFFwGkU7jQ2qTKGmmgENUMb1pAhuKLjEammAyquMQincaGk4GfTniluyYLmZ1Xwz0U6v4ohMi5t7PFxJ6ZBO0fXOD+FejgaPNU17HnZvivZUOVbs+gBz07dK+ijorHxb1HqOaYdbi0DCgAoAKACgCC+nS2s5p5TiOJGdj6AAk1nVlyQcuxUI801Fdz5gvbl728nuZTmSd2mP8AwJif8/Svk6s+abn3P0GhTVGkoEBFR1KjtcbQO4d6YJgaBjKAFpgFABQAUAFABTH0YnSlF80BWtY9h+Bd7vsNSsSRmKRZVHsygfzU17mVzvDlPl8+pctVSPUa9U8AKACgAoAKACgAoAKACgAoAKACgAoAKACgAoAKACgAoAKACgAoAKACgAoAKACgAoAKACgAoAKACgAoAKACgAoAKACgAoAKACgAoAKACgAoAKACgAoAKACgD81vix/yVPxl/wBhq9/9HvQB+lNABQAUAFABQAUAFABQAUAFABQAUAFABQAUAFABQAUAFABQAUAFABQAUAFABQAUAFABQAUAFABQAUAFABQAUAFABQAUAFABQAUAFABQAUAFABQAUAFABQAUAFABQAUAFADZPu0raoDybxDObnWr2Qn/AJaso+g4H8q/PMwrOti532R9Lg48lEzSK4U7NnQtrBincBMYppjQGgdxKAuNNFwuNppjuBFO4XEK8U0xpjcUx3A0AmNIoGNx29apbMLLd9D1XwJYC00OOQj95cHzm+h6foK+wyOi6WF16nzGPryrVfeOkUYr2IqyOMWqAKACgAoAKAA0mwMzxBfjTdIurpv4F+X/AHjwP1NcuMqKnRk2aYeHtKqi9jxVyzMWkO5m5JPXOef1zXwXtHUu33Pr1FUkoLYYRRcNxtJLUpMaRmqSC43HNUkO4hFMLjTQNMYeaChpFNMBpqkxobTZQ0ihAMIppghO9UmVcaRTC43FA7iEZoGhoHNOIXA1Y0xpoGNoGhpoGNxTQDSKoLjcUJjWughpxffccZcvpse6/CnRP7L8OJPKP9IvcTMe4XA2j8ufxNfS4Clyw5nufFZrX9tXaWyO22813JWPO6igYpiSsFAwoAKAA0CY1s8YweaBO/Q4n4r6mbLwtJAjAS3jiAepT+I/lx+NedmNfko2XXQ9XKaCrYhX2Sv+R4afX1AP+H+P4185tHlR9k25u7Gmm3sPZWEpCEIpoaExzTGIelACUwE70ALQAUAFABQNABz7U1orA2d18Grv7N4saAn5bi2ZMf7SkN/IGvRyyfJUt5Hi59Dnoc73v/me6KeBXvvR2Pj07xuOB5pdbFXFpgFABQAUAFABQAUAFABQAUAFABQAUAFABQAUAFABQAUAFABQAUAFABQAUAFABQAUAFABQAUAFABQAUAFABQAUAFABQAUAFABQAUAFABQAUAFABQAUAfmt8WP+Sp+Mv8AsNXv/o96AP0poAKACgAoAKACgAoAKACgAoAKACgAoAKACgAoAKACgAoAKACgAoAKACgAoAKACgAoAKACgAoAKACgAoAKACgAoAKACgAoAKACgAoAKACgAoAKACgAoAKACgAoAKACgAoAiupBFA7nooJ/IZrHET5KUpdkVFXkkeOyEtIzn+Ik/qf/AK9fmtSfPOU+59RSVoJDD0qFsWthuMc0AIaaGJTADQA09aADFOICYqxiGhDQh6UyhhFAIKBljTLQ32o29svWRwM+gByT+QNb4ai61WMEc+KqezptntECCNQijCqMAegr9CjBRioLofKOXNK5KKsOotABQAUAFABQA2T7vFKSuhM4H4l6hloNPQnH+ukx+IA/nXzWf4r3FRievltByvUOExyTXza0ike9fmVxpoENxQhjWqkwGVVxoaaLjENNFIaRTKGkUCIyMU0xiVSGhpqhjCKTATGDQmAN0qkxojNUUNxzQAEUXAbincaEPSqTKGnmmgGkU2CY3FCKuIRVANIo6jXbubXgzRG13xBbWrDdbqfMmI6eWCM/n938K68PQdWqnHY8/G4pYejJddl6n0TAqooRBhVGAPavqkklZHxPM5O5LQMKACgAoAKACgCN+meOtJO6ErLVnifxa1P7Z4jFnGSYrNNp/wB9uT+m0V83mFa8+Q+ryXD+zpOb3Zw2Mc151z2hKY7Dcc0wFNMBpoHcaRTBMb3oGLigBMc0wDFABQAUAFAG54GujZ+MNIlzgG4WM++75f610YWfJVRxZjT9ph5LsfSK19Q2fBrRWHL1pj6jqBhQAUAFABQAUAFABQAUAFABQAUAFABQAUAFABQAUAFABQAUAFABQAUAFABQAUAFABQAUAFABQAUAFABQAUAFABQAUAFABQAUAFABQAUAFABQAUAFAH5rfFj/kqfjL/sNXv/AKPegD9KaACgAoAKACgAoAKACgAoAKACgAoAKACgAoAKACgAoAKACgAoAKACgAoAKACgAoAKACgAoAKACgAoAKACgAoAKACgAoAKACgAoAKACgAoAKACgAoAKACgAoAKACgAoAKAM3xHKIdFu3JxiNv1GK4sxlbDTXdGtBXmjynGOD2Ffm6lZW7H00HaNhDzVW5dO5SeggHNIBCKcQEAqrgIRRcBCKLgJincYhFFwuNxTTGmJincdwIouVHUbj0PPaqejSFF8zOu+HFmJtSnuW+7Au1R7nH9K97h6ipydaW6PJzOt7vIeiqoBJz1FfWKNm2eGOqhhQAUAFABQAUmA2Q4XPHFJyUVdha7seM69eG/1a6uSch3IX/dHA/QV+fY2s6uKc3sfVYOmqVGxnGue922bwVkNNNFDe9NgNNJDGmqTGhppoY009hjSKaYXGkUxpjGFBSGEYFNMYw1SFcSmxpiHmhIY3FNDQhFUmO4wjFMLiUBcaeaBpiYpxHcQjFWFxp5oGhpFML2GmnfuVK6Wg1sYOeg60N9ECV0mz234U6H/ZmhG8nTF1ekOc9Qg+6P6/jX0mW0PZ09T5HOcX7etaOyO5UV6C0djyrC1QBQAUAFABQAHtQ9gtco6veRabptxeznEUCF298DpWUqns4OTHGk604wXc+bb24kvLua5nOZZnLtz3PJ/p+Qr5CtP2tRzPv6cFCEYroiA9KixoNHWmtAuBp3C4nemmFxMc0wEbkUDQzFFx3DvTuFwNFxjaLgFMAoAKAJbOb7NeW84OPKkV/yYH+lXTXvoyr/AMNrufU0Lb41b1ANfWRfNFM/PZK0pIkXrVXuLqOoGFABQAUAFABQAUAFABQAUAFABQAUAFABQAUAFABQAUAFABQAUAFABQAUAFABQAUAFABQAUAFABQAUAFABQAUAFABQAUAFABQAUAFABQAUAFABQAUAfmt8WP+Sp+Mv+w1e/8Ao96AP0poAKACgAoAKACgAoAKACgAoAKACgAoAKACgAoAKACgAoAKACgAoAKACgAoAKACgAoAKACgAoAKACgAoAKACgAoAKACgAoAKACgAoAKACgAoAKACgAoAKACgAoAKACgAoAw/Gknl+H5+cFmUD868nOp8mFb/rqdWDjzVUebY/PjP5V+fL4Ln0K0QmKvdJgnoNxQAhFCGhtMYmKYCEUAJTGBoAaetMBDRcYnemnuNB6U1rDmEnbU9P8AAlp9m0KKQj558yE+x6fpX3GT0PZUFLufN4ypz1Gjo69Y5AoAKACgAoAKAA0gMTxfeGz0G4ZDiR/3a/U//WzXnZliPZYeXnodOEpe0qJHkpHAAHFfCxbdJ33Pp4KysNIpQfuopaOwzrTGIRVpgNIphcaRQO4xhQmFxuKdxpjSMUJjEqkwGkUykxjCmikxhGKdxjeppoBpFUFxMc0mO4hGKEwGtVJjQyqKE70AIRRcBtO40BHFUmUMNMTGlc8Utyk7m14M0Rtd123tipa2UiWdu2wHkficrXdhMP7SornBjsWqFJpddD6FiXaNoGFAwBX1KSjGyPieZtu49RimthrQWmMKACgAoAKAEfkUn5Aea/GHWPJsINLhbD3J8yTH9wdB+J/lXkZtiOWPs0e1kWG5qrqy2R5LjHpzzj3r55aKx9Qt2KadyhpqogJ3qgAjFF7AMNK4DTTvcAoGIRxTAYaB3DrTBMMUDExzQAYpgNYZVh3wf5U4/EhNXR9Q+HpzdaFYTnrLbxv+ag19ZRfuI/PcSrVZ+pojrWi2MuotAwoAKACgAoAKACgAoAKACgAoAKACgAoAKACgAoAKACgAoAKACgAoAKACgAoAKACgAoAKACgAoAKACgAoAKACgAoAKACgAoAKACgAoAKACgAoAKACgD81vix/yVPxl/2Gr3/0e9AH6U0AFABQAUAFABQAUAFABQAUAFABQAUAFABQAUAFABQAUAFABQAUAFABQAUAFABQAUAFABQAUAFABQAUAFABQAUAFABQAUAFABQAUAFABQAUAFABQAUAFABQAUAFABQAUAc548JGiJtOMzKD+RrweIpcuFX+Jfkzvy5Xqv0/yPPz1OO5r4e3u8q2Pb8huKq+lh3sIRQFxpFA0xMUrjuJjmqTC4EcUwGEUwEouAGi40IRQO401cPiDdDooWmljjT7zsFX6k4H6mijDmjGl3ZDlam5HtFnCtvBFCnCxoFA9hX6VSgqcFBdD5Sb5puRPWggoAKACgAoADQA0n5fep3F0OC+I10TPaWan5VBkYe54H8mr5XP67540VstT2Mqha9R77HGEV87H4rnsXGkUJWuUu4wjmqHcaRTBMaRTQxtNjGmhBoNNNMENNMdxmKpDuIRimMaeaB3GsKBpkZFUmMaRVJjExzQwEIqUMYRVpgmNxVJlXExg0wuNPSgLjDQNMDTiO42qZSY1uASeABkn0xzVK32dyWuU9v+Gvh86TowmuF23d3+8cY5Rf4V/DJP4mvpsuo8kOd7nx+aYj29W0fhR2IXFeiecKBzQMWgAoAKACkwCi4Edw6xwu7sFVQSSe3FKUuVNsajzaHzt4o1Vtb1u5vjnY52xj0QdB/P8zXyOLre1rXZ9tgaPsaCiZOMHFcz1lc64iUyhDTQCVQCYoAQ0ANxzQAmKYARQgEK0xjMYpjQd6BgaAG0wE68dAeKBxetu59JeBJWm8H6O7nLG1jBP0GK+pw0r0kz4DHwUMROKN5etdBy9R1AwoAKACgAoAKACgAoAKACgAoAKACgAoAKACgAoAKACgAoAKACgAoAKACgAoAKACgAoAKACgAoAKACgAoAKACgAoAKACgAoAKACgAoAKACgAoAKACgD81vix/yVPxl/wBhq9/9HvQB+lNABQAUAFABQAUAFABQAUAFABQAUAFABQAUAFABQAUAFABQAUAFABQAUAFABQAUAFABQAUAFABQAUAFABQAUAFABQAUAFABQAUAFABQAUAFABQAUAFABQAUAFABQAUmAHpQBzHjxz/ZkCD+Kb+hr53iN/7NFf3l+TPRy3+K/T9UcKa+MPbG0AIRTAbQAYpiExQA0ii4xpFNMENIxTGFMYmKAA9KFugNXwlbfadftVYZCHzT+HT9cV6mV0fa4hLtqceMnyUWerx197tofORd1cdQMKACgAoAKAA0BcYzYFTeyYnvY8m8R3f23WrqVTlN2xT7Dj+hr89zCv7avKXY+lwlL2dNGXiuO51oaaq4xvWhMBhFUUhhHNAxCKtMBpFMLjcUmFxpFCYxmKq40NNO4xDTQDSM0xoYwpopMYRincoTvQAhoGNIoAaRiqTAaapMaGGqKE70AIVouA0r6DJPAFUmNLd9jpvh9oX9t66jSDdZ2xEsuejf3R+efyruwGGdSspvY83MsaqdG3VnuqDB9DivrNOh8fFvruPoKCgAoAKACgANAmNJx1qIg3Y4b4qa39i0gWMDYubslTjsg6n88V5uZYjkhyruetlWF9rU5pbJf5HjQGB8uNtfNPe59bGyjZDTVN3JWjsJigoAOaBoQ0XGIelNANqgENABQA00IBppjCmA0igdxMUwTEbpQMQDJxQVD4kfQ/wx/wCRF0n/AK5H/wBCavp8L/BR8HmK/wBqn6nUD71dRw9R1MYUAFABQAUAFABQAUAFABQAUAFABQAUAFABQAUAFABQAUAFABQAUAFABQAUAFABQAUAFABQAUAFABQAUAFABQAUAFABQAUAFABQAUAFABQAUAFABQB+a3xY/wCSp+Mv+w1e/wDo96AP0poAKACgAoAKACgAoAKACgAoAKACgAoAKACgAoAKACgAoAKACgAoAKACgAoAKACgAoAKACgAoAKACgAoAKACgAoAKACgAoAKACgAoAKACgAoAKACgAoAKACgAoAKAA0AIelAjl/Hn/Hlbf8AXX/2U18zxH/Aj/i/RnpZb/Efp+qOKIr449oaRQgGmmMb3poQhphcQ0WC400WC4nWnsNMQ9KLjG4ppgIRTuAh6GjcL9DsPh1b7r27nP8AyzQL+fP9K+jyCHPWnUe60PMzWXLamjvFGK+sTu7niJW0HVQwoAKACgAoARu31pPTULXKOqXAtdNuJz/AhYfXHH61z4mXs6E5eRVGPtJo8iOcc9e/+fzr825nK7l1PrI6RSGmmgGkUxoaRTKGkVQDD1pjuNIpgmNIpoY2mwGkUJDQ00x7DTTC40800NajSMVQ7DSM0AhrCgpMjIp3GNpjEoAQihDGkVSYIaRVplXG96YmxDSTKvpoCI0kipGpd2ICqOpPYD3z096uMedqKFzqmnKR7z4J0VdD0SK3wDM/zyt/tHt9AOPwr63B0FSpWPisbiJV6zl0OgAwa64qyOYWqAKACgAoAKAA0m7AQ3MixRtJIwVEBZmPQAUpSVON2TyynJRjufP/AIs1Ztc1y4uyT5WdsQP8Kj/Ofxr5DGVnVqs+2weHjh4KMe2vqZH161zXurHWu4hFGw7jcUXAaRTTGhuKY7iYoQ0wp3GGKe4DcUWADTSAYRTADQA00DEbpTQIZTHcF+8KCoP30fQ3wx/5ETSf+ubf+htX0+F/go+EzP8A3qZ1C9a6upxDqYBQAUAFABQAUAFABQAUAFABQAUAFABQAUAFABQAUAFABQAUAFABQAUAFABQAUAFABQAUAFABQAUAFABQAUAFABQAUAFABQAUAFABQAUAFABQAUAFAH5rfFj/kqfjL/sNXv/AKPegD9KaACgAoAKACgAoAKACgAoAKACgAoAKACgAoAKACgAoAKACgAoAKACgAoAKACgAoAKACgAoAKACgAoAKACgAoAKACgAoAKACgAoAKACgAoAKACgAoAKACgAoAKACgAoASkhHNeOUJ06Bh2lH8jXzvEi/2eL/vL8mellv8AFfp/kcQRzXxZ7QhoQDCKYxKaEIRTAbigAxSuMbii4AaYhhFCGhCKYxpyOc9Ka0TYdT0L4eW/l6VLL3kmOPoOBX2eQUrUefueDmU+arY6rvXvnn9RaBhQAUAFABQAjdKAOb8cTeXoRjXrK4T+Z/pXhZ5X9jhPXQ7MDDmqI87b1z1Jr4nZn0O2hGR3poBKdxoQjFNMYw07ghp5ppjGMKopDSKBjcVaYDTzTGNxSYXGkUJgMxVJjQ0imUJimhDSM0xoYwoKTGEU7lDaYCGgBKAGkYNUmMaadxxG4JOAQD2z/n8aqVloEddTu/hZoAvdQbVLmP8AcW5xEG7v3P0HP517WV4S8vaPseHm2N932S7nrijH+NfRrRWPnfMXvQAtAwoAKACgAoAbJ92k1cOp5/8AFPXPstgum2z/AL65G6Qr95Y/b69PpmvHzXFcsOWJ6+TYVTqOrLZHkp/Djj6D0+nX86+bi7xufUW3aENO4CY5p3GhO9BQHpTQDe9UA00ANNAxB1oQCmncY09KaYDe9MAIoQDaYxD1oAQincBAOeOuM0XHH44n0L8NV2+B9JyMfuifzY19ThP4MT4bM3/tUzqF6109TiFpgFABQAUAFABQAUAFABQAUAFABQAUAFABQAUAFABQAUAFABQAUAFABQAUAFABQAUAFABQAUAFABQAUAFABQAUAFABQAUAFABQAUAFABQAUAFABQAUAfmt8WP+Sp+Mv+w1e/8Ao96AP0poAKACgAoAKACgAoAKACgAoAKACgAoAKACgAoAKACgAoAKACgAoAKACgAoAKACgAoAKACgAoAKACgAoAKACgAoAKACgAoAKACgAoAKACgAoAKACgAoAKACgAoAKACgBDSA5/xrzpA+bBWRWx+Y/rXgcQrmwy9f0Z3ZfK1V+n+RwpHb04r4aLumz227DcU4aq409BCKoLjcYoBMQ0XKG4ouAhFMBuM0IQYphcbigaYEUDE7jPTIoezKij07whF5Xh2yB4LKXP4kmv0HKYezw8V3R8vi3zVGzZXrXp9Tn63HUDCgAoAKACgBH6e1AHEePpszWkHorOfx4r5HiOftOXDv4dz1cshdORyBH8hXzClzOUvuPXTvqNIqkxjCKYDTTQ7jSKY0NIpooaeTVMBpFMdxpFMExppoY3vTYDT0oSGhmKY3oNYYpiuN6mqQ0xCKYxpFA0MYUFJkZGKdxiUwENA0NIoQxpHX6GqTBMsaXYTapqENnbAmSZ9vHYd2/AZP4VtSoyr1FGJlWrxw9Nzl/TPftFsYdNsIbO2H7uJcD3PUn8Tk19rQpxpwUV0Pi6tSVSblLqX8VolqQFMAoAKACgAoADntSd+gFPVLyGwsZrq5YLFEpYn8Kzq1FTg5MqnTdSSij5/1vUZdX1W4vZ87pWJA/ur2X8P89a+NxFZ1arZ9rhqMaFDkRQPPFZPR2N4t2sIRQMKBiGi4XE700wuBFO4XGMMU0xpiGmMbigaENAwoQCEU7ANPNPYBCKLhcbimmFxCKYXAYyM9MjNJuw1q0fRvgZDH4Q0hGGGFqn8q+swytSij4THPmxM2bqnmt07s5UOqgCgAoAKACgAoAKACgAoAKACgAoAKACgAoAKACgAoAKACgAoAKACgAoAKACgAoAKACgAoAKACgAoAKACgAoAKACgAoAKACgAoAKACgAoAKACgAoAKAPzW+LH/ACVPxl/2Gr3/ANHvQB+lNABQAUAFABQAUAFABQAUAFABQAUAFABQAUAFABQAUAFABQAUAFABQAUAFABQAUAFABQAUAFABQAUAFABQAUAFABQAUAFABQAUAFABQAUAFABQAUAFABQAUAFABQAUAFAGD4wQHSS2MkMB+teFnyvhvn+jOvBu1Q4Wvgo6Jnu7oaacX7o09BMUCGNTQxCKodxuMGgExDQUNxQAhpgJQA3FMQjD5Tj0NDV4v8ArqUj1vR0EWlWiYxthQfoK/SsIuWhD0R8rWd5y9S6OtdW+pn1FoGFABQAUAFACN05ouB514xl83XZR/zzRU/r/Wvgc7q82Jfke7l8LUrmCRivGWmnc7YP3bjTVJjuMaquNMZimhiEU7jGkU0xpjG4p3HcaeaaYDSKopDcUDGmrTAaaYxuKTC40ihMBpFVcaGmncY2mgGkUxoY44oKTIyKdyhO9MBDQMbgd8Y96qKvcTdrHq3ww0D7HYnUrlMXNyuIww5WMHr+PB/KvpsownsaftJ7s+azfFqtU9nDZHdpjJ9a9hKx5Cdx1UMKACgAoAKACgBr/wCcUXsSzyn4o699quF0i2YeTEd05X+Juy/hXzea4xv93E+iynCO/tJbWPPz6nvzxXiRutWe4+yCjd3KTSVhpFUFxCOKATExTGIRQAmOaLgB6VSY0NxVFDTQAmKAExigaENFxh1poBuKoANF7AIRRcBjDII9aNw2Z9I+EIhF4c08AEAwq2Cc9ea+uw6/dxPgsZK9efqbK1rHqYLYWqAKACgAoAKACgAoAKACgAoAKACgAoAKACgAoAKACgAoAKACgAoAKACgAoAKACgAoAKACgAoAKACgAoAKACgAoAKACgAoAKACgAoAKACgAoAKACgAoA/Nb4sf8lT8Zf9hq9/9HvQB+lNABQAUAFABQAUAFABQAUAFABQAUAFABQAUAFABQAUAFABQAUAFABQAUAFABQAUAFABQAUAFABQAUAFABQAUAFABQAUAFABQAUAFABQAUAFABQAUAFABQAUAFABQAUAFAGdr8Jn0m5RfvbCw+oGR+tebmtJTw031WqNaMrTR5zjHTpxX5ve61PoU/duIaUV7pSeg3FMYhFMQ3FFwEIprUaG1VihDzRYBpFAxpGKaEJ9aYXGsu75T0PFXTV5JdxN2TfY9igULCi+igfpX6VRjalFeR8tPWTZKtbpWJQtAwoAKACgAoAbJ92jqhHl+tP5uq3b5B/eEfgMAfoK/MsbUdWvWb6H0uFXLRsUGWuVapN72NYP3bDCtUWhpFMdhhFNMBpFMBppoYw0x3GmmguNPNUNMaRTKuNIpgmNNNDG96bAaaEhob3pj2GmmFxpqkO40imAw0DQ0igsaRinzWE2N9eM+3r7U5aadSlrsb3gvQjrmrqkgzaQ4kmPY+g/PH5V6OX4RV6nM9lqefj8Z7Gm4x3eh7bGoUAAAADAA6CvrktD5RvuPHWquIWmMKACgAoAKAEY4FAmc/4x1xNE0h5Qd1xJ8kKjqSQefw5P4VxYqv7CD5tzqwuH9vNLoeHSO0sjvIxeRjudj3Jr42UpVKjqyPsYxUIKERhFN6jWg3FAeYhFA7je9A0xDTTHcQimO4UAIRTQxKdwuB6UXC4w0XAQjimmNDaZQg60IBSAetO4xpUdqaYDcUwJLeB7meKCP78ziNfqxwP51UFzSUe5FRqMJSfRH07axLBBHFHwiqFA9hX18VywSWx+fyk5zlJ9SZeDirSsSuwtMYUAFABQAUAFABQAUAFABQAUAFABQAUAFABQAUAFABQAUAFABQAUAFABQAUAFABQAUAFABQAUAFABQAUAFABQAUAFABQAUAFABQAUAFABQAUAFABQB+a3xY/wCSp+Mv+w1e/wDo96AP0poAKACgAoAKACgAoAKACgAoAKACgAoAKACgAoAKACgAoAKACgAoAKACgAoAKACgAoAKACgAoAKACgAoAKACgAoAKACgAoAKACgAoAKACgAoAKACgAoAKACgAoAKACgAoAZKAyEHoeKyrQ9pBw7jTs7nl8kZikdCOUJU/hX5dXXJWnHs7H0dJ3ppjKyTsrGi2G4ouIQjFNDG0wEIpoaG4p3KExQmA3vVDEIoAaaAHRJvljT+8wX861w6vVj6kVPgZ6+hyo+lfpdL4Inyz3Y5elaiWwtAwoAKACgAoAbIcKTWdWXJByBK7PKZjvlkfP3mJ/z+dfl2Il7833Z9LS/hoiYVC0SRa2GEU0y0xpFUBGRQmFxhFO40xpFNMY00xjSKaAaRiquNDSM00xjG9KopDcUDGmrTAaaYxuKTC40ihMBpFVcaGmncY2hDGmqC409KTXXtqNSCKJ5ZUjhUvKxARR3PYVqouq1JdSalRUYts9u8JaMmiaTFbDBlI3SsB1b/AOt0r7PBYVYekl1Z8hicQ61Rs28V2nNYWgoKACgAoAKACgCK6lSGB5JWCxoNzMewFTOaguZ9AUef3UeG+LtafXdVefkWyfJCp7L6/U4/lXxeYYqWJrW6H1+W4WNGj725iEfp0rmk7PlWx1w21G4qblBjFNMBpqgGmkNCUJjY0iqTBCYpjDmgBDRcBMc07jQGgoaRTQDDVDEA5oACKBiUIAxzTuBu+ArP7b4u0uMjKrL5rfRQW/mBXXgoc9VI4Myq+zw8n30PoUHIr6trY+IWw4fe/CjqMWmMKACgAoAKACgAoAKACgAoAKACgAoAKACgAoAKACgAoAKACgAoAKACgAoAKACgAoAKACgAoAKACgAoAKACgAoAKACgAoAKACgAoAKACgAoAKACgAoA/Nb4sf8AJU/GX/Yavf8A0e9AH6U0AFABQAUAFABQAUAFABQAUAFABQAUAFABQAUAFABQAUAFABQAUAFABQAUAFABQAUAFABQAUAFABQAUAFABQAUAFABQAUAFABQAUAFABQAUAFABQAUAFABQAUAFABQAUANcArz0oEzz3X4fJ1e5Xnlt4/Hn/GvzPMqXssXK+7Z9DgnzUjOxiuCOqbe9zaL90Q0BcTFMExuKLjuIRTTGmIQKodxrdMUILjcUx3E70AmNoKH24zcRf74/nW2G/ix9SKnwM9dXpX6ZT+BHyvcVa0e4R2FoGFABQAUAFAEF62y1lbrtUn9K5sa7Yeb8iqfxpHl5BwOf/rf5zX5g26jPpEuVqK2GEVKfNd9ik9CNhVIaGEVRQ0igBhFA0hrCqQxhFUA00DGmqGNxTQXGkVQ0xrChDuMIqhpjSKdxjcUbgNNNIaG96Y9hpphcaaa0HcaaJ3Woxp9uvb/AD7dfwqlKyVuocqer6HffDLQg7nVblPlXK24I492/oK9/KcEoy9ozxM1xrqfu0ekIMd+1fSHhLTQdRYYUwCgAoAKAEPakwG5I9KE09ibtbnnPxN8QZB0i0YdjOw6j/Z/Hr+FeBmuOVvZR3PbyvB8z9rI84P9a+dvpY+hlq7iUk7LlK31EoATFNAIRVXAaRRuA0imkFxDzVIaY3HNMoKAEIoATrQhiYphcSmh3Aii4XG4xTTHcaaYXE700DYh6EjsKS2bCeljv/g5aed4jurkgkW8BH4swx+imvUyiHPUcvL/ACPGz6py01BHsijHHtX0m58qlZWHYpW1uMKYBQAUAFABQAUAFABQAUAFABQAUAFABQAUAFABQAUAFABQAUAFABQAUAFABQAUAFABQAUAFABQAUAFABQAUAFABQAUAFABQAUAFABQAUAFABQAUAFAH5rfFj/kqfjL/sNXv/o96AP0poAKACgAoAKACgAoAKACgAoAKACgAoAKACgAoAKACgAoAKACgAoAKACgAoAKACgAoAKACgAoAKACgAoAKACgAoAKACgAoAKACgAoAKACgAoAKACgAoAKACgAoAKACgAoARulKQHHeL4cX0UuOHjx+IP/ANeviOJ6HLVVVdrHq5bUvBo5+vmm7tPyO9bWG07jEOKdwEIFFxjCKExoQ07jG96dwExQAh5poY0iqHcI22SK/dSG/KtaDtVj6kzfuM9dj+6PpX6bS+CJ8u92OFadRIWgYUAFABQAUAVNXJGl3RHXym/ka48f/u0/Q0pfxI+p5sw/+vX5fBn0bXvjCKI9QQ0riqTGmRlcmncdxjLVJgmMxTKGEU0wuMIp3GmNIppjGmmMaRTQDTTuNDaaZQ1hTuCGEU0yhpqgGmi4DSKdx3GkU0wGkUMBpyemM9q0b0saJ2RoeH9Jk1nVIrROIz80j+kY7/j0rqwWEdaaOTFYlUabZ7ZaQR20KQwqEijUKqjsBX29OnGEFGJ8lKUpSbZOOtWthdRaYwoAKACgAoAa4yB7Gk+wmrmB4u12PQ9NaQYa5fKwpnnPr9BXDjcTHC02ludWDwrxNTXY8Wnd5ZHeVt0jtuZj/ET1P+favi+Z1G5yPsFCNO0IkRFMoQDmgAxSGGMUwGmi4DeppxAQirAaRigBD1ouMQimmNDaYxMUAFK4CGmmAnemAHpTQ0NYcVRQ2i9gezGnnijaAnqkz134K2hj0m+u2/5bShB9FUZ/U19DlNO1PmPmM7qc1ZRPR69c8UKACgAoAKACgAoAKACgAoAKACgAoAKACgAoAKACgAoAKACgAoAKACgAoAKACgAoAKACgAoAKACgAoAKACgAoAKACgAoAKACgAoAKACgAoAKACgAoAKACgD81vix/wAlT8Zf9hq9/wDR70AfpTQAUAFABQAUAFABQAUAFABQAUAFABQAUAFABQAUAFABQAUAFABQAUAFABQAUAFABQAUAFABQAUAFABQAUAFABQAUAFABQAUAFABQAUAFABQAUAFABQAUAFABQAUAFABQAh6UAYPim2MlgrjrGSfwHJ/TNfN8Q4d1sL6anXgZ8kmjjcfX1r4WDdmpbntMMVQDSKAGmgBKY0IRQO4mKaGmNNMBMU0A0incBp46VUHZ37Cl8LPWbZt8KN/eUGv03Cy5qMG97HzU1aTRKK6CRaACgAoAKACgCnrH/ILu/8Ark38jXDmT5cJUfkaUv4kfU86cV+XR0imfRN++RkVS0+Yl1EqhkbCmUMIzVRGkMK1RVhhWgBhFA9hjCrQXG4pjuNNAxppjGkVSC40imNMawpodxhFMaY00xjaAGmgLjSKd+w0NOT0z+HX8Per5JSaXUcnyxvI9d8EaGNJ00NKoF5MN8uOi+ij2H+NfZ5ZhHQhzT+JnymMrurOy2OkxzXppWdzlFosAUwCgAoADQwY0nAzUq9tRN2K9/dR2dpJcXDBIo1LMx7VnVqKnDmZcIubSR4l4j1ebW9TkupQVX7saf3V7fie9fE43ESxFW8j6zCYeNClZbmXj/Pt2rnejOqO1xNtO5VxMYouFxpoC400x3ENACU0AmKdxiGncBpFAXExQh3EIp3C43GKe47hRYLiGnsFxKLgJ1ppjQEU7juJjFJsLjee3Wriub3Rv3Y3PoHwNYf2d4bs4CMMFJb65r63A01TopHxWYVHVxDkzoK6zjCgAoAKACgAoAKACgAoAKACgAoAKACgAoAKACgAoAKACgAoAKACgAoAKACgAoAKACgAoAKACgAoAKACgAoAKACgAoAKACgAoAKACgAoAKACgAoAKACgAoA/Nb4sf8lT8Zf9hq9/9HvQB+lNABQAUAFABQAUAFABQAUAFABQAUAFABQAUAFABQAUAFABQAUAFABQAUAFABQAUAFABQAUAFABQAUAFABQAUAFABQAUAFABQAUAFABQAUAFABQAUAFABQAUAFABQAUAFAAaUnYCvfIJICrdCcH6d/0zXLjIc9NxLhLldzzyaIwzSRN95GKn8DgV+Y4um6OIcGe9SlzQTIsVjcsawppghveqGGMUANNO4xMUXGIRRcLjSKdx3Gmi4DT90j14p81kx9Geo6M4k0u0cc5iU/pX6ZgXfD0/Q+aqq02XB1rsRkLTGFABQAUAFAFTVv+QZdf9cm/ka4M0/3Op6F0v4kfU88YV+Wr4UfRP4iMirb1QLZjcU0xoRhVXGRsKaY0yMjmncdxjCqTBMYRTKGnmmmMYwp3BDCKaYxppjGkU0A007jQ2mmUNYU7ghhFNMoaRVAxuKBJiEZ96a7lHV/D/RPtt79vnXNvA37sf3n9fw6/jXt5Pg3VftZnk5ni7rkR6fH1NfXpngJ3Q+gYUAFABQAUABpMCOQ8c8CoUne72Bq+h5b8QPEB1C5/s+2bFrE2XYf8tHHYew/nn0r5bN8e5T9nB6H0GW4Pl/eSOOIBHTByTgV4kW73Z68mtkNxitN3ccXpYSgoTFACYp3Aaw4ouAwimMBQAGi4xpFNAIRVAIRxQA3HNMBCtCAbjFMYHpQCG4plBQAhouA2mtQNTwxafbNctgy7o4yZnGM8IMn9QB+NdeEhzyOTG1vZwZ9B2ERgtoozjKIFOOhr62muWKR8ZOXNNssVYgoAKACgAoAKACgAoAKACgAoAKACgAoAKACgAoAKACgAoAKACgAoAKACgAoAKACgAoAKACgAoAKACgAoAKACgAoAKACgAoAKACgAoAKACgAoAKACgAoAKAPzW+LH/JU/GX/Yavf/AEe9AH6U0AFABQAUAFABQAUAFABQAUAFABQAUAFABQAUAFABQAUAFABQAUAFABQAUAFABQAUAFABQAUAFABQAUAFABQAUAFABQAUAFABQAUAFABQAUAFABQAUAFABQAUAFABQAUAITjH1pMTGnkCk9XYJHGeJ7fy9SMgHyyqGH171+f8Q0PZ4nmS0PZwVTmp8pj4wa8FanYr3ENPqA3FMQnWmkNCEUxje9ACHpQMbimNCMOKBjenPpzRa+g/I9B8KSb9Etx3Tcn5E4/Sv0TKKrq4VX3Wh87io8lVo2VPNet1MBaYBQAUAFABQBX1Fd1lMp6FCP0rizJXwtT0Lp/EmeeEAgfmP8/hX5TL3VFH0Kd1zDCuK0lpKy2BMYRQmO40iqTC4xhVIaGYpjuMYU0MjIqykMxzQMawoAjIq0VcbimAhFAxhFPoNDSKaGNIqkMaRTQXGkVQ7jdtJ6PUUSfTrKXUL6K1g4d2xu/ujufwrpw9B16qS2Ir1lSi2z2TTLKKws4raABY41x9T3P49a+8w9JUoJI+TnUc5tl0Dn8K2XcjqLTGFABQAGgGITRewmIx4qW0wOO8d+IDp9sbK1cfa5lOSP8Almvr9TXkZrjPZ03Cmejl2E9tLmnseXdM/gB6j1zXx8Nrs+m+FckdhtU9QsFNAlZ3EIqh3GmgaYhoKGkZoAQrTuFxhGKLgmN70xiigBDRcY3FOICYqwEIoAb3oC4hFNDTG4plCYoACKAEYcGmnYDvfhhYlvtl6wxvkjtU/FlZ/wBMV7GV0rxcnueHnNazUEeuR53c+lfRRd1c+afx2WxJTKCgAoAKACgAoAKACgAoAKACgAoAKACgAoAKACgAoAKACgAoAKACgAoAKACgAoAKACgAoAKACgAoAKACgAoAKACgAoAKACgAoAKACgAoAKACgAoAKACgAoA/Nb4sf8lT8Zf9hq9/9HvQB+lNABQAUAFABQAUAFABQAUAFABQAUAFABQAUAFABQAUAFABQAUAFABQAUAFABQAUAFABQAUAFABQAUAFABQAUAFABQAUAFABQAUAFABQAUAFABQAUAFABQAUAFABQAUAFAAaAEIqba3E1cx/E1t5umtIPvw/P8AgOv6Zrws+wft6PMun+TOnC1PZyscZtxx+H0r88pqyZ7ratcQjFKD5lclaq42rQxMVSYIaaoYnei9gEIouMbRcYhFFwGkdacXqkHVHZ+CJd1jcRHqkmfzH/66+04crc1OUOx4+ZQ5alzpQOa+mOAWmAUAFABQAUAMmG6Jh7VhiY89GUfIqLszzoqRwRX5NWjapKPY9+D/AHYwipbu0yo7DSKaYyMirTBDSKq4xhFO4DGFMpMYRTuO5GwqkxpjCKZQwincBpFVcq40ihMBmKYCHpTQxhFO40NpplDcVWrENI5z6VSXPHkW4+bljc9H8BaKbO0+2XC/6RcLwD1VO34nqa+uyXBexp3lufOY7EupLlR19e49TgQCmMWgAoAKAEagUlcRuBUJX1GzJ8Q6vFo+nSTvgydI0B5ZuwrlxmJhh4Nm2Gw7qySR45eTy3dzJPcNulkYlj7+n09K+HrVp1ajbZ9ZClGlC0SAjj3NJmkX7o0igY0c0ABFFxCYoQxDVBcaeaBpiAc0FDWFNAhlMYAc0ABpDG9aaATFO4CEU0wGkVQDcYoADRcY2mmNCGmMTB7Ak9h6+lCjzNIObl94968J6P8A2boOmwMcSRDzX46swP8ALOPwr7HCUVRppHxOMrurWlI6BK6tE7HJHYdTKCgAoAKACgAoAKACgAoAKACgAoAKACgAoAKACgAoAKACgAoAKACgAoAKACgAoAKACgAoAKACgAoAKACgAoAKACgAoAKACgAoAKACgAoAKACgAoAKACgAoA/Nb4sf8lT8Zf8AYavf/R70AfpTQAUAFABQAUAFABQAUAFABQAUAFABQAUAFABQAUAFABQAUAFABQAUAFABQAUAFABQAUAFABQAUAFABQAUAFABQAUAFABQAUAFABQAUAFABQAUAFABQAUAFABQAUAFABQAUAGKAGTKGjIboetRUgqkXB9QTs00efXkBtruWE9UbH4dRX5VjMPLD4idF/0j36M1OCIDXNGyXLHY1TsrDe9MVxKB3EIpiG96aGhDTtcq42nawXENAXEI6fWjbULm/wCCpdmoTRbuJI8ge4P/ANevpeHKzjiZU+jOHM48yUjtlr7VaOx4y1QtUMKACgAoAKAGydPxqZa6AcFeJsuplx0kb+f/ANavyTGLkr1l5nvUHzQK5FY9EzRO2gxhTQ7kZFUNDCKaYxpFVcBhFO40NYVVxkZFMZGwqykNxQMaRTQDGFNDTIyKodxMUANNMaGEVSHcae+MZ96avca1ZteEtIOq6ovmL/osJDufU9QP8+leplWCdavzr4Tix2J9lFpbnq0a4xxjjp6V9xa2i2Pm3q7jiM01oDVxaYwoAKACgBG6UnfoBXvLiO3tpJ53VIkGWY9hWdWrClBylsKMXUlZHj/iPV5NZ1FpmysKfLEh7D/H1+tfD47EyxE9Xp0PqsFho0I36mSRXJfSx1jSKECGkVRVxMYpBcDQAh6cUANwe9O4CYpopCGmUIRmgBu2ncLjWGBRcExhpjAUAHekMQ00A0jmquAhHFO4IaRQVcbjmhBcCOmODmm2M3fA2lDV/EdrGy5hh/fSg9wp6fiSK78voqrV16annZliHRovl66HvKjoK+sSvY+QY8VXUYUwCgAoAKACgAoAKACgAoAKACgAoAKACgAoAKACgAoAKACgAoAKACgAoAKACgAoAKACgAoAKACgAoAKACgAoAKACgAoAKACgAoAKACgAoAKACgAoAKACgAoA/Nb4sf8lT8Zf9hq9/8AR70AfpTQAUAFABQAUAFABQAUAFABQAUAFABQAUAFABQAUAFABQAUAFABQAUAFABQAUAFABQAUAFABQAUAFABQAUAFABQAUAFABQAUAFABQAUAFABQAUAFABQAUAFABQAUAFABQAUAFADX6UpK6sJo5rxPaABLpeg+Vz6A9DXyHEuE5nHGQ32O/C1XflOdI9evSvjEuS8T1b6DcU7gJii4CEYppjG1VwQ00JjG1SYCGmAgpMa3LmjTfZ9VtpScDdg/Q8f1r0Msr+xrxl3djDFx54M9HQ/rzX6ZF8yTPA62HUwCgAoAKACgBr9B9aBM4zWo9mpTejHcPx/+vX5fnlL2WMku+p7OGn7lihtrzJO1kdKYxlxSTGmRkVVx3GEU0xjCKdxDSKtMpMaRTHcYVzTQ0xhSncdyNl4q0xpjCKZQwigY0iquCGEU0xjcUxjSKaARI2ldURS7scBR3Na04uo+RdSZVPZpyPWPDmlrpWmxQ5zKRukbH3m/wA8fhX3mW4ZYbDqFj5nE1nVmzWHWu++tjEWmAUAFABQAUANkxt5qJuwbnmnjrXPt0x0+1bNvGf3jD+NvQew/wA9K+UzvG+0qKhDZHu5bhFFc8zkT9ck8k14bWuh68n710NNK4riHmmguNxTGIaaBDTVFXEoC400DEAwaAFPSmFxhoQ0xDTKGMKaBCYpjE70AJ3pDBulMBtFwEIpoBtUA3GDSGhCM5onuOD0uet/CfSfsmkyX8oPmXR+X/cHQ/j1r6jK8NyR5z5XNMS6lTk7HeYr2DybC0FBQAUAFABQAUAFABQAUAFABQAUAFABQAUAFABQAUAFABQAUAFABQAUAFABQAUAFABQAUAFABQAUAFABQAUAFABQAUAFABQAUAFABQAUAFABQAUAFABQAUAFAH5rfFj/kqfjL/sNXv/AKPegD9KaACgAoAKACgAoAKACgAoAKACgAoAKACgAoAKACgAoAKACgAoAKACgAoAKACgAoAKACgAoAKACgAoAKACgAoAKACgAoAKACgAoAKACgAoAKACgAoAKACgAoAKACgAoAKACgAoADzQ9gK93As9tJE/RhiuXE0FWoTpS2aKhLkldHBzxNFK8bfeQ7T+HSvyqtQlRqOnLpt6Hu05c8eZEWKzs0aaiU9AEIoQxuKaYIQimMbinuAhosAhqoaMBoBz8vDdj6GpUmqSn1THJXiz0nTJxc2kMy/ddM1+q4SqqtKMo9vxPnKseWbLddRAUAFABQAUANfoPrUzdlcTOZ8Sx7bqJ/7yY/I//Xr4LiijyYqNXuj08G7qxjEV8zF80Yt7nds7DGGaZYwrigBjCqQXIyKoYwimFhpFUhobimVYawpgRsKoZGy4qykMIoGNIpjQxhTQxhFUlcY0j0oTTTfQI7anWeA9JFxO19cKfLj4iGOrd2/p+FfSZHglUl7aWx5GPxOnIjvgOa+u3PHS1uOApJWGFMAoAKAA0mA1mwKLi2OT8ba8bK2+xWrf6XKOSOqL6/jXiZtmDoR9lH4n+R6OBwvtZc0tkea9vUf175r45Jq99fN7n0bfu8qG9apaKwkuVWExSGNIpoBKdwuIRTuFxMUXGNPSmmNDaooaaAG4oAUU0AhphcaeaNhpjdvNO5VwIouFxrDigLjcUx3A0ANNNAIBzVDEIqX0C9i5o2nSapqtvZw5PmPtZh/CAeT+VdNKn7esoLY58VV+rQbPoCzgS2gjhiULHGgVVA6AdK+0hBQShHZHxk5Oc3N9SxV2EFMAoAKACgAoAKACgAoAKACgAoAKACgAoAKACgAoAKACgAoAKACgAoAKACgAoAKACgAoAKACgAoAKACgAoAKACgAoAKACgAoAKACgAoAKACgAoAKACgAoAKACgD81vix/wAlT8Zf9hq9/wDR70AfpTQAUAFABQAUAFABQAUAFABQAUAFABQAUAFABQAUAFABQAUAFABQAUAFABQAUAFABQAUAFABQAUAFABQAUAFABQAUAFABQAUAFABQAUAFABQAUAFABQAUAFABQAUAFABQAUAFAAaTAaelCVkJuxzXiay2ut0owrcOR2PY18TxLgHzrEQ9D0sHV+yznyOxxmvkI1HezPTTTQYxVWsyVuNNMdxtNBcQii4xuMU0wENVcBvWmnuCEI/qPzGKbSlaLKjrodf4MufMtZISTmNsj/dbBH9a+14XxLnQlSnun+B4uMp8srnR19QcYUAFABQAUAI3SkwMTxHEWtI5O6tj8K+U4loe0wal1T/AMzrwsrSOdI6+ma+Fk05aHqDGFCY0xmKdyrjCKaYJjGFVcdyMimmMYRTuCG4xVpjuNNO9wGMKaKTGFadx3GMOKtMaZGRTKGEc0BcawqubTl7hclsrOS9u4reHh3bG7+6PX8s10UMO6040YbEYisqcD1jTrWOytYreBdsca4AHSv0XD0I4emqa6HzM5ucmy1W5IUAFABQAUAIxxj60baha5l69qkelae1xJgueET+83auHGYqGFpOp16GuGoSxE7Hkl3PLdXMs053SyMWb2Pp9PSvg5VZ1b1Km7PqqVNUoqnEgxUXNBMUXAO9FxjTTTEN70wEIpoBDTGNxQAhouFxrdKaY0xuKooTHNACEUXEJjFNFIQ0yhp6U0A3vTACKAGfSgYnPegBaLjGn269qqL3Qn3PTPhVonlQzarMmDL+7hH+wMZP4kV9DkmE5IOcj57N8Z7R8kT0RBwK9+9zw4LQdQUFABQAUAFABQAUAFABQAUAFABQAUAFABQAUAFABQAUAFABQAUAFABQAUAFABQAUAFABQAUAFABQAUAFABQAUAFABQAUAFABQAUAFABQAUAFABQAUAFABQAUAFAH5rfFj/kqfjL/sNXv/o96AP0poAKACgAoAKACgAoAKACgAoAKACgAoAKACgAoAKACgAoAKACgAoAKACgAoAKACgAoAKACgAoAKACgAoAKACgAoAKACgAoAKACgAoAKACgAoAKACgAoAKACgAoAKACgAoAKACgAoAQjih6gQXUCTQNG/KtxXJicOqtL2fXp6lQlyu5xF1A1vcPE/3kOD7+h/Gvy3HUZUK7hJa3/qx7lCanG5AwrB3Ui+o3vTuUJjmi4IQ0DuNxTQXGmqFcTFAXEI9KqLs7lJ2NTw3dC21RQ3CSAIR717eSYh0cWm9mrfkcWMhzQ0O6HWv0FXu+x47sO70wCmAUAFAAaTAqalF5tjMnfGR9RXm5pR9rhakS6TtJHHMPbrz/n9a/KuVR91dNz21qrjcc1SGNIpjexGwoKQwimMYwqkMYRVBcYVzTGhpXFUh2GEVQhhFA7jCKooYRVPYfQjI5poaGkHsMk8fnxTulqVbqdr4G0zy4WvpACZeI/ZR3/EjNfX8P4FQh7efxPb0PEx1dyfKjrUz3619HC71Z5qHVYwoAKAA0mDEzxS1S1BkVzKkUJkkYLGnzMT2AFTOoqcedsXK5tJHlHiLVX1bUGl58lOIh6D1/HH+cV8HmWMeIr36Lp0Pp8JQVKnfqZNcTs5XOqPcSmVcQ0BcaaVhXG4p7DTEouMQ00wGkU7hcQimmFxCKBjSKaBDSKoq4mKQXE70AJjmhDAjincLjCKaY0xCKZQmOaAEK07hcaRSu+g0NxjntTno/dEncu6Np0mq6nBZxZ/et8xH8K9zXThaHtqiS2McViPYwbPerG3jtLaK3gQJFEgVQOwFfbU4KEEkfFzm5zbZYFVHYOotUAUAFABQAUAFABQAUAFABQAUAFABQAUAFABQAUAFABQAUAFABQAUAFABQAUAFABQAUAFABQAUAFABQAUAFABQAUAFABQAUAFABQAUAFABQAUAFABQAUAFABQAUAfmt8WP+Sp+Mv+w1e/+j3oA/SmgAoAKACgAoAKACgAoAKACgAoAKACgAoAKACgAoAKACgAoAKACgAoAKACgAoAKACgAoAKACgAoAKACgAoAKACgAoAKACgAoAKACgAoAKACgAoAKACgAoAKACgAoAKACgAoAKACgAoARulJ2tqBg+IrHzIhcxLlox8y+o/zg18nn+XuuvrUV7y0fodmHrOLszmm5Hr/X3r4hyu9V6eh6yd1cbigY2mAd6AGkUwEIouMbii4CGmmAgLBgV+8Dx9e1aQqOD5l0Dl5k0eh6bcC7s4ZkOQy/r3r9Qy/EKvQjM+crQcZtFsda646XELVAFABQAHtUyAY3AoklLfYW2px97D5N3LFjhW4+nUfzr8lzLDvC4qpB9XdHs0JXgVyK4kzZMYRVXHcYRQmNMYRVJlJjCOaYxhFVcBhFNMaYwincdxpFWmAwine4DGFNFJjGFVcpajCM0h3J9LsW1C/it1HDHLH0Heu/A4R4isoGVauqUG2eoW8axRpHGMIihVHtX6PCnGnFRXQ+Zbk5tslXrV7Ow+o6mAUAFAARnFTKPNYCNun40J3Ymjg/HGsmZv7Nt2+Rf9cy9z/dr5XOsx5pexpns5dhV8ctjkCD3/ACFfNcut2es+yEIqrK90VtGw2i4riHpVIaG96ZQhoBDSKBjaAA0XGNIppgJTuAjDimmAzFACGmgQhFUVcaOtAXAimA3FAxCKAuNoQ0wNMoaaqPUAxzU09VyvcL2jc9T+Geh/Y7A6jOhE90PkBH3U/wDr4z+NfV5VhPZx5pbny+Y4p1JckdjtwMZr2HqeYtBRTAWgYUAFABQAUAFABQAUAFABQAUAFABQAUAFABQAUAFABQAUAFABQAUAFABQAUAFABQAUAFABQAUAFABQAUAFABQAUAFABQAUAFABQAUAFABQAUAFABQAUAFABQAUAfmt8WP+Sp+Mv8AsNXv/o96AP0poAKACgAoAKACgAoAKACgAoAKACgAoAKACgAoAKACgAoAKACgAoAKACgAoAKACgAoAKACgAoAKACgAoAKACgAoAKACgAoAKACgAoAKACgAoAKACgAoAKACgAoAKACgAoAKACgAoAKAA0mAx1DKVIyDxUTgpQcWr3GnbU43VrH7JdFVH7tuV9q/Mc0wTwVRvo3/SR6+Gq88bFEj868xqSfkdQhFO+tgY2mFhDQCQwigYmKAEIpoY3HOB1q4SS1YJ2Ol8IXfMlqxwPvp/X+lfXcL4qXLLCz3Wp5eNpcr5jp16819elrc8/zHVQBQAUAIwzSewmrjSARg9KlaqwNXMHX4cSpMP4htP4V8LxThk5xxD32/X9D0MJPTlZkMK+Svqd0rRI2FU9hrYbjmmhoQimUiNxTGRkU0OwwiqQDCKopDCKYDSKpAMxVIBjCgtOwzH68VSTSuHQ7TwXYeXbNdv8Afm4X/dHQ/jjNfa8PYJwpe3nu/wAjxMbWc3ydjpgMd6+jscQtCQBTAKACgBG7UpbAYPirWP7M0/EJBuJRiMD+deVmmMWFpNdWdWFoe2lqeZnLElmLEkk/Xufxr4Tnc3zz3Po4rljyDSKHqNOwhpoBhFMBMc0IaExTuMQjimmMaRTHcbigExpoGFMBCKAG4poBCKYxMUwGkUwAihDQ01QxhpDExQAYHagEJjmmmUNPbjPt6+1DvugSubng/RG1rVkR8m1iw8rDv/s/j0+gNejgcL9aqKcehwZhi/ZQcUe0wIqKFQAKowAPSvsYpKNkfKNtyuSkZq1oDVwoGFABQAUAFABQAUAFABQAUAFABQAUAFABQAUAFABQAUAFABQAUAFABQAUAFABQAUAFABQAUAFABQAUAFABQAUAFABQAUAFABQAUAFABQAUAFABQAUAFABQAUAFABQB+a3xY/5Kn4y/wCw1e/+j3oA/SmgAoAKACgAoAKACgAoAKACgAoAKACgAoAKACgAoAKACgAoAKACgAoAKACgAoAKACgAoAKACgAoAKACgAoAKACgAoAKACgAoAKACgAoAKACgAoAKACgAoAKACgAoAKACgAoAKACgAoADQ1cGNPSlsJrQp6rZre2uw8PnKn0NeZmmAhjqLjLdar1/pm1Cq6bucbIjRuyONrLwRX5jOFSjNxqrY9mnPmVxp6VEVdcz3NE9Rpp3GNxRcBCKLjG4p3EIaAuNxk0be92GncmsrhrW7inHVDyPUd67cHipYWrGtDdmVenzxZ6DbyLIquhyrDIPqK/UaNWNWKnDZ6ngyjyuxLWogoAKAA0AJjFJKzuIp6tb+fZuo+8ORXj53hFicM7dNfwZtSlyyucseefWvy2CtKSfQ9dO8RhFEX1CLG4qkykxrCquO4wihMaYzbzVXKTGFadxjCKq4yMimmAwincQ0irTKTGkZ60NtK63Bsm06za9voYFHDNyfQd67cDRliKsYLruRiKypwPSLeNY1VUGEVQoA9K/TYQUIqC6HzjbcmyarGFABQAUABoAgvJ0t7dppWCog3Emsq1SNKDnLoVGLk7I8s1i+fUb+S4fIDfcX+6vYfX1+tfnmLxbxtVuT0R9FhqCpRKBFcdrSOhau40imMbimhiEU7gJincYhFFwuNNVFjTG1RQ00AhCKBiAc0AIaLjEp3AaaLgIelO4DSKLgNIppgFUFxpFA0xCKZQ2kIQj1poLjoopJpUiiQvI7BVUdyeMVpThKpJQj1FKqqUXJntHhXSF0bSo7fgzt88rerH+np9K+1wWEjhIJI+Qxdd1qjaNwCuy2tzBaC0xhQAUAFABQAUAFABQAUAFABQAUAFABQAUAFABQAUAFABQAUAFABQAUAFABQAUAFABQAUAFABQAUAFABQAUAFABQAUAFABQAUAFABQAUAFABQAUAFABQAUAFABQAUAFAH5rfFj/kqfjL/ALDV7/6PegD9KaACgAoAKACgAoAKACgAoAKACgAoAKACgAoAKACgAoAKACgAoAKACgAoAKACgAoAKACgAoAKACgAoAKACgAoAKACgAoAKACgAoAKACgAoAKACgAoAKACgAoAKACgAoAKACgAoAKACgAPNAmAFAxH6UmJmF4gsPMX7TEuXUfMvqK+S4iyp4he1p9Nztw1dx91nOEdMdK+He9keou4hFNp2GmxPrTGmIQO1BQ2hCGkUwGkUAJjB9/T1pzfKkmXeyOp8KXnmW7WzHLR5Kk9StfdZBjlOHsuyPFxdKz5joAT3r6a7tc4k9RwprXUYUwCgAxQA1xkVMoppp7DTscrfw+TdOvbOR9DX5JmeFeDxE131Xoerh580bFbFcKXLG3c0taQ1hTRSI2HFUihuKYxpFNARsKZSYwimVcYwqkFyMiqGMIoQDSOx6d/51cZcuo46s6rwdZ7Y5btx8zEqv07/qK+x4awiUHXnuzycdVvLlOnXrX1WvMeehaoYUAFAAaTAaT9KV1LYDh/GuqedKLGJv3cfMhHc+lfI59j1VtRh0ev4nrYDDae0kcqR145r5mSu7nrN3VhpFVe4R0VhpFMY0imgG4oC4hGKaHcaaoBCM0IY3FO4XEIpplRYhFMoaRQA3FACd6AENAxvemgEIp2AOtNIBpFUA00Ahp6UyrjQMmgLgR68Dv/AJ/Spakgp/8ATw9E+G/h/wAtBqt2n7xh+5U9QP7x9+3/AOuvp8nwLgva1N2jwMyxfM/ZR2O/VQOle/GPKrHkdRwFNKwBTAKACgAoAKACgAoAKACgAoAKACgAoAKACgAoAKACgAoAKACgAoAKACgAoAKACgAoAKACgAoAKACgAoAKACgAoAKACgAoAKACgAoAKACgAoAKACgAoAKACgAoAKACgAoA/Nb4sf8AJU/GX/Yavf8A0e9AH6U0AFABQAUAFABQAUAFABQAUAFABQAUAFABQAUAFABQAUAFABQAUAFABQAUAFABQAUAFABQAUAFABQAUAFABQAUAFABQAUAFABQAUAFABQAUAFABQAUAFABQAUAFABQAUAFABQAUAFABQAUABpNXAY3pUytbl7iWjOV1nT/ALLIZUU+S55/2a/Pc7yiWFqe0pbM9XDV0/dZmY796+dhOV7SO5NMQirasyVuNxSHcMYpoaY00XKGmi4hpFW7T3GpE1jcNaXccy9VPI9R3FdWBrPCVozXcxr0/aRsjvbeRZY1kjOUZQQfWv1KjWjWgpwejPBnFxlZko61otNBdRaYwoAKAEbpSavoBla3BuhWZeqcfhXyPFGBdelCpDpodOHqWdjCxzXwUn7z8tD0mxCKEwTIyKdx3GEVaY0xjCncdxhFCYCEVVy7kZHNNMaYwjNO47kbLVJgEcTSypHH99yFH1rWjSdaooLqKU+SLbPRLOBba2jhj+6gCiv1TC0VQpRguh89OTnJssDrW0LiFqgCgAoARu1JiZk+INQXTtPeXP71vlQeprzsxxkcFQc1v0N6FJ1aitsebuWZ2LElick+pNfnkm5S5mfTcqikokZFIQ3FNAJii4XEIp3C40ii4xpFNMENNO4xKaYxDTuA007jQlFxiHpVJjQw0yhuKAEIpXGFNMBpFO4CU7gIaLgNI4ppgNNACHp/h1otdpCZ0Xg3w+2sXwlmUCyhILnHDn+6Pp/nrXq5bhJYir7+yOLMsZGEORbnrkKhVCqoVQMAelfYqyfKtkfM3b1JKsAoAKACgAoAKACgAoAKACgAoAKACgAoAKACgAoAKACgAoAKACgAoAKACgAoAKACgAoAKACgAoAKACgAoAKACgAoAKACgAoAKACgAoAKACgAoAKACgAoAKACgAoAKACgAoAKAPzW+LH/ACVPxl/2Gr3/ANHvQB+lNABQAUAFABQAUAFABQAUAFABQAUAFABQAUAFABQAUAFABQAUAFABQAUAFABQAUAFABQAUAFABQAUAFABQAUAFABQAUAFABQAUAFABQAUAFABQAUAFABQAUAFABQAUAFABQAUAFABQAUAFABQAhFAEc8KyxlHG5T2Nc9fDxrU+SQ4ycHdHIajZtaTlScxtyjeor80zfASwlbVaHr0KymtSoR7V5cr3utjoa1uNNOwhpoS1KiNNUUIKadgENK2txMQ9eO1NJdRxdjo/Ct78rWjkBl5XPpX2fDWYJw+r1N+h5WMo8r5kdEhya+uW9nucCdx9UMKACgAoAiljEkbIejcGuWvQValOnLqNOzucxcRGGZkPUGvybFYaWHqul0PVpyUo3RCa5ZKUZKL2LVxpFXKylZFPYYwpDRGwqxjcUxoaRTGRsKZaGEVS6jYwinF3kkxR1Nfwra+dfmVvuRDj619Fw5hVWxDqS2j+d0cWNqWjyo7AAV9/wCZ5S0FA+bNMVtbi0DA0CYmalO6uMa5+XmpUrR5p9A1ex534i1D+0L9ihJgj+VPf3/HFfAZti5V8S1f3T3sDRVOF+pkkV5O0rLY6hpFUA0jNOxSGlaZQ3FCEIRTC40ihDTGEUxjcU0Ahp3AMU0xjSKAuNIpoaY3vTuVcTHNPcLiHpRYLjMc07DTEoKEoAQimIQ007bjQ0rngU+VvVbCs3sXtE0qbVr5LeAYB+Z5McIvqfft+NdWGw0sRO0djLEYiFGnfqexaTYw6bZxW1su2JBge/qa+3w9FUaSgj5OpVlVneReHXrW0dieotUAUAFABQAUAFABQAUAFABQAUAFABQAUAFABQAUAFABQAUAFABQAUAFABQAUAFABQAUAFABQAUAFABQAUAFABQAUAFABQAUAFABQAUAFABQAUAFABQAUAFABQAUAFABQAUAFAH5rfFj/kqfjL/sNXv/AKPegD9KaACgAoAKACgAoAKACgAoAKACgAoAKACgAoAKACgAoAKACgAoAKACgAoAKACgAoAKACgAoAKACgAoAKACgAoAKACgAoAKACgAoAKACgAoAKACgAoAKACgAoAKACgAoAKACgAoAKACgAoAKACgAoARulKTsgK17bJdQNHIOvQ+nvXDj8FDGUnTlvYqnNxd0cleWr2sxSQf7p/vD1r8yxWBq4J+xqI9mlWVSNiuRXJsaDSKpMaG4pjuJ1NA0xGHFFxjQOaL307iY+GR4JVkiOHU5BrajUlhZqvHeIpwVSNmd1p1wl1bpNH0Ycj0PcfhX6lgsTHF0o1o7vc8CpBwlYtV2EhQAUABpNXAae1D1E0ZOtwZRZlHA4NfGcT4BuKrU+/+Z14apZ2Zjn/J/nXw8pue61R6ClcaaF8NwuNIoTGmRkU7juMIq0xpjGFO47jcUJgNYVS1LvoMIpr4HIa2Ov8ADlv5NgjH70uZD+PT9MV+j8O4X6vg03vLU8TEVOadjWr3TAKACgANDAac9qS0dhSMXxRfm0sDHF/r5OB7Dua8TOscqNFwW7OvCUeeWpwRA4A7cD6V8A5OUddz31aMbDcVV9EJbCEUJgNIqkxoYaZQ3FACGmMb1oQCEU7gNIp3BDMUDENNDEIp3AaRTuMbRcLiHmqixpiEVRQ0igBpFAXG45oBMWi5Q1hj39qaXNoK9iWxtJr68jtrdS8khwP8T9K3p0qk5qlDYylXVCLbPXfDmjxaNYrFEA0rcyv3Zq+2wWDhhIJLc+XxNeVabl0NcCu1u5ihwFC0FYKYwoAKACgAoAKACgAoAKACgAoAKACgAoAKACgAoAKACgAoAKACgAoAKACgAoAKACgAoAKACgAoAKACgAoAKACgAoAKACgAoAKACgAoAKACgAoAKACgAoAKACgAoAKACgAoAKAPzW+LH/JU/GX/AGGr3/0e9AH6U0AFABQAUAFABQAUAFABQAUAFABQAUAFABQAUAFABQAUAFABQAUAFABQAUAFABQAUAFABQAUAFABQAUAFABQAUAFABQAUAFABQAUAFABQAUAFABQAUAFABQAUAFABQAUAFABQAUAFABQAUAFABQAUAIRU8utwZU1Czju4dj8EdG9K83M8vp42nyy0d9H/n5GtKq6bujk7m3ktZTHICGHf196/N8bg54Sq6VZPy7P0PWo1Y1I3ZCc965EmnqaK9xpFVcqw36UJgkJz3pjEx3otcBDRJJy5mEfdNXw9ffZbkxSH93KePY19JkGYuhV9lL4ZfmcWLoKS5kdcDk+1ffJ3Vzydb2FHWmncfUWmAGgBCKmwEc0avGVb7p4NZVqMKlNwnsNOzuczcQtDM0bDGOnvX5RjcNLBYmVOotHselRlzK5ERXByOLdzVDSKZSGmhDYxhxTGiNhVjG45pjQjCrg7SGEMXmzxxjq7bfzqsLT9s4Ue7FWm4R0O5gUIqqvRRgfSv12nBU7QXRHhS1dyWtRBQAUABpMBjkgcYzUuVnrsB59rl39s1GVwxMa/In0Hf8AE1+cZti3icS7fCnoe3hKfJG5nEV57d5qR1vUaRS3bY0xhFNDGkUwGkU0wGkVRSGkUFDcYpoQhphcaeaBpjSKEO43FUFxCKAG0xiEUAN6mmhoQiquO4hFNMLjTTGNIpN2Fr0G9KbThpI0k0l5j7eCS6nSGBGkkc4VQOtaU6c6kvZw3/QylOMI80uh6r4V0CLSLYF8Nduv7x/6D2r7TLcBHCwu9z5vGYuWIlbob6gA16e+pxrTQUimDFApW1GFMAoAKACgAoAKACgAoAKACgAoAKACgAoAKACgAoAKACgAoAKACgAoAKACgAoAKACgAoAKACgAoAKACgAoAKACgAoAKACgAoAKACgAoAKACgAoAKACgAoAKACgAoAKACgAoAKAPzW+LH/JU/GX/Yavf/R70AfpTQAUAFABQAUAFABQAUAFABQAUAFABQAUAFABQAUAFABQAUAFABQAUAFABQAUAFABQAUAFABQAUAFABQAUAFABQAUAFABQAUAFABQAUAFABQAUAFABQAUAFABQAUAFABQAUAFABQAUAFABQAUAFABQAUAI3Sk9tQZTvrGK8h2OMMPusOorzMxy2nj6dp6NbGlOo4M5S5tpbaYpMMHsezD1Ffm+KwVbDzcaqtb8T16dZVI6EPWuFpo0uIRitFsUhvei4xD7UJgMOe9VcYYye9OL63tYTV1Y63QL8XUAikP75Bg/wC0PWv0HIMy+t0fZ1PjW/mePiaDhK5rjrX0ETlFqgCgAoAR+nPSona2uwGbq1t5kQkQfMnb2r5bifLniqPt6fxx/I3pVLMxMYA9+/rXwTlzJNnop3VxpqRpidaHoUNIpJgmRsKdx3GEVaY0xuKGyky/oEHmagGP3YwT+NfQcO4b22IT7anJi52R1a1+j7s8sdTAKACgBG6Un3AyfEN4bTTXK/6yT5V+p/8ArZrxc6xv1XCylH4nodGEpOpJHCEY6HjoK/PLNWT36nuJcug3nvTGJ3ovYaEIppjGEU7juNIppgNIqkxjSKdwuNIoTGmNxTKEIoAaaaYrjTzVXGmMIoGNximMDRcBDTTAaRTuMbjFO4ISi4xGPFUrPcOblHQwSXEqRQI0krnCqvUn2q4QqV5KmtyOeFNc0j07wp4ei0iISS4kvXHzPjhfYf55r7XL8tjhYJy+I+dxeMlWlZbHRAAGvUvc40rCgc5phbW4tAwoAKACgAoAKACgAoAKACgAoAKACgAoAKACgAoAKACgAoAKACgAoAKACgAoAKACgAoAKACgAoAKACgAoAKACgAoAKACgAoAKACgAoAKACgAoAKACgAoAKACgAoAKACgAoAKACgAoA/Nb4sf8lT8Zf8AYavf/R70AfpTQAUAFABQAUAFABQAUAFABQAUAFABQAUAFABQAUAFABQAUAFABQAUAFABQAUAFABQAUAFABQAUAFABQAUAFABQAUAFABQAUAFABQAUAFABQAUAFABQAUAFABQAUAFABQAUAFABQAUAFABQAUAFABQAUAFDAQjilYGrla+tI7qHZIPofSvOzHL6eNp8s9+ljSnUdN3Ryl5ZvaTFW5U9G7NX5zmOBqYGpyVdfPoerRqxmtStXBaT+E2u+gmKPdW+47sQjApq47jSKoLjcVLt1DcmtZpLadJYsllPT+8PSurD4iph6sakNkRWh7RWZ2tncpdQJLEQUYV+o4TExxNJVYM8OcHGTRODXUnfYhDgaYXCgYGkwGsBjB5qZQTi4vUFuc7f25gnbH3G5Ffl2c5f9Srtr4ZP8eyPQo1OZWKp+teRJSjLXY3G96Ha1nuUmJikNDWFCGxjCmNDCOeenerSvoM3PDUWIpZT1Y4/Kvt+FKKdGWIe7djzsZK7sbgr7Drc4kLTGFABQA1+gpPVWA43xTcme+EQOViGCP9rv8A0r4HiLE+1xUYJ6R39T1sFT5VzGJjnpXz6e/Nv+h3N82ohFMQzFNIaEIplCUwGkUx3GEUDWo3FNDsNYVSGkMIpjExQA0imMbimA0ii4XG4p3HcQrTC40jFNDuIaYXG96enUOawhH1xS1vZ7lavUmsbWe9uUt7aPzJG6DsB6n2roo0KlWfs47/AKGdSvCjHmkeleG/D0Okwh2Ae7YfNJ/Qegr7TLsuhhYXer7vc+dxeKlXemxvqMV6e7uciVkOIzTBq4AUra3GFMAoAKACgAoAKACgAoAKACgAoAKACgAoAKACgAoAKACgAoAKACgAoAKACgAoAKACgAoAKACgAoAKACgAoAKACgAoAKACgAoAKACgAoAKACgAoAKACgAoAKACgAoAKACgAoAKACgAoA/Nb4sf8lT8Zf8AYavf/R70AfpTQAUAFABQAUAFABQAUAFABQAUAFABQAUAFABQAUAFABQAUAFABQAUAFABQAUAFABQAUAFABQAUAFABQAUAFABQAUAFABQAUAFABQAUAFABQAUAFABQAUAFABQAUAFABQAUAFABQAUAFABQAUAFABQAUAFABQAjUAQ3MCTxlJFyDXJiMNSrQ5KivcqM3F3RzOo6bJaMWALw54buK/P8zyWrg5OdLWL/DyPTo4lSVmZ5/zivCjD3veWp1KSYhqnKz5QEouA00t9x2G+tOcrvkHBmlot+bOfa/8AqXPP+yfWvoMmzR4Or7GXwtf5HJiaCkro61CDyK/QoSjypx2Z5NmmSVoAUABoAbipi9LiaK97AtxCVPXsa8zNMDDHUJRe61Xqa0puDOdZSDhhhl4YelflcoVIN06q1R6EJcyGkVMkubmLENA0NNJlDGFCY0yNhgE0SlZXKudTo8fl2MYx1yf1r9TyPD+xwkfPU8etK8i+K9hMyCmAUAFAEV1KsMDyP91QWP0HNY4isqNOVR9BxV3Y88mdpZGdydzEk1+TV63tq8pPaR71KPLFIjIpTd5ryVjUaRQhXGkVSY0xpFMY3FF7DGnmmmAmKdxoaRQmO40iqTGhp4oKGEU0A0iqAbigBDTGNpAIRVJgNIqgQyi4w7envjNVFOVxqPMXNJ0q51S48q2Q7QfmdvuoPf39q6cHhamLly04+73McRi4Uo2PS9C0e20mDy4F3SEfPKerGvuMHgKeDhZavufOVsRKtLyNQCu69zGyQooSsMWmAUAFABQAUAFABQAUAFABQAUAFABQAUAFABQAUAFABQAUAFABQAUAFABQAUAFABQAUAFABQAUAFABQAUAFABQAUAFABQAUAFABQAUAFABQAUAFABQAUAFABQAUAFABQAUAFABQAUAFABQB+a3xY/5Kn4y/wCw1e/+j3oA/SmgAoAKACgAoAKACgAoAKACgAoAKACgAoAKACgAoAKACgAoAKACgAoAKACgAoAKACgAoAKACgAoAKACgAoAKACgAoAKACgAoAKACgAoAKACgAoAKACgAoAKACgAoAKACgAoAKACgAoAKACgAoAKACgAoAKACgAoYBilYCOVA6YYZU9RWdWEZwcZLQabWxgajpGzL2v3epTv+FfFZrw5KT9rhW/R/wDDHbSxLWjMYggkEEEdQeo+tfJunWT5ZKzX5HoxlGWo3FJyi9I7/gDuIRRbo9wTGkUdLD2EPQ0J2SQtjoPD2o5xaTHDL90nv7V9vkGZy5fY1jzsVQ5XzI6EetfXaLU4ELmndMYUAGKErKwDWHFLZCZk6tbE/v0HP8Q/rXx3EmW87+sUVqtzqo1LaGWc5PpXxCS3udu+o2h2AaRSKQhFIpDHHyn8qajzaDbsmdbarthQeigfpX67gNMLT9Dxp/ET967UiQpgBoExM1N7oZkeJ5vL00oDzIQv+fyrwOI8Q6WGUY9Xb8GdWEpqc9TkCK/PtlY9hO2g0immO40imGg3FACEUBcYRVRGmNIqirid6BjSKAGsKpDQymVcbjBzTE2IelMQwinYpDSKChuMGmgEPNJXFcaRV7PUaVxuOtPXcb1+A2/D/hybVGWaXdFaZ+/jDP8AT/GvYwGUvFPnqXUfxv29DgxGN9muVfEeiafZQ2NusNtGEjHbufqa+yw9CFGHLBWR4dScpu7LQFbpakai4phYKVhhTAKACgAoAKACgAoAKACgAoAKACgAoAKACgAoAKACgAoAKACgAoAKACgAoAKACgAoAKACgAoAKACgAoAKACgAoAKACgAoAKACgAoAKACgAoAKACgAoAKACgAoAKACgAoAKACgAoAKACgAoA/Nb4sf8lT8Zf8AYavf/R70AfpTQAUAFABQAUAFABQAUAFABQAUAFABQAUAFABQAUAFABQAUAFABQAUAFABQAUAFABQAUAFABQAUAFABQAUAFABQAUAFABQAUAFABQAUAFABQAUAFABQAUAFABQAUAFABQAUAFABQAUAFABQAUAFABQAUAFABQAUAFACNSclHcBDyKSutWK+pn6jpsVyu4Yjl7N/jXhZnklPGrmjpI3p1nBnNXNtLbSbJVI9D2b6V8Di8BWwc3GrHTuerSrxkiH9PauRSvstC1q7iEVQxtFrha4mSGBUkMOQR1FOFecZKa6DaU1Y63RdQF3EVfAmQYYdj7iv0fJ8zjiqSjJ6njV6Lg7mlXu2XQ59RwoTuhhTADSYDWXIwelZyhGUXGSvcNbnPahb/Zpcr/q26H09q/N85yt4Os+T4X/AFY76VTmVitXhSTRsmNpFCGgaBRudF9WFb4Vc1eEe7FP4WdYowBX69Rjy01HsePJ6j61GFMANDAQ1O2gHMeKZN1xFED90EkfWvh+J8ReqqXzPRwMftGEwr5W56IwimgGkVVxiGi4CGmMaaEA0incLjcU7jTEIppjGkVVxjcUJhcawp3GMIppgNIqrjGkUXC40ik9QuN6e3vVSlyI0Tsh0UUk0qxQxs8jcBVGcVpSo1K1rIynUitW9jsdB8KJGRNqW2R+qxDkD6nvX1mAyRRSqV9zysTmLn7tM61VxgAAADtxX0kYpKyPLfmSCqGgoAKACgAoAKACgAoAKACgAoAKACgAoAKACgAoAKACgAoAKACgAoAKACgAoAKACgAoAKACgAoAKACgAoAKACgAoAKACgAoAKACgAoAKACgAoAKACgAoAKACgAoAKACgAoAKACgAoAKACgAoAKACgAoA/Nb4sf8lT8Zf9hq9/8AR70AfpTQAUAFABQAUAFABQAUAFABQAUAFABQAUAFABQAUAFABQAUAFABQAUAFABQAUAFABQAUAFABQAUAFABQAUAFABQAUAFABQAUAFABQAUAFABQAUAFABQAUAFABQAUAFABQAUAFABQAUAFABQAUAFABQAUAFABQAUAFABSauAYoARhxQ0JoiniSeMpKgZT1zXNXw1PEx5ZxuVGTizA1DR2jJe2yyj+HuB7V8ZmXD84Xlh/wAf003PRo4rpMx2BBIYYI9eo+vpXy0rqfI00/61OxTjLYSh8sXZ6+fQrVCEUpSS1aFH3R1vK9vMskWdy/rXRhcVKhU9rBsVSEaq1Ow068S8gDpgMOGX+6a/TctxsMZRUk9TxK0HCVkXF616EezIFqgA0AIRStYCG7gWeEo/ANefj8vhjKXs27O9166lwnyu5zs8bQymNx8w/UV+Y4vDzw9V0qq1X4/8A76clNXGda5JRs7rYsaRSKH2q5uoh/tj+ddmXK+Mpf4iJv3WdQtfry3Z5W+o5Tk0LcFqhaYwpMBj0nq7COP1t9+qTH0wv5D/AOvX5nntV1sdPy0PYwqtC5QNeTsdNxpFFxpjcU7jGsKaGhpqhjcUCGkUANIpoaGmqSKEpgIaAGEU7jQ0imh3G4qrN7BcQihyT0h/wAsxpH1HuegocXFe9uHw6s1NK0C71AB9phhP/LRhyfoP/wBVexg8prYq0mtDmr42EFZbnbaRpNtpse23T5iPmc9Wr7LCYCnho2jueJWrzqvXY0gozmu5djIdipsMKaQCAc0xWFoGFABQAUAFABQAUAFABQAUAFABQAUAFABQAUAFABQAUAFABQAUAFABQAUAFABQAUAFABQAUAFABQAUAFABQAUAFABQAUAFABQAUAFABQAUAFABQAUAFABQAUAFABQAUAFABQAUAFABQAUAFABQB+a3xY/5Kn4y/wCw1e/+j3oA/SmgAoAKACgAoAKACgAoAKACgAoAKACgAoAKACgAoAKACgAoAKACgAoAKACgAoAKACgAoAKACgAoAKACgAoAKACgAoAKACgAoAKACgAoAKACgAoAKACgAoAKACgAoAKACgAoAKACgAoAKACgAoAKACgAoAKACgAoAKACgAoADQAlR8LAQ8iqbTWotyne6fBdjLrh+zLwa8rGZXQxsXdWfc2hVlB6HP3ulz22WC+Yg7r2+tfE47h/EYN80NYnfTxak7SKBGe+foK8Wb9i7JXZ2RakhuOalONRpt2aCyRPY3b2c4lQEjuo7iu7BY+pg8QqlN6dV5GNaipo6+yuEuYlljYFWGRX6jhMVTxdNVabvf8AA8eUHFlmukkKACgBG6Um7AUtQtBcREr/AKwdCa8LO8pWOp88Faa/HyNKVTlZgnIOG4YdR3H1r84lCUG4S0a6dj0FK6ErNoaZLZ/8fUP++P512ZYv9to/4v0YqnwM6ZelfrnU8pbAtC3YR2HUxhSYDX6VMpWVw6nEXZ33Uzc8yMf1/wDrV+TYyftMTUl5ntUdKaIa5jS4080DixpFCZYw1VwG4ouAhFNMaGkVQxpFCAaRTuFxpFNMdxuKYCd6BjaYXGnk4p2uNW6lqw025v2228ZKd3PCiu/D4XEYp8tKOhjVxcKeh1WleGra1KyXP7+frk9AfYV9ZgMlpYZc9bWR5VXGSlojoNoGMACvdhHlVo7HE48zuPA5qrdR+QtMAoAKACgAoAKACgAoAKACgAoAKACgAoAKACgAoAKACgAoAKACgAoAKACgAoAKACgAoAKACgAoAKACgAoAKACgAoAKACgAoAKACgAoAKACgAoAKACgAoAKACgAoAKACgAoAKACgAoAKACgAoAKACgAoAKACgD81vix/wAlT8Zf9hq9/wDR70AfpTQAUAFABQAUAFABQAUAFABQAUAFABQAUAFABQAUAFABQAUAFABQAUAFABQAUAFABQAUAFABQAUAFABQAUAFABQAUAFABQAUAFABQAUAFABQAUAFABQAUAFABQAUAFABQAUAFABQAUAFABQAUAFABQAUAFABQAUAFABQAUABGaTVwACmIKTGIRmhJCaEKik4p7jM690q3uMsB5ch7rxn8K8TH5FRxPvLRm1PESh1MW60q5gyQolT1UdPwr5DG5DiaC5lG68t/wDhvkd1LERk/eM0jsRyPbH6V40/+fb0Z1pqS91l3TL57GYkAvE33h3H0r18qzKpl8/e+Dqjmr4dzR1kEyyxiRCCjdCK/RsPWVamqkbWZ5U/ddmSg5Nbki0xgaAEIqXpohWMvVLPd++iGXHVfWvks+yeNSLxNJWa3S2fn6nVRq20ZkD/APVXwzUlq16f8E61rqSQEi4iI7OP5115e+XFUm9+b/Mmb91o6UHBIr9ai7ts8zyHLTi7jtYWqADSYDJOENYV/wCFL0HHc4cjJznrX5JN805z7s9qnpBIaRUlDSKBxGkUJF3G4phcaRQIaRimhoa1NMob3qrN7AIRTs1uwvYaRS54x3QJpjceuKpWe0rD0EI454HrUuSjuF1HVlmz0y7vCPIiYqf4j8o/PvXo4XLcVjH+7TS7szq4inFbnSab4ZgiIe7PnPj7oGFH59a+rwfD1Ok06ur/AA/zPMq42clZbHQRxoihUUKoGABxivoacI01aKOKTb1Y/FVYBCtBPKOAxRYoKYBQAUAFABQAUAFABQAUAFABQAUAFABQAUAFABQAUAFABQAUAFABQAUAFABQAUAFABQAUAFABQAUAFABQAUAFABQAUAFABQAUAFABQAUAFABQAUAFABQAUAFABQAUAFABQAUAFABQAUAFABQAUAFABQAUAFAH5rfFj/kqfjL/sNXv/o96AP0poAKACgAoAKACgAoAKACgAoAKACgAoAKACgAoAKACgAoAKACgAoAKACgAoAKACgAoAKACgAoAKACgAoAKACgAoAKACgAoAKACgAoAKACgAoAKACgAoAKACgAoAKACgAoAKACgAoAKACgAoAKACgAoAKACgAoAKACgAoAKACgAoAKACgANADSKj3mLlQUO63HYqXdhb3P+tQbj3HWvOxmVYbGK1WKv3W5pGvKGxj3ehODm3kDgdA3Wvk8XwnWg74ad49nud1LHdJENjc3Gmy7biNhEeuR096WAxWJyep7OtFuD79Aq0qdaPMtzp4XDgMpBUjIIr7ulONRKad7nmtNOxJWwBQAUAIw4qZK4mYupWexjLEPlP3h6V8HxBlDjP6xRV4vc7aFVWszPVgrqfQg/rXzWHbWIhUfQ2lqmzqEORX69RknCL7nmtajhVx0uAtUAUmBHN/q2+h/lWGI/gz9GOO5xIHA+g/lX4/ff1Z7cPgENO4xvehMBKY7iEUIdxuKdwGsKLlRIyKdyhMU3ZrUTdhMc9/wpqpTWm5St1ESNpG2opZj2A5rWlTdV2pxuyZSpx1NSz0C7nwZMQr/ALXJ/r/OvcwmQYitrJJI4qmLUfhZuWWg2duwLgzOP4n5r6TDZHhcO1KSvI454mU9DXC4GFAAFe0kkrW0OVttjlHpRG32dh2FqwCgAoAKACgAoAKACgAoAKACgAoAKACgAoAKACgAoAKACgAoAKACgAoAKACgAoAKACgAoAKACgAoAKACgAoAKACgAoAKACgAoAKACgAoAKACgAoAKACgAoAKACgAoAKACgAoAKACgAoAKACgAoAKACgAoAKACgAoAKACgD81vix/yVPxl/2Gr3/0e9AH6U0AFABQAUAFABQAUAFABQAUAFABQAUAFABQAUAFABQAUAFABQAUAFABQAUAFABQAUAFABQAUAFABQAUAFABQAUAFABQAUAFABQAUAFABQAUAFABQAUAFABQAUAFABQAUAFABQAUAFABQAUAFABQAUAFABQAUAFABQAUAFABQAUAFABQAGgBMUmKwAe9JLXcYYosAFc0WQmrjHjVlwwBHoazq0YVo8tVXGnYSCGOHKxLtHpRRpRorkhsNtslrYQUAFABQAxgGGD0NZTjGrBxlsxowdQszbsXQExn07V+e5vlTwjdaGy/A7KdW65WbNsxaFGGOVFfb4Cq62GpTj2OSdkycHmu/qRcWmMDQAyQZRq5sSr0ZLyHHc4zGAB6V+RVYSjUlY9mD91DSKi7XQpMaRTvfZDuNxRr1BDSKcdR2QlXZ9rD06jDjvRGKk7KWoXSJo7O4m/1ULuPXHFddHA4itpCk3+REsRCO5dh0G6cfvCkftkk/lXsUOGsTe9Vq3ZbnPPGxXwmla+H7ZAPOLSn8h+Ve5huHMNTV53v/Xkc08ZOWisjWt7eGAbYI1Qewr2qGHo0nanGxzSk5bsmxXUkkQwxTFYXFJlBTAKACgAoAKACgAoAKACgAoAKACgAoAKACgAoAKACgAoAKACgAoAKACgAoAKACgAoAKACgAoAKACgAoAKACgAoAKACgAoAKACgAoAKACgAoAKACgAoAKACgAoAKACgAoAKACgAoAKACgAoAKACgAoAKACgAoAKACgAoAKACgD81vix/yVPxl/2Gr3/wBHvQB+lNABQAUAFABQAUAFABQAUAFABQAUAFABQAUAFABQAUAFABQAUAFABQAUAFABQAUAFABQAUAFABQAUAFABQAUAFABQAUAFABQAUAFABQAUAFABQAUAFABQAUAFABQAUAFABQAUAFABQAUAFABQAUAFABQAUAFABQAUAFABQAUAFABQAUAFABQAUAFABQAUAFABQAUAFABQAh4qPhAZMqyRlSMg8VlXoxxFOVOXUadhLaIRRKgOQO9Tg8OsLSVJA3ckHWt46aCFqwA1MgGSDIqa0eanJeQ1uco8L+c6pG5wSOFzX5LicJifbS5Y31PTp1VazEFtO3SGT/vg0oZfi5f8u2X7aC6jl066bpC34nFdVLJMZVdqceV+YniILqSro102N3lr9TXo0eGse/iaMpYqJOuhHPzz8eirXbHhSdX3a87LyM/rT6FiPQrVSNxkb8RXoUOF8JR3bkZSxU2XYbG2g/1UCA+uOa9enlmGpvSmjGVab6loCu2MVBWSsTuGBn3qk09ibW1FxSdx2AUJoYtUAUAFABQAUAFABQAUAFABQAUAFABQAUAFABQAUAFABQAUAFABQAUAFABQAUAFABQAUAFABQAUAFABQAUAFABQAUAFABQAUAFABQAUAFABQAUAFABQAUAFABQAUAFABQAUAFABQAUAFABQAUAFABQAUAFABQAUAFABQAUAFABQAUAFAH5rfFj/kqfjL/sNXv/AKPegD9KaACgAoAKACgAoAKACgAoAKACgAoAKACgAoAKACgAoAKACgAoAKACgAoAKACgAoAKACgAoAKACgAoAKACgAoAKACgAoAKACgAoAKACgAoAKACgAoAKACgAoAKACgAoAKACgAoAKACgAoAKACgAoAKACgAoAKACgAoAKACgAoAKACgAoAKACgAoAKACgAoAKACgAoAKAA0AFABQwDFKwABQlYApgBoATFTYBNozUQpRjeyG2LtFaWsINooavuAbRS5UKwm0d6HFPcLDqdrbDDFCQBilYAp2AMUwCgAoAKACgAoAKACgAoAKACgAoAKACgAoAKACgAoAKACgAoAKACgAoAKACgAoAKACgAoAKACgAoAKACgAoAKACgAoAKACgAoAKACgAoAKACgAoAKACgAoAKACgAoAKACgAoAKACgAoAKACgAoAKACgAoAKACgAoAKACgAoAKACgAoAKACgD81vix/wAlT8Zf9hq9/wDR70AfpTQAUAFABQAUAFABQAUAFABQAUAFABQAUAFABQAUAFABQAUAFABQAUAFABQAUAFABQAUAFABQAUAFABQAUAFABQAUAFABQAUAFABQAUAFABQAUAFABQAUAFABQAUAFABQAUAFABQAUAFABQAUAFABQAUAFABQAUAFABQAUAFABQAUAFABQAUAFABQAUAFABQAUAFABQAUAFABQAUAFABQAUAFABQAUAFABQAUAFABQAUAFABQAUAFABQAUAFABQAUAFABQAUAFABQAUAFABQAUAFABQAUAFABQAUAFABQAUAFABQAUAFABQAUAFABQAUAFABQAUAFABQAUAFABQAUAFABQAUAFABQAUAFABQAUAFABQAUAFABQAUAFABQAUAFABQAUAFABQAUAFABQAUAFABQAUAFABQAUAfmt8WP+Sp+Mv+w1e/+j3oA/SmgAoAKACgAoAKACgAoAKACgAoAKACgAoAKACgAoAKACgAoAKACgAoAKACgAoAKACgAoAKACgAoAKACgAoAKACgAoAKACgAoAKACgAoAKACgAoAKACgAoAKACgAoAKACgAoAKACgAoAKACgAoAKACgAoAKACgAoAKACgAoAKACgAoAKACgAoAKACgAoAKACgAoAKACgAoAKACgAoAKACgAoAKACgAoAKACgAoAKACgAoAKACgAoAKACgAoAKACgAoAKACgAoAKACgAoAKACgAoAKACgAoAKACgAoAKACgAoAKACgAoAKACgAoAKACgAoAKACgAoAKACgAoAKACgAoAKACgAoAKACgAoAKACgAoAKACgAoAKACgAoAKACgAoAKACgAoAKACgAoAKACgAoAKACgAoAKACgAoA/Nb4sf8lT8Zf9hq9/8AR70AfpTQAUAFABQAUAFABQAUAFABQAUAFABQAUAFABQAUAFABQAUAFABQAUAFABQAUAFABQAUAFABQAUAFABQAUAFABQAUAFABQAUAFABQAUAFABQAUAFABQAUAFABQAUAFABQAUAFABQAUAFABQAUAFABQAUAFABQA1+lG4npqefa/4z1DTtZurSGG0aOJtoLqxPQejV83i83rUK8qcVHQ9vD5dSq01Nt6lD/hYGqf8+9j/AN8P/wDFVz/27if5Y/j/AJm39k0e7/D/ACD/AIWBqn/PvY/98P8A/FUf27if5Y/j/mH9k0e7/D/IP+Fgap/z72P/AHw//wAVR/buJ/lj+P8AmH9k0e7/AA/yD/hYGqf8+9j/AN8P/wDFUf27if5Y/j/mH9k0e7/D/IP+Fgap/wA+9j/3w/8A8VR/buJ/lj+P+Yf2TR7v8P8AIP8AhYGqf8+9j/3w/wD8VR/buJ/lj+P+Yf2TR7v8P8g/4WBqn/PvY/8AfD//ABVH9u4n+WP4/wCYf2TR7v8AD/Ils/HepT3lvE8NkEeRVJCNnBOP71aUs7xE6kYtR1fn/mRUyqlGDkm9PT/I9LXrzX06PCEm+4SKJOyuFk9GeYHx/qoY4gssZ4yj/wDxVfKvPMQna0fx/wAz6D+yaL1bZe0PxrqN/q9payw2gjlcKxRHyB7cmtsLnFetVjTklZ9r/wCZlXyylTpymm9PT/I9CWvpTw0+46gYUAFABQAGgDnfGetXGiWMM9okLs8mwiQEjGCexHpXm5njJ4SmpU0r36nbgcNHEScZHH/8LA1T/n3scd/kf/4qvF/t3EdVH8f8z0/7Jo93+H+R13gnWrnW7Sea6SJGjfaBGCAeAe5NexleMni4OU0tPX/M83H4WGGmowbs/T/I6SvUOERulAnqcr418QXWhG0+yRwP5u7d5oJ6Y6YI9a8jM8dUwnKqaWvc9HAYSGJ5ubocx/wsDVP+fex/74f/AOKryv7dxP8ALH8f8z0P7Jo93+H+Qf8ACwNU/wCfex/74f8A+Ko/t3E/yx/H/MP7Jo93+H+Qf8LA1T/n3sf++H/+Ko/t3E/yx/H/ADD+yaPd/h/kH/CwNU/597H/AL4f/wCKo/t3E/yx/H/MP7Jo93+H+RPYeOtSub62geGzCSSKhKo2eTj+9WlHOsRUqRg1HV+f+ZnVyulGDkm9PT/I9JXrX06PDHUwIrpzHbyOMZVSwz7CoqPli5LoVBc0kjzH/hP9VB/1Fl07o/8A8VXy39u4jtH8f8z3v7Jo2Wr/AK+Qv/CwNU/597H/AL4f/wCKo/t3E/yx/H/MP7Jo93+H+Qf8LA1T/n3sf++H/wDiqP7dxP8ALH8f8w/smj3f4f5B/wALA1X/AJ97H/vh/wD4qj+3cR/LH8f8w/smj3f4f5Cr8QdTzzb2R+iuP/Zqazyv1ivx/wAw/sij3f4f5FyD4hvx9p05T6lJT/LBraGfP7VP7n/wP1MZZOn8MvvN/TfGWk3zBGla2kPG2cY5+oyK9Chm2GrNJ3T8zjq5dWp6pXR0kbBgCpBBGQRzmvU0epw69R1MAoAKACgAoAKACgAoAKACgAoAKACgAoAKACgAoAKACgAoAKACgAoAKACgAoAKACgAoAKACgAoAKACgAoAKACgAoAKACgAoAKACgAoAKACgAoAKACgAoAKACgAoAKACgAoAKACgAoAKACgAoAKACgAoAKACgAoAKACgD81vix/yVPxl/2Gr3/0e9AH6U0AFABQAUAFABQAUAFABQAUAFABQAUAFABQAUAFABQAUAFABQAUAFABQAUAFABQAUAFABQAUAFABQAUAFABQAUAFABQAUAFABQAUAFABQAUAFABQAUAFABQAUAFABQAUAFABQAUAFABQAUAFABQAUAFABQAUADdKAPF/GX/ACM+of8AXT+gr4fMv96mfVYH/d4GLXEdQUAFABQAUAFABQBa0v8A5Cdp/wBdk/mK0o/xI+q/Mzrfw5ejPdx1r9BPjxJf9W30qZbMa3R4AfvGvzx7/wBeR9mtvuNbwl/yMunf9dhXZl/+8w9Tmxv+7z9D2oV9yfJi0DCgAoAKAA0MDivil/yCLX/rv/7Ka8PPf4MfX9GerlH8SXp+p5l6V8r0PfPSvhV/yDL3/rsP/QRX1GQ/w5+p4Wb/AMVeh3Fe8eQI/SkxM4zx/o19qxsjp8HneXu3fOq4zjHUivFzfCVcTyeyV7XPVy3EUqHMqjtc5H/hDtd72B/7/R//ABVeN/ZGL/k/Ff5np/2jhv5vwf8AkZGoWNzp101tex+XMoDFcg9fpXFWozoS5Kis/Vf5nVTqwqx5qe3zK3XgdTWWxaNyDwrrVxCksVluSRQ6nzUGQeR1b3r0IZXipxUoxun6f8Occsww8W4ylqi7pvhPW4dRtZZbLbGkqsx82PgA/U1tRyvFQqRlKGifdf5mVbMMO6ckpavyf+R6wvWvrz5sWmMgvv8Ajzn/ANxv5VnV+B+j/IqHxL1R4J3r89PsmFMAoAKACgAoADz7UgN/wz4mutHlWNiZrPPzRE52+6nt9K9HBZjUwrSbvE48XgoV1e1pHrWn3cF9bR3Fq4kikXKsK+wo1Y1YqcHoz5mdOVOXLNaos1qSFABQAUAFABQAUAFABQAUAFABQAUAFABQAUAFABQAUAFABQAUAFABQAUAFABQAUAFABQAUAFABQAUAFABQAUAFABQAUAFABQAUAFABQAUAFABQAUAFABQAUAFABQAUAFABQAUAFABQAUAFABQAUAFABQAUAFABQB+a3xY/wCSp+Mv+w1e/wDo96AP0poAKACgAoAKACgAoAKACgAoAKACgAoAKACgAoAKACgAoAKACgAoAKACgAoAKACgAoAKACgAoAKACgAoAKACgAoAKACgAoAKACgAoAKACgAoAKACgAoAKACgAoAKACgAoAKACgAoAKACgAoAKACgAoAKACgAoAG6UAeL+Mv+Rn1D/rp/QV8PmX+9TPqsD/u8DFriOo99tf8Aj3i/3B/Kv0Kn8KPjZ/EyWrJCgAoAKACgAoAKAGy/6tvpUy2Y1ujwA/eNfnj3/ryPs1t9xreEv+Rl07/rsK7Mv/3mHqc2N/3efoe1CvuT5MWgYUAFABQAGhgcV8Uv+QRa/wDXf/2U14ee/wAGPr+jPVyj+JL0/U8y9K+V6HvnpXwq/wCQZe/9dh/6CK+oyH+HP1PCzf8Air0O4r3jyAoAKAA0AeQ/EL/kaJ/9xP8A0EV8Zm/+9P0X5H0uWf7ujm/T615vU70e56B/yBLD/r3j/wDQRX3uE/gQ9F+R8hiP4s/Vl+ugyCgAoAgvv+POf/cb+VZ1fgfo/wAiofEvVHgnevz0+yZueCf+RosP94/+gmvQyv8A3qH9dDjx/wDu8z2Uda+1R8uLTAjmiSVcSIrg9QwyDSlFSVmhqTjqnYxtR8M6RfRkPZJG56PCAhH5cfnXDWy7DVU04JPukdNLHV6W0n8zzjxR4auNDlVgfOtHOEkxjB9COmfpXzOOy+eEd949/wDM97CY2OJVtn2/yMCvPOzfQ7f4aaq0V9Jp0jZimy0fsw6/nz+Ve5kuJcJ+xlszyc1oKUfardHpamvqDwBaYwoAKACgAoAKACgAoAKACgAoAKACgAoAKACgAoAKACgAoAKACgAoAKACgAoAKACgAoAKACgAoAKACgAoAKACgAoAKACgAoAKACgAoAKACgAoAKACgAoAKACgAoAKACgAoAKACgAoAKACgAoAKACgAoAKACgAoA/Nb4sf8lT8Zf8AYavf/R70AfpTQAUAFABQAUAFABQAUAFABQAUAFABQAUAFABQAUAFABQAUAFABQAUAFABQAUAFABQAUAFABQAUAFABQAUAFABQAUAFABQAUAFABQAUAFABQAUAFABQAUAFABQAUAFABQAUAFABQAUAFABQAUAFABQAUAFABQAN0oA8X8Zf8jPqH/XT+gr4fMv96mfVYH/AHeBi1xHUe+2v/HvF/uD+VfoVP4UfGz+JktWSFABQAUAFABQAUANl/1bfSplsxrdHgB+8a/PHv8A15H2a2+41vCX/Iy6d/12FdmX/wC8w9Tmxv8Au8/Q9qFfcnyYtAwoAKACgANDA4r4pf8AIItf+u//ALKa8PPf4MfX9GerlH8SXp+p5l6V8r0PfPSvhV/yDL3/AK7D/wBBFfUZD/Dn6nhZv/FXodxXvHkBQAUABoA8h+IX/I0T/wC4n/oIr4zN/wDen6L8j6XLP93Rzfp9a83qd6Pc9A/5Alh/17x/+givvcJ/Ah6L8j5DEfxZ+rL9dBkFABQBBff8ec/+438qzq/A/R/kVD4l6o8E71+en2TNzwT/AMjRYf7x/wDQTXoZX/vUP66HHj/93meyjrX2qPlxaYBQAUAZ+v2S6ho91bMAS6Hb/vDkfrXNi6KrUZQZth6rpVYzXQ8NxyeT6V8HtufXGl4clMGvae4OP36A/icV04KXLiIPzMMTHmoyXke3ivvD5JaC0AFABQAUAFABQAUAFABQAUAFABQAUAFABQAUAFABQAUAFABQAUAFABQAUAFABQAUAFABQAUAFABQAUAFABQAUAFABQAUAFABQAUAFABQAUAFABQAUAFABQAUAFABQAUAFABQAUAFABQAUAFABQAUAFABQAUAFAH5rfFj/kqfjL/sNXv/AKPegD9KaACgAoAKACgAoAKACgAoAKACgAoAKACgAoAKACgAoAKACgAoAKACgAoAKACgAoAKACgAoAKACgAoAKACgAoAKACgAoAKACgAoAKACgAoAKACgAoAKACgAoAKACgAoAKACgAoAKACgAoAKACgAoAKACgAoAKABulAHi/jL/kZ9Q/66f0FfD5l/vUz6rA/7vAxa4jqPfbX/j3i/wBwfyr9Cp/Cj42fxMlqyQoAKACgAoAKACgBsv8Aq2+lTLZjW6PAD941+ePf+vI+zW33Gt4S/wCRl07/AK7CuzL/APeYepzY3/d5+h7UK+5PkxaBhQAUAFAAaGBxXxS/5BFr/wBd/wD2U14ee/wY+v6M9XKP4kvT9TzL0r5Xoe+elfCr/kGXv/XYf+givqMh/hz9Tws3/ir0O4r3jyAoAKAA0AeQ/EL/AJGif/cT/wBBFfGZv/vT9F+R9Lln+7o5v0+teb1O9Huegf8AIEsP+veP/wBBFfe4T+BD0X5HyGI/iz9WX66DIKACgCC+/wCPOf8A3G/lWdX4H6P8iofEvVHgnevz0+yZueCf+RosP94/+gmvQyv/AHqH9dDjx/8Au8z2Uda+1R8uLTAKACgCO5IWCRj0Ck/pUTdoscd0eBN99iOhNfnr1bfqfZJaF7QUMmt2CjvOn/oQrowivXh6r8zLEO1GXoe5CvvEfIi0wCgAoAKACgAoAKACgAoAKACgAoAKACgAoAKACgAoAKACgAoAKACgAoAKACgAoAKACgAoAKACgAoAKACgAoAKACgAoAKACgAoAKACgAoAKACgAoAKACgAoAKACgAoAKACgAoAKACgAoAKACgAoAKACgAoAKACgD81vix/yVPxl/2Gr3/0e9AH6U0AFABQAUAFABQAUAFABQAUAFABQAUAFABQAUAFABQAUAFABQAUAFABQAUAFABQAUAFABQAUAFABQAUAFABQAUAFABQAUAFABQAUAFABQAUAFABQAUAFABQAUAFABQAUAFABQAUAFABQAUAFABQAUAFABQAUADdKAPF/GX/ACM+of8AXT+gr4fMv96mfVYH/d4GKOoPoc9cVxaLVnVa+h7Zb61pYhjB1KyBCAEGdOP1r7mGLoKKTnHbuj5OWGrXdoP7iT+29K/6Cdj/AN/0/wAar63h/wDn5H70T9WrfyP7mH9t6V/0E7H/AL/p/jR9bw//AD8j96D6tW/kf3MP7b0r/oJ2P/f9P8aPreH/AOfkfvQfVq38j+5h/belf9BOx/7/AKf40fW8P/z8j96D6tW/kf3MUazpbEKupWTEnAAnU5/WmsXh27Ka+9A8PWSu4P7mX168eldCMR1MBsv+rb6VMtmNbo8AP3jX549/68j7NbfcaHh25is9csri4fZFHICzYJwPwrowlSNKtGctkYYmEqlKUYq7Z6cvjHQupv8A/wAgyf8AxNfV/wBrYO/x/g/8j55ZdibfD+KF/wCEy0H/AJ/v/IMn/wATT/tbCfz/AIP/ACH/AGdif5fxX+Yf8JloP/P9/wCQZP8A4mj+1sJ/P+D/AMg/s7E/y/iv8w/4TLQf+f7/AMgyf/E0f2thP5/wf+Qf2dif5fxX+Yf8JloP/P8Af+QZP/iaP7Wwn8/4P/IP7OxP8v4r/MD4y0H/AJ/v/IMn/wATSebYT+f8H/kH9nYj+X8V/mcx4+13TtV06CKwuPNkSXcR5bLxg+oHrXlZtjaGIpxjSld37Pz8j0MuwtWhNuasrd1/mcKO1eB0PXPS/hV/yDL3/rsP/QRX1GQ/w5+p4Wb/AMVeh3Fe8eQFABQAGgDyH4hf8jRP/uJ/6CK+Mzf/AHp+i/I+lyz/AHdHN+n1rzep3o9z0D/kCWH/AF7x/wDoIr73CfwIei/I+QxH8Wfqy/XQZBQAUAQX3/HnP/uN/Ks6vwP0f5FQ+JeqPBO9fnp9kzc8E/8AI0WH+8f/AEE16GV/71D+uhx4/wD3eZ7KOtfao+XFpgFAAaAOe8b6munaFMAw8+YGONe/PWvOzPExoUH56HZgaDrVV5anjo5+n+f8K+KV0tT6k6f4eWJu/EMcpBMduvmEn16D+derk9F1MQpPpqefmdVQouK66HrS9a+wvc+aHUwCgAoAKACgAoAKACgAoAKACgAoAKACgAoAKACgAoAKACgAoAKACgAoAKACgAoAKACgAoAKACgAoAKACgAoAKACgAoAKACgAoAKACgAoAKACgAoAKACgAoAKACgAoAKACgAoAKACgAoAKACgAoAKACgAoAKACgD81vix/yVPxl/2Gr3/wBHvQB+lNABQAUAFABQAUAFABQAUAFABQAUAFABQAUAFABQAUAFABQAUAFABQAUAFABQAUAFABQAUAFABQAUAFABQAUAFABQAUAFABQAUAFABQAUAFABQAUAFABQAUAFABQAUAFABQAUAFABQAUAFABQAUAFABQAUAFAA3SgDxfxl/yM+of9dP6Cvh8y/3qZ9Vgf93gYtcR1BQAUAFABQAUAT2P/H7b/wDXRf5irpfGvVfmRP4X8/yPehX6EfGoWgY2X/Vt9KmWzGt0eAH7xr88e/8AXkfZrb7hKACgAoAKACgAoAKACgA9KXQD0r4Vf8gy9/67D/0EV9RkP8OfqeFm/wDFXodxXvHkBQAUABoA8h+IX/I0T/7if+givjM3/wB6fovyPpcs/wB3Rzfp9a83qd6Pc9A/5Alh/wBe8f8A6CK+9wn8CHovyPkMR/Fn6sv10GQUAFAEF9/x5z/7jfyrOr8D9H+RUPiXqjwTvX56fZM3PBP/ACNFh/vH/wBBNehlf+9Q/roceP8A93meyjrX2qPlxTTArXN3bW4zPcRRAd3cL/Osp1qcPikl6lRhOXwq5z+r+MtKslYQTfa5scJFnH4t0FefiM3oUdIu77L/ADOyjltapurLuea6zqtzrF4bi7fPZEHCoPQV8vicVUxM+eb/AMkfQUKEKEOSC/4JTiieaRI4lLyMcKo6k+1YRi5PlRq5KKvLY9h8HaKNF0wRvg3MvzykdAfQewr7TLsH9VpJNe89z5fG4n6xUutlsb1egcgUAFABQAUAFABQAUAFABQAUAFABQAUAFABQAUAFABQAUAFABQAUAFABQAUAFABQAUAFABQAUAFABQAUAFABQAUAFABQAUAFABQAUAFABQAUAFABQAUAFABQAUAFABQAUAFABQAUAFABQAUAFABQAUAFABQAUAFAH5rfFj/AJKn4y/7DV7/AOj3oA/SmgAoAKACgAoAKACgAoAKACgAoAKACgAoAKACgAoAKACgAoAKACgAoAKACgAoAKACgAoAKACgAoAKACgAoAKACgAoAKACgAoAKACgAoAKACgAoAKACgAoAKACgAoAKACgAoAKACgAoAKACgAoAKACgAoAKACgAbpQB4v4y/5GfUP+un9BXw+Zf71M+qwP+7wMUdR9a4XrodR3sPw98yNG/tTG5QcfZ8/rur6GOQ3XNz7+X/BPHlm9m1ybef8AwCT/AIVz/wBRT/yX/wDsqf8AYH/Tz8P+CT/bH9z8f+AH/Cuf+op/5L//AGVH9gf9PPw/4If2x/c/H/gB/wAK5/6in/kv/wDZUf2B/wBPPw/4If2x/c/H/gB/wrn/AKin/kv/APZUf2B/08/D/gh/bH9z8f8AgD4fh75M8Un9p7tjBseRjODn+9V08i5JKXPt5f8ABJnm3NFrk38/+Ad6tfQLQ8cWmA2X/Vt9KmWzGt0eAH7xr88e/wDXkfZrb7i7odol/q9pazFhHK4Vip5H04Nb4WkqtWMH1Mq9R0qcproehD4f6Ucf6Rff99p/8TX0jyLD9G/w/wAjw/7WrdUvx/zD/hX2lf8APxff99p/8TS/sKh/NL8P8h/2rW7L8f8AMP8AhX2lf8/F9/32n/xNH9hUP5pfh/kH9q1uy/H/ADD/AIV9pX/Pxff99p/8TR/YVD+aX4f5B/atbsvx/wAw/wCFfaV/z8X3/faf/E0f2FQ/ml+H+Qf2rW7L8f8AMP8AhX2lcf6Rff8Afaf/ABNH9hYf+aX4f5B/a1bsvx/zOe8Z+GbLRLGGe0luHd5dhEjKRjBPYD0rzsyy6lhKalBtu9un+R24HHVMTJxkl+P+Zx46ivF6Hpnpfwq/5Bl7/wBdh/6CK+oyH+HP1PCzf+KvQ7ivePICgAoADQB5D8Qv+Ron/wBxP/QRXxmb/wC9P0X5H0uWf7ujm/T615vU70e56B/yBLD/AK94/wD0EV97hP4EPRfkfIYj+LP1ZfroMgoAKAIL7/jzn/3G/lWdX4H6P8iofEvVHgnevz0+yYUwCgAoAKADjv0pAXtL0q91Wby7KBpOcM3RV+rV0YfC1cRLlpRMa2Jp0VeTsem+FvCsGjgTTFZ70jG/GFT2Uf1/lX1OAy2GF96TvL+tj5/F46WI0irROmWvVOEWgAoAKACgAoAKACgAoAKACgAoAKACgAoAKACgAoAKACgAoAKACgAoAKACgAoAKACgAoAKACgAoAKACgAoAKACgAoAKACgAoAKACgAoAKACgAoAKACgAoAKACgAoAKACgAoAKACgAoAKACgAoAKACgAoAKACgAoAKAPzW+LH/JU/GX/Yavf/R70AfpTQAUAFABQAUAFABQAUAFABQAUAFABQAUAFABQAUAFABQAUAFABQAUAFABQAUAFABQAUAFABQAUAFABQAUAFABQAUAFABQAUAFABQAUAFABQAUAFABQAUAFABQAUAFABQAUAFABQAUAFABQAUAFABQAUAFABQAN0oA8X8Zf8AIz6h/wBdP6Cvh8y/3qZ9Vgf93gYtcR1Hvtr/AMe8X+4P5V+hU/hR8bP4mS1ZIUAFABQAZoAM0AGaAGy/6tvpUy2Y1ujwA/eNfnj3/ryPs1t9xreEv+Rl07/rqK7Mv/3mHqc2N/3efoe1A19yfJoM0DDNABmgAzQAE0MDi/il/wAgi1/67/8Asprw89/gx9f0Z6uUfxJen6nmXpXyvQ989K+FX/IMvP8ArqP/AEGvqMh/hz9Tws3/AIq9Dt817x5AZoAM0ABNAHkXxB/5Gif/AHE/9BFfGZv/AL0/RfkfS5Z/u6ObNeb1O9HuWgn/AIk1j/1wT/0EV97hP4EPRfkfIYj+LP1ZfzXQZBmgAzQBBfH/AEKf/rm38qzq/A/R/kVD4l6o8FFfnp9ky1pdjLqV9FaW7IsspwpckDpnsDW1Ci681TjuzOrVjSg5y6HSj4f6pn/j4sfX77f/ABNep/YWI25l+P8Akef/AGvR7P8AD/MD4A1XtcWX/fb/APxNH9hYjvH8f8g/taj2f4f5mNr2g3miPGLry3ST7rxElc+mSBzXFi8DVwjSns/X/I68Ni6eIT5en9dzJ61xM6kegeAPEihI9LvSARxA/r/sn3r6LKcwSth6jt2PEzHBvWtT+Z6COtfRnii0wCgAoAKACgAoAKACgAoAKACgAoAKACgAoAKACgAoAKACgAoAKACgAoAKACgAoAKACgAoAKACgAoAKACgAoAKACgAoAKACgAoAKACgAoAKACgAoAKACgAoAKACgAoAKACgAoAKACgAoAKACgAoAKACgAoAKACgAoAKAPzW+LH/JU/GX/Yavf/AEe9AH6U0AFABQAUAFABQAUAFABQAUAFABQAUAFABQAUAFABQAUAFABQAUAFABQAUAFABQAUAFABQAUAFABQAUAFABQAUAFABQAUAFABQAUAFABQAUAFABQAUAFABQAUAFABQAUAFABQAUAFABQAUAFABQAUAFABmgAzQAjHigDxjxl/yM+of9dP6Cvh8y/3qZ9Vgf8Ad4GMK4jqPe7U/wCjxf7g/lX6FT+FHxs/iZKTVkiZoAM+9ABn3oACaAEz9aADP1oAZMf3T9fun+VTL4WOO6PBH/1j/Wvzx7/15H2a2+41vCf/ACMmnf8AXYV2Zf8A7zD1OXG/7vP0PZwa+5PlELmgYZoAM0AGaAEJxQwOM+KDZ0m1/wCu3/sprw8+/gx9f0Z6uUfxJen6nmnpXyvQ989I+Fhxpl5/11H/AKCK+oyH+HP1PCzf+IvQ7bdXvHkBuoATNAC7qA6nknxB/wCRouP9xP8A0EV8Zm/+9P0X5H0uWf7ujnDXm9TvR7foTf8AElsf+uCfyr73CfwIei/I+RxH8Wfqy+DXQYi5oAM0AQXx/wBDn/65t/Ks6vwP0f5FQ+Jeq/M8GHrX56fZM3fBX/I0WH+8f/QTXoZX/vUP66HHj/8Ad5nsQNfany4uaYFPVrGDUrGS1uVzG/cdQfUVjiKMK9Nwnt+RpSqypSU4bnjuu6TPo9+9vcDI6o4HDL/nt2r4jFYWeFqezlt0fc+qoYiOIgpx+fqZ4JVgV4IORXOm1tubep6h4H8SDUoBaXjj7bGMKxOPMH+PrX1eV5iq8fZz+Jfj5nzuYYP2MueHws68H8K9o80M+9AC596ADdQAZoAM0AG6gADA0ALmgAoAKACgAoAKACgAoAKACgAoAKACgAoAKACgAoAKACgAoAKACgAoAKACgAoAKACgAoAKACgAoAKACgAoAKACgAoAKACgAoAKACgAoAKACgAoAKACgAoAKACgAoAKACgAoAKACgAoAKACgAoA/Nb4sf8AJU/GX/Yavf8A0e9AH6U0AFABQAUAFABQAUAFABQAUAFABQAUAFABQAUAFABQAUAFABQAUAFABQAUAFABQAUAFABQAUAFABQAUAFABQAUAFABQAUAFABQAUAFABQAUAFABQAUAFABQAUAFABQAUAFABQAUAFABmgBCcUAG4UAGaADNACZ96ADNAATQAnY0AeNeMv+Rn1H/rp/QV8PmX+9TPqsD/u8DGHUVxHUe823/HvH/uj+VfoVP4UfGz+Jkhb1qyRNwoAM0AGaADdQAmfegAz70ANmP7p+f4T/ACqZfCxrdHgz/fb/AHjX549/68j7NbfcavhP/kZNO/67CuvL/wDeYepy43/d5+h7Lmvuj5QM/WgYUAFABmgAzQwON+Jx/wCJTa/9dv8A2U14effwo+v6M9XKP4kvT/I829K+V6Hvno3wv/5Bl5/12H/oNfU5D/Dn6nhZv/FXodpmvdPIDNABmgAzwaA6nlHxA/5Ge4/3E/8AQRXxmb/70/RfkfS5Z/u6OcNeb1O9HtuhH/iTWP8A1wT+Vfe4T+BD0X5HyFf+LP1ZezXQZBmgAoAhvP8Aj0n/AOubfyNZ1fgfo/yKh8S9V+Z4SK/PT7Jm54L/AORmsf8AeP8A6Ca9DK/96h/XQ48f/u8/Q9hzzX2p8uGaYBn8/rQBl+IdHg1mwMMvyyDmKTup/wAK48ZhI4qnyPR9+x0YXESw8+ZHj19aTWN3JbXSFJYzgj+o9vSviqtKVGThPRo+pp1I1YqcNmMglkgmSaF2SSM7lZTggiphKUJJx0fQqUYyXLLZnrXhHxAmtWhD7Vu4wPMQdx/eH1/Svscux8cXCz+JbnzONwjw8/J7G/ur0jiAMKAFyO1ABmgABoAWgBaACgAzQAZ96AFB96ADNABmgBc0AFABQAUAFABQAUAFABQAUAFABQAUAFABQAUAFABQAUAFABQAUAFABQAUAFABQAUAFABQAUAFABQAUAFABQAUAFABQAUAFABQAUAFABQAUAFABQAUAFABQAUAFABQAUAFAH5rfFj/AJKn4y/7DV7/AOj3oA/SmgAoAKACgAoAKACgAoAKACgAoAKACgAoAKACgAoAKACgAoAKACgAoAKACgAoAKACgAoAKACgAoAKACgAoAKACgAoAKACgAoAKACgAoAKACgAoAKACgAoAKACgAoAKACgBCcUAG4UABPpQAmT3oAM0AGaAEoAKAA0AJn1oACRQAhNACE8GhgeOeMf+Rn1H/rp/QV8PmX+9TPqsD/u8DGHUVxHUe8W3/HtF/uD+VfoMPhX9dEfGS+J+pJV3EA9qLgIcihMBM0wAt60AJuFABmgBsp/dP8A7pqZ/CxrdHhL/fb/AHjX549/68j7NbfcavhT/kY9P/66iuvL/wDeYepy43/d5+h7EDx1r7o+UDd6mgYbhQAbh60AJuGe9JgLuHvSuBx3xMIOk2uP+e3/ALKa8TPX+6j6/oz1co/iS9P8jzj0r5Z7HvnofwzbGm3mf+eo/wDQa+oyH+HP1PCzf+IvQ7IOK948gXeD0NJgG4dzRcA3jsaEw6nlfj7/AJGaf/cT/wBBFfG5v/vT9F+R9Lln+7I52vNW53o9q0Rv+JNY5/54J/Kvu8J/Ah6L8j5Cv/Fn6su7h2zXSmZBupgKGHvQBDen/Q5+f4G/lWdX4H6P8iofEvVfmeG96/PT7Jm14N/5GWx/3j/6Ca9DK/8Aeof10OTH/wC7z9D1/PpX2qPlgye+KYBuoAM0MDn/ABdoKazaeZEAt7EPkP8AeH938a8vMsCsVHmiveX9WO7A4t4eVpfCzyiRGjkaORSjqcMp7H0P0r49xcW4vR9UfSpqSutuhNYXs+n3cdzauUlQ5HofY+1XRrTozU4OzJqUo1Y8s1dHsHh7WINZshPCcOOJI88of8PSvtcFi4Yqnzx0fVHy2Jw8sPPll8jTrrZzhRcBaLgFFwDPvQmAA0wF3etAAGHagBc0AANAC5oAAaAFzQAZ9KAAE96AF3UAAYGgBaACgAoAKACgAoAKACgAoAKACgAoAKACgAoAKACgAoAKACgAoAKACgAoAKACgAoAKACgAoAKACgAoAKACgAoAKACgAoAKACgAoAKACgAoAKACgAoAKACgAoA/Nb4sf8AJU/GX/Yavf8A0e9AH6U0AFABQAUAFABQAUAFABQAUAFABQAUAFABQAUAFABQAUAFABQAUAFABQAUAFABQAUAFABQAUAFABQAUAFABQAUAFABQAUAFABQAUAFABQAUAFABQAUAFABQAUABoATNAATQAlABQAlABQAUAHSgBCaAEJoATNABQAZpMApXAQ9D9KLiPHfGH/Iz6h/10/oK+JzL/epn1WB/wB3gY46iuI6z3W2b/R4sf3R/Kv0GHwr+uiPjJfEx5Y96pCEzVWACT60WATPvQAbvWgBNw7cUAJv96AI5XzG/P8ACamfwsa3R4e/32+p/nX549/68j7Nbfcafhc48Q2H/XUV15f/ALzD1OXG/wC7z9D1sS5Ar7o+VQGTHegYhl96AG+bQAnm+9JiDzT61IHKfER92mW4z/y2/wDZTXi57/Cj6/oz1co/iS9P8jz/ANK+Wex753nw7fbp11/11H/oIr6jIf4c/U8LN/4q9DrPNPrXvHki+b+dJu2ot9DM1nXrfSPKFwkr+Znb5YB6fUiuHF46nhGvaK9zqw2EniE+XoZv/CcWHaG8z7Iv/wAVXF/bmHSvyv8AD/M6llNZvdfj/kcd4j1CLU9WkuoFdY2VVAcc8DFeFj8RHE13UgtPl/metg6MqFFQm1f+vIzK4jqWjO80/wAZWNtY28DxXReKNUJCqRwMf3q+moZzQp04waeiX9bnhVcrqznKSa1Llv40sZp44kiugzsFBKL3P+9W9POqE5qCTV/T/MylldaKcm1+P+R0fmY7n0/zzXsnmod5vvQMju5f9En/ANw/yrOr8D9H+RUPiXqvzPFhX56fYs2fB5x4jsj/ALR/9BNehlf+9Q/rocmP/wB3n6HrHmg19qj5YXzKYDg9AC7/AHoAXdnr0oYHIeN/DovY2v7JP9LQZkUf8tB6/WvDzbLvar2tPf8ANHqZdjXTapz2PN8dun16ivlT6H0NHQ9Vn0e+W4t+R0dG6OveunC4qeFqKcf6Rz4jDRxEOSXyPXtLv4dSs47m2bdG46HqD6H3r7ajXjXgqkep8tWpSozcJdC3urQzFDDtQAZoAUGgAzTuAtCYBVAGaAAUALmgBQaADNAC0AGaACgBaAD6UAAJ70ALmgBaACgAoAKACgAoAKACgAoAKACgAoAKACgAoAKACgAoAKACgAoAKACgAoAKACgAoAKACgAoAKACgAoAKACgAoAKACgAoAKACgAoAKACgAoAKACgAoA/Nb4sf8lT8Zf9hq9/9HvQB+lNABQAUAFABQAUAFABQAUAFABQAUAFABQAUAFABQAUAFABQAUAFABQAUAFABQAUAFABQAUAFABQAUAFABQAUAFABQAUAFABQAUAFABQAUAFABQAUAFABQAUAITQAmaACgAoAQ0AJQAUAFADSfSgAye9ABSYBRcAouAUXAOlG4DSaLAJmhIDx7xef8Aipb/AP3/AOlfEZl/vU/U+qwP+7wMgda4jqR7nAcW8X+6P5V+hQ+Ff10R8ZLd+o7dzVJCELUwE3UmA0tRcBpei4Dd3vRcBpei4Ecjfu3+hqZPRjW6PGG++31Nfnr3/ryPs1t9xpeGzjXbH/rqK68v/wB5h6nNjf8Ad5+h6lur7ls+UE3+pouA0vRcBN/vRcBC9JsBN9IDmfHz7tPgH/TX+hrxc9/hR9f0Z6uUfxJen+Rwo7V8s9j3ztvATYsbkf8ATQf+givqMh/hz9Tws3/iL0OoL17tzyBPMpNgcj4+bc1n/wAC/pXzufbw+Z7WT/b+RyNfPHtBQAUAFAFnTf8AkI2v/XVf51thv40PVfmZVv4cvRnrG+vvT5Bf5C76dwI7p/8ARZef4D/Ks6r9x+j/ACKh8S9V+Z5AO1fnx9kzY8KHHiCz/wB4/wAjXoZZ/vUP66HJj/8Ad5+h6jur7RM+WF3U7gKGouA5WouA8PRcBwbPbNK4eTOB8beHhC76jYqDC3MyD+E/3h7Gvms1y7kvXorTqj3cuxvMlSqfI4v2P514CezR7GuqZt+F9ck0a8yctbSH97GP5j3Fd2AxssJO7fuvc5MZhViYf3keswTpcQRzRNujkUOp9QeQfyr7WElOKlHZny0ouLcX0JQaqwgzRYBQaLAGaLAOBo2AWi4BRcAouAUJgFMAFAC7qAFoAKAFoAKAFoAKAAUAOBoAKACgAoAKACgAoAKACgAoAKACgAoAKACgAoAKACgAoAKACgAoAKACgAoAKACgAoAKACgAoAKACgAoAKACgAoAKACgAoAKACgAoAKACgAoAKAPzW+LH/JU/GX/AGGr3/0e9AH6U0AFABQAUAFABQAUAFABQAUAFABQAUAFABQAUAFABQAUAFABQAUAFABQAUAFABQAUAFABQAUAFABQAUAFABQAUAFABQAUAFABQAUAFABQAUAFABQAUAFACGgBKACgAoASgAoASgBaAGZoAKACgApMAqQEoAWgBrU0A3NUAUAFADTQAmaAEoAaTQMaTSYhjGpAZmgBpoATNADSaAGk0ANJoAQnmgBhb0oAaSe9ADSaAE3UAJu9KAGlj3NACb/AHoATfQAnmUAIZKAASUAHmUAO30ALvoAUN6UAP3HvQAu6gBQ1ADgaAHA0AOBoAcDQA7NACg0AOBoAdmgBQaAHgnvTQDwaoY8GgB2aAF7UCFU8UALQAUAApMB6nipAWgAoAQ00AtUAUAFAAOtAD6AEoAUUALQAUAFABQAq9KAFoAKACgAoAKACgAoAKACgAoAKACgAoAKACgAoAKACgAoAKACgAoAKACgAoAKACgAoAKACgAoAKACgAoAKACgAoAKACgAoAKACgAoAKACgD81vix/yVPxl/2Gr3/0e9AH6U0AFABQAUAFABQAUAFABQAUAFABQAUAFABQAUAFABQAUAFABQAUAFABQAUAFABQAUAFABQAUAFABQAUAFABQAUAFABQAUAFABQAUAFABQAUAFABQAUAFACNQAlABQAUAJQAlABQAGgBtABQAUAApMAqQCgAoARuRTQDMU7gFCYBTAQ9KAGGgAoAaRQMaRSYhjA1IDMGgBpoAaRQA0igBOe9ADSKAGEUAJigBpFADStADStADSvpQAm096AE20ANKnvQAhT0oATYaAFCUAKExQAbTQA4L6UAO2mgBdpoAUKaAHhaAHbaAFAoAcBQA/HpQAozQA4CmgFp2AcBSaAfikAoFNASAHvVDHAUCHCgBe1ADgKAFpMAouAo9qTYDgOKQC0AFABTQBVAFABQAq9aAFoAKACgB1ABQAUAFACigBaACgAoAKACgAoAKACgAoAKACgAoAKACgAoAKACgAoAKACgAoAKACgAoAKACgAoAKACgAoAKACgAoAKACgAoAKACgAoAKACgAoAKACgAoA/Nb4sf8lT8Zf9hq9/9HvQB+lNABQAUAFABQAUAFABQAUAFABQAUAFABQAUAFABQAUAFABQAUAFABQAUAFABQAUAFABQAUAFABQAUAFABQAUAFABQAUAFABQAUAFABQAUAFABQAUAFABQAGgBMUAJigAoASgAoADQAlABQA0jFABQAUmAVIBigAoAKAEPSgBhFNAGKoAoAKAENADSKBiYzSYhpWpAYVoAYUoAaUNACbD3oAaVoAQrQAmygBpSgBClACFKAGGPFAAUoAQx0AJ5dAAY6AE8vPagA8rHagA8ugA8ugBRHQAojoAUJQAojoAUJQAbKAHBKAHBKADbQA4JQA7ZQAoWmgHBDVDHBDSYh4SpAcFpoBwWqGKBQIUCgBaAFoAKTAcBUgKBQAtABigAoAMU0AVQBQAoFAC0AFACigBaACgAoAKAFAoAWgAoAKACgAoAKACgAoAKACgAoAKACgAoAKACgAoAKACgAoAKACgAoAKACgAoAKACgAoAKACgAoAKACgAoAKACgAoAKACgAoAKACgAoAKACgD81vix/wAlT8Zf9hq9/wDR70AfpTQAUAFABQAUAFABQAUAFABQAUAFABQAUAFABQAUAFABQAUAFABQAUAFABQAUAFABQAUAFABQAUAFABQAUAFABQAUAFABQAUAFABQAUAFABQAUAFABQAUAFABQAGgBCKAExQAUAJQAUALQAhoAQigBCMUmAlFgCiwBRYAosAUWAQ0JAFMAIzSYCFcdKLgIQe9FwExRcAIFG4CEUWATFJoBCtIBNtAAU4oAYY6AE8v0oAaYjQA0xmgBpjNNAHlmnYBPLPeiwAY/aiwCGP2osAnl+1FgDy8UWAUR+lFgAxnvRYBPKosAeXiiwB5ftRYBRH7UWAPL9qLAATHaiwChCe1FgHLGc0mgHCI0gDyjTQCiM96dgHeXSaAVYx6UgHhBTQChKdwF2elG4AAe9FgFoSAWmAUmAoFFwDbSuAoFFwFNG4AKdgFosAUWAKLAJmiwCjmhIBwFMAxQAooAKADFABQAtABigAAoAcBQAUAFABQAUAFABQAUAFABQAUAFABQAUAFABQAUAFABQAUAFABQAUAFABQAUAFABQAUAFABQAUAFABQAUAFABQAUAFABQAUAFABQAUAFABQAUAFAH5rfFj/kqfjL/sNXv/o96AP0poAKACgAoAKACgAoAKACgAoAKACgAoAKACgAoAKACgAoAKACgAoAKACgAoAKACgAoAKACgAoAKACgAoAKACgAoAKACgAoAKACgAoAKACgAoAKACgAoAKACgAoAKACgAoAMUAIRQAmKAA8UAJ1oAMUAFAC0AIaAEIoATb6UABU0AJigAPFACdaTAMVIBQAtACHntTQCEVQCbaTAMVIC49KADae9ACEUAJigAIoATbQAFRTQCbfaqAClACFKAE2fSgA2CgA2CgA8ugA8v2oAPL9qADy/UUAGwUAGwUAKEz6UAHl0AASgBQtJgLtFSAbaaAAKoBcUmAoFSAbaADFABt9800AoX61QBigAx7UAKKTAWpAKaATinYBaEgDFMAAoAULQAu2gBQPagBaAEoAMUAFAC0AAFAC4oAUCgAoAKACgAoAKACgAoAKACgAoAKACgAoAKACgAoAKACgAoAKACgAoAKACgAoAKACgAoAKACgAoAKACgAoAKACgAoAKACgAoAKACgAoAKACgAoAKACgAoAKAPzW+LH/JU/GX/Yavf/R70AfpTQAUAFABQAUAFABQAUAFABQAUAFABQAUAFABQAUAFABQAUAFABQAUAFABQAUAFABQAUAFABQAUAFABQAUAFABQAUAFABQAUAFABQAUAFABQAUAFABQAUAFABQAUAFABQAUAFABQAUAGKAExQAEelACYPegAxQAYoAKADHvQAUAIaAEx7UmAYosAEUWATFFgDHpQkAFTTATFJgGKLAGPaiwBiiwBRYAxRYAxRYAosAh5oSATFMAx7UAGPUUAGB6UAGPagAxQAYoAMUAGKADFABigAxQAY9BQAY9qADHtQAY9qTAUCiwCmhIBMUwACkwFxRYA/OiwBiiwBj2oSAMUwACgBdp70AKBSYCgUWACKEgAD2pgLQAlABQAUAA5oAXFAABQAuKADFAC0AFABQAUAFABQAUAFABQAUAFABQAUAFABQAUAFABQAUAFABQAUAFABQAUAFABQAUAFABQAUAFABQAUAFABQAUAFABQAUAFABQAUAFABQAUAFABQAUAFABQAUAFABQAUAfmt8WP+Sp+Mv+w1e/+j3oA/SmgAoAKACgAoAKACgAoAKACgAoAKACgAoAKACgAoAKACgAoAKACgAoAKACgAoAKACgAoAKACgAoAKACgAoAKACgAoAKACgAoAKACgAoAKACgAoAKACgAoAKACgAoAKACgAoAKACgAoAKACgAoAKACgAoAMCgAxQAmKADFAAR6UAJg96ADFABigAxQAlABigAxQAUABoATFABj2oAMe1ABigA20AG2gA20AG2gA20AG2gBMUAGKADFABigAxQAYoAXbQAbaADbQAbaADbQAbaADFABj2oAMe1AABjtQAvXtQAYoAMUAGKAACgBcUAGKADFAABQAuKADFABigBcUAGKACgAoAKACgAoAKACgAoAKACgAoAKACgAoAKACgAoAKACgAoAKACgAoAKACgAoAKACgAoAKACgAoAKACgAoAKACgAoAKACgAoAKACgAoAKACgAoAKACgAoAKACgAoAKACgAoAKACgAoAKAPzW+LH/JU/GX/Yavf/R70AfpTQAUAFABQAUAFABQAUAFABQAUAFABQAUAFABQAUAFABQAUAFABQAUAFABQAUAFABQAUAFABQAUAFABQAUAFABQAUAFABQAUAFABQAUAFABQAUAFABQAUAFABQAUAFABQAUAFABQAUAFABQAUAFABQAUAFABQAUAFABQAUAFABQAUAGKADAoAMCgAxQAmKADFABigAxQAYoAMUAGKADFABigAxQAYoANtABtoANtABtoANtABigAxQAYoAMUAGKADFABigAxQAYoAMUAGKADFAC4oAMUAGKACgAoAKACgAoAKACgAoAKACgAoAKACgAoAKACgAoAKACgAoAKACgAoAKACgAoAKACgAoAKACgAoAKACgAoAKACgAoAKACgAoAKACgAoAKACgAoAKACgAoAKACgAoAKACgAoAKACgAoAKACgAoAKACgAoAKACgAoAKACgD81vix/wAlT8Zf9hq9/wDR70AfpTQAUAFABQAUAFABQAUAFABQAUAFABQAUAFABQAUAFABQAUAFABQAUAFABQAUAFABQAUAFABQAUAFABQAUAFABQAUAFABQAUAFABQAUAFABQAUAFABQAUAFABQAUAFABQAUAFABQAUAFABQAUAFABQAUAFABQAUAFABQAUAFABQAUAFABQAUAFABQAUAFABQAUAFABQAUAFABQAUAFABQAUAFABQAUAFABQAUAFABQAUAFABQAUAFABQAUAFABQAUAFABQAUAFABQAUAFABQAUAFABQAUAFABQAUAFABQAUAFABQAUAFABQAUAFABQAUAFABQAUAFABQAUAFABQAUAFABQAUAFABQAUAFABQAUAFABQAUAFABQAUAFABQAUAFABQAUAFABQAUAFABQAUAFABQAUAFABQAUAfmt8WP+Sp+Mv+w1e/+j3oA/SmgAoAKACgAoAKACgAoAKACgAoAKACgAoAKACgAoAKACgAoAKACgAoAKACgAoAKACgAoAKACgAoAKACgAoAKACgAoAKACgAoAKACgAoAKACgAoAKACgAoAKACgAoAKACgAoAKACgAoAKACgAoAKACgAoAKACgAoAKACgAoAKACgAoAKACgAoAKACgAoAKACgAoAKACgAoAKACgAoAKACgAoAKACgAoAKACgAoAKACgAoAKACgAoAKACgAoAKACgAoAKACgAoAKACgAoAKACgAoAKACgAoAKACgAoAKACgAoAKACgAoAKACgAoAKACgAoAKACgAoAKACgAoAKACgAoAKACgAoAKACgAoAKACgAoAKACgAoAKACgAoAKACgAoAKACgAoAKACgAoAKACgAoAKACgAoAKACgAoA/Nb4sf8lT8Zf9hq9/8AR70AfpTQAUAFABQAUAFABQAUAFABQAUAFABQAUAFABQAUAFABQAUAFABQAUAFABQAUAFABQAUAFABQAUAFABQAUAFABQAUAFABQAUAFABQAUAFABQAUAFABQAUAFABQAUAFABQAUAFABQAUAFABQAUAFABQAUAFABQAUAFABQAUAFABQAUAFABQAUAFABQAUAFABQAUAFABQAUAFABQAUAFABQAUAFABQAUAFABQAUAFABQAUAFABQAUAFABQAUAFABQAUAFABQAUAFABQAUAFABQAUAFABQAUAFABQAUAFABQAUAFABQAUAFABQAUAFABQAUAFABQAUAFABQAUAFABQAUAFABQAUAFABQAUAFABQAUAFABQAUAFABQAUAFABQAUAFABQAUAFABQAUAFABQAUAFABQAUAFABQAUAfmt8WP8AkqfjL/sNXv8A6PegD9KaACgAoAKACgAoAKACgAoAKACgAoAKACgAoAKACgAoAKACgAoAKACgAoAKACgAoAKACgAoAKACgAoAKACgAoAKACgAoAKACgAoAKACgAoAKACgAoAKACgAoAKACgAoAKACgAoAKACgAoAKACgAoAKACgAoAKACgAoAKACgAoAKACgAoAKACgAoAKACgAoAKACgAoAKACgAoAKACgAoAKACgAoAKACgAoAKACgAoAKACgAoAKACgAoAKACgAoAKACgAoAKACgAoAKACgAoAKACgAoAKACgAoAKACgAoAKACgAoAKACgAoAKACgAoAKACgAoAKACgAoAKACgAoAKACgAoAKACgAoAKACgAoAKACgAoAKACgAoAKACgAoAKACgAoAKACgAoAKACgAoAKACgAoAKACgAoAKACgD81vix/yVPxl/wBhq9/9HvQB+lNABQAUAFABQAUAFABQAUAFABQAUAFABQAUAFABQAUAFABQAUAFABQAUAFABQAUAFABQAUAFABQAUAFABQAUAFABQAUAFABQAUAFABQAUAFABQAUAFABQAUAFABQAUAFABQAUAFABQAUAFABQAUAFABQAUAFABQAUAFABQAUAFABQAUAFABQAUAFABQAUAFABQAUAFABQAUAFABQAUAFABQAUAFABQAUAFABQAUAFABQAUAFABQAUAFABQAUAFABQAUAFABQAUAFABQAUAFABQAUAFABQAUAFABQAUAFABQAUAFABQAUAFABQAUAFABQAUAFABQAUAFABQAUAFABQAUAFABQAUAFABQAUAFABQAUAFABQAUAFABQAUAFABQAUAFABQAUAFABQAUAFABQAUAFABQAUAFABQB+a3xY/5Kn4y/7DV7/wCj3oA/SmgAoAKACgAoAKACgAoAKACgAoAKACgAoAKACgAoAKACgAoAKACgAoAKACgAoAKACgAoAKACgAoAKACgAoAKACgAoAKACgAoAKACgAoAKACgAoAKACgAoAKACgAoAKACgAoAKACgAoAKACgAoAKACgAoAKACgAoAKACgAoAKACgAoAKACgAoAKACgAoAKACgAoAKACgAoAKACgAoAKACgAoAKACgAoAKACgAoAKACgAoAKACgAoAKACgAoAKACgAoAKACgAoAKACgAoAKACgAoAKACgAoAKACgAoAKACgAoAKACgAoAKACgAoAKACgAoAKACgAoAKACgAoAKACgAoAKACgAoAKACgAoAKACgAoAKACgAoAKACgAoAKACgAoAKACgAoAKACgAoAKACgAoAKACgAoAKACgAoA/Nb4sf8lT8Zf9hq9/9HvQB+lNABQAUAFABQAUAFABQAUAFABQAUAFABQAUAFABQAUAFABQAUAFABQAUAFABQAUAFABQAUAFABQAUAFABQAUAFABQAUAFABQAUAFABQAUAFABQAUAFABQAUAFABQAUAFABQAUAFABQAUAFABQAUAFABQAUAFABQAUAFABQAUAFABQAUAFABQAUAFABQAUAFABQAUAFABQAUAFABQAUAFABQAUAFABQAUAFABQAUAFABQAUAFABQAUAFABQAUAFABQAUAFABQAUAFABQAUAFABQAUAFABQAUAFABQAUAFABQAUAFABQAUAFABQAUAFABQAUAFABQAUAFABQAUAFABQAUAFABQAUAFABQAUAFABQAUAFABQAUAFABQAUAFABQAUAFABQAUAFABQAUAFABQAUAFABQAUAFABQB+a3xY/5Kn4y/wCw1e/+j3oA/SmgAoAKACgAoAKACgAoAKACgAoAKACgAoAKACgAoAKACgAoAKACgAoAKACgAoAKACgAoAKACgAoAKACgAoAKACgAoAKACgAoAKACgAoAKACgAoAKACgAoAKACgAoAKACgAoAKACgAoAKACgAoAKACgAoAKACgAoAKACgAoAKACgAoAKACgAoAKACgAoAKACgAoAKACgAoAKACgAoAKACgAoAKACgAoAKACgAoAKACgAoAKACgAoAKACgAoAKACgAoAKACgAoAKACgAoAKACgAoAKACgAoAKACgAoAKACgAoAKACgAoAKACgAoAKACgAoAKACgAoAKACgAoAKACgAoAKACgAoAKACgAoAKACgAoAKACgAoAKACgAoAKACgAoAKACgAoAKACgAoAKACgAoAKACgAoAKACgAoA/Nb4sf8AJU/GX/Yavf8A0e9AH6U0AFABQAUAFABQAUAFABQAUAFABQAUAFABQAUAFABQAUAFABQAUAFABQAUAFABQAUAFABQAUAFABQAUAFABQAUAFABQAUAFABQAUAFABQAUAFABQAUAFABQAUAFABQAUAFABQAUAFABQAUAFABQAUAFABQAUAFABQAUAFABQAUAFABQAUAFABQAUAFABQAUAFABQAUAFABQAUAFABQAUAFABQAUAFABQAUAFABQAUAFABQAUAFABQAUAFABQAUAFABQAUAFABQAUAFABQAUAFABQAUAFABQAUAFABQAUAFABQAUAFABQAUAFABQAUAFABQAUAFABQAUAFABQAUAFABQAUAFABQAUAFABQAUAFABQAUAFABQAUAFABQAUAFABQAUAFABQAUAFABQAUAFABQAUAFABQAUAFAH5rfFj/kqfjL/sNXv/o96AP0poAKACgAoAKACgAoAKACgAoAKACgAoAKACgAoAKACgAoAKACgAoAKACgAoAKACgAoAKACgAoAKACgAoAKACgAoAKACgAoAKACgAoAKACgAoAKACgAoAKACgAoAKACgAoAKACgAoAKACgAoAKACgAoAKACgAoAKACgAoAKACgAoAKACgAoAKACgAoAKACgAoAKACgAoAKACgAoAKACgAoAKACgAoAKACgAoAKACgAoAKACgAoAKACgAoAKACgAoAKACgAoAKACgAoAKACgAoAKACgAoAKACgAoAKACgAoAKACgAoAKACgAoAKACgAoAKACgAoAKACgAoAKACgAoAKACgAoAKACgAoAKACgAoAKACgAoAKACgAoAKACgAoAKACgAoAKACgAoAKACgAoAKACgAoAKACgAoAKAPzW+LH/JU/GX/Yavf/AEe9AH//2Q==" vertex="1" parent="1">
          <mxGeometry x="430" y="80" width="106.95" height="80" as="geometry" />
        </mxCell>
        <mxCell id="hoo51S1aPGbEEFe9KzI7-3" value="" style="shape=image;html=1;verticalAlign=top;verticalLabelPosition=bottom;labelBackgroundColor=#ffffff;imageAspect=0;aspect=fixed;image=https://cdn0.iconfinder.com/data/icons/google-material-design-3-0/48/ic_http_48px-128.png" vertex="1" parent="1">
          <mxGeometry x="448.47" y="210" width="70" height="70" as="geometry" />
        </mxCell>
      </root>
    </mxGraphModel>
  </diagram>
</mxfile>
